<?xml version="1.0" standalone="no"?>
<!DOCTYPE svg PUBLIC "-//W3C//DTD SVG 20010904//EN"
 "http://www.w3.org/TR/2001/REC-SVG-20010904/DTD/svg10.dtd">
<svg version="1.0" xmlns="http://www.w3.org/2000/svg"
 width="962.000000pt" height="962.000000pt" viewBox="0 0 962.000000 962.000000"
 preserveAspectRatio="xMidYMid meet">
<metadata>
Created by potrace 1.14, written by Peter Selinger 2001-2017
</metadata>
<g transform="translate(0.000000,962.000000) scale(0.100000,-0.100000)"
fill="#000000" stroke="none">
<path d="M1714 8906 c-6 -16 -7 -21 -18 -81 -4 -22 -12 -60 -17 -85 -5 -25
-12 -56 -15 -70 -10 -51 -33 -156 -38 -180 -9 -39 -15 -72 -21 -110 -3 -19
-11 -53 -17 -75 -5 -22 -12 -51 -14 -65 -2 -14 -7 -36 -10 -50 -9 -39 -17 -83
-18 -105 -1 -11 -4 -22 -7 -25 -4 -3 -10 -27 -13 -54 -4 -27 -9 -52 -11 -56
-2 -4 -6 -19 -9 -35 -6 -34 -24 -120 -32 -155 -3 -14 -7 -34 -9 -45 -2 -11 -4
-20 -5 -20 -2 0 -4 -9 -5 -20 -5 -38 -13 -80 -29 -148 -9 -37 -18 -82 -21
-100 -4 -17 -15 -70 -25 -117 -10 -47 -22 -101 -25 -120 -3 -19 -10 -51 -15
-71 -6 -19 -12 -51 -14 -70 -3 -19 -5 -34 -6 -34 -2 0 -6 -20 -34 -155 -18
-89 -27 -130 -42 -200 -3 -14 -7 -38 -10 -55 -3 -16 -7 -37 -10 -45 -3 -8 -8
-33 -11 -55 -3 -22 -9 -48 -14 -57 -6 -10 -8 -18 -5 -18 2 0 -2 -28 -10 -62
-8 -35 -17 -78 -20 -98 -3 -19 -8 -38 -10 -41 -2 -3 -5 -19 -8 -35 -3 -16 -8
-44 -11 -63 -3 -19 -8 -37 -10 -40 -2 -4 -6 -27 -10 -51 -7 -47 -8 -50 -18
-90 -4 -14 -9 -36 -11 -50 -3 -14 -8 -36 -11 -50 -3 -14 -8 -38 -11 -55 -3
-16 -10 -50 -15 -75 -6 -25 -13 -56 -15 -69 -3 -13 -12 -54 -20 -90 -8 -36
-17 -82 -20 -101 -2 -19 -9 -51 -14 -70 -5 -19 -12 -48 -15 -65 -5 -28 -14
-78 -19 -100 -1 -5 -5 -19 -9 -30 -3 -11 -8 -36 -11 -55 -6 -42 -60 -296 -76
-360 -6 -25 -12 -52 -12 -60 0 -8 -9 -55 -20 -105 -27 -126 -28 -126 -33 -160
-3 -16 -8 -37 -10 -45 -2 -8 -6 -26 -9 -40 -2 -14 -9 -45 -15 -70 -11 -51 -22
-105 -26 -135 -2 -11 -4 -20 -5 -20 -2 0 -6 -18 -13 -60 -3 -16 -15 -75 -27
-130 -12 -55 -24 -111 -27 -125 -2 -14 -16 -79 -30 -145 -14 -66 -27 -131 -29
-145 -2 -14 -7 -36 -11 -50 -3 -14 -7 -27 -8 -30 -3 -12 -18 -87 -21 -105 -5
-28 -12 -60 -14 -60 -1 0 -3 -13 -5 -30 -2 -16 -9 -50 -14 -75 -6 -25 -13 -56
-15 -70 -3 -14 -8 -36 -11 -50 -6 -26 -12 -53 -19 -92 -2 -13 -7 -38 -11 -57
-3 -19 -8 -37 -10 -40 -2 -4 -6 -25 -9 -47 -4 -23 -11 -55 -16 -73 -5 -17 -9
-34 -9 -36 0 -4 -14 -76 -26 -130 -2 -13 -17 -85 -20 -105 -2 -8 -10 -46 -19
-85 -9 -38 -18 -81 -20 -95 -2 -14 -12 -58 -20 -97 -9 -40 -18 -87 -21 -105
-4 -18 -11 -53 -16 -78 -6 -25 -13 -54 -15 -65 -2 -11 -6 -31 -9 -45 -17 -76
-23 -115 -19 -121 2 -4 0 -9 -4 -11 -7 -2 -25 -84 -68 -308 -3 -14 -10 -45
-15 -70 -6 -25 -13 -56 -15 -70 -2 -14 -11 -52 -19 -85 -8 -33 -17 -71 -19
-85 -2 -14 -5 -25 -6 -25 -1 0 -3 -9 -4 -20 -2 -11 -7 -40 -11 -65 -5 -25 -9
-49 -10 -55 -1 -5 -3 -12 -4 -15 -2 -3 -4 -14 -6 -25 -2 -11 -6 -31 -9 -45 -4
-14 -9 -38 -12 -55 -3 -16 -7 -34 -8 -40 -3 -12 -17 -82 -22 -108 -3 -16 39
-17 762 -17 420 0 764 2 764 4 0 4 28 149 35 186 3 14 8 39 10 55 2 17 9 52
15 79 5 27 8 51 5 54 -2 3 0 12 4 21 9 15 13 35 27 114 3 17 12 64 20 104 7
39 16 89 20 110 3 21 7 46 10 55 6 19 10 42 18 89 3 19 10 57 15 84 6 28 12
59 14 70 3 11 7 36 11 55 3 19 8 46 11 60 3 14 7 40 10 59 2 18 7 41 9 50 3 9
8 31 11 48 3 18 14 77 24 130 19 94 30 156 36 198 2 11 4 20 5 20 2 0 7 26 13
72 3 21 8 45 11 53 3 8 8 30 11 48 15 90 20 116 35 192 6 30 13 66 15 80 3 14
7 36 10 50 2 13 7 42 10 65 3 22 8 48 11 57 5 18 9 36 24 118 6 30 13 66 16
80 3 14 7 34 9 45 9 54 17 100 21 119 2 11 8 46 14 76 6 30 12 66 15 80 3 14
12 63 21 110 23 122 23 120 34 175 5 28 12 64 15 80 5 29 10 55 20 105 17 82
38 199 40 220 2 14 4 25 5 25 2 0 7 22 15 69 4 21 9 48 11 60 2 11 7 37 10 56
3 19 9 53 14 75 5 22 11 56 15 75 3 19 8 49 12 65 3 17 7 39 9 50 2 19 16 88
29 145 3 14 8 41 11 60 3 19 7 43 10 53 3 10 7 32 10 50 2 18 6 43 9 57 3 14
7 36 10 50 3 14 7 36 10 50 8 39 15 72 20 105 3 17 8 44 12 60 3 17 7 39 9 50
4 27 13 74 21 110 4 17 8 35 9 40 1 6 5 30 9 55 3 25 13 77 21 115 16 75 24
118 27 150 2 11 6 26 10 33 5 6 6 12 4 12 -2 0 0 19 4 43 5 23 11 56 14 74 3
18 12 64 20 102 8 39 17 85 20 103 3 18 10 56 15 83 5 28 12 61 14 75 3 14 5
25 6 25 1 0 3 9 5 20 7 50 14 92 19 111 2 12 7 37 10 55 3 19 8 45 11 59 3 14
8 39 11 55 3 17 16 84 29 150 13 66 26 136 29 156 3 20 8 42 10 50 3 8 8 32
10 54 3 22 15 85 26 140 27 135 31 155 36 190 5 42 31 155 36 160 2 3 5 -33 5
-78 4 -211 21 -566 29 -578 3 -5 0 -9 -6 -9 -6 0 -8 -5 -4 -12 9 -13 9 -21 28
-528 5 -120 9 -206 22 -460 3 -63 7 -167 9 -230 2 -63 4 -115 5 -115 1 0 3
-49 5 -110 2 -60 6 -159 9 -220 10 -189 23 -499 30 -705 3 -63 7 -167 10 -230
11 -217 16 -325 21 -455 6 -169 13 -333 20 -459 9 -185 17 -364 20 -468 2 -57
4 -103 5 -103 0 0 3 -53 5 -119 2 -65 6 -171 9 -235 10 -201 18 -363 21 -456
11 -283 15 -370 20 -460 7 -150 16 -336 21 -465 2 -63 6 -153 8 -200 2 -47 4
-100 5 -117 l1 -33 799 0 800 0 15 22 c9 12 16 30 16 40 0 10 5 18 10 18 6 0
10 5 10 10 0 6 16 42 35 81 19 39 35 77 35 85 0 8 4 14 9 14 5 0 12 10 16 23
4 12 8 24 9 27 2 6 70 148 122 255 19 38 34 74 34 78 0 5 7 15 15 24 8 8 13
19 10 24 -4 5 -1 9 4 9 6 0 10 3 9 8 -1 4 19 50 44 102 25 52 70 145 99 205
29 61 53 112 54 115 1 3 12 28 25 55 13 28 23 53 22 58 -1 4 2 7 8 7 5 0 10 4
10 10 0 5 27 65 59 132 137 286 181 380 181 389 0 5 5 9 12 9 6 0 9 3 6 6 -4
3 8 33 25 67 17 34 32 64 32 67 1 3 24 52 52 110 28 58 72 150 98 205 26 55
75 156 107 225 110 230 128 269 128 280 0 5 5 10 10 10 6 0 10 4 10 9 0 11 46
110 141 306 34 72 63 132 64 135 2 9 76 165 86 180 5 8 12 22 15 30 4 8 25 53
47 100 22 47 57 121 77 165 21 44 67 141 102 215 36 74 84 176 108 225 23 50
55 115 71 146 16 31 26 58 24 61 -3 3 1 11 10 18 8 7 15 16 15 21 0 5 38 88
85 185 47 97 85 182 85 189 0 7 3 15 8 17 7 3 25 38 90 178 22 47 58 124 81
171 22 48 41 92 41 97 0 6 5 12 11 14 5 2 11 10 12 18 2 8 21 53 44 100 112
232 161 337 167 358 4 12 12 22 17 22 5 0 9 6 9 14 0 8 17 49 39 92 21 44 49
102 61 129 29 64 53 115 68 140 6 11 24 49 41 85 16 36 57 124 91 195 110 230
160 337 160 344 0 3 9 17 19 31 19 24 19 23 0 -59 -11 -46 -22 -87 -24 -91 -3
-4 -8 -25 -11 -46 -9 -58 -11 -68 -17 -84 -4 -8 -8 -26 -11 -40 -2 -14 -11
-52 -19 -85 -9 -33 -18 -71 -21 -85 -2 -14 -12 -54 -21 -90 -21 -86 -24 -100
-30 -130 -2 -14 -12 -52 -21 -85 -8 -33 -18 -70 -20 -81 -2 -12 -18 -80 -35
-150 -37 -156 -38 -158 -53 -229 -1 -5 -5 -19 -9 -30 -6 -18 -12 -45 -22 -100
-2 -11 -13 -56 -24 -100 -24 -94 -71 -291 -77 -320 -2 -11 -13 -58 -24 -105
-23 -98 -31 -133 -32 -140 0 -3 -7 -27 -15 -53 -8 -26 -16 -60 -18 -75 -2 -15
-8 -42 -14 -60 -5 -18 -10 -33 -10 -35 1 -3 -4 -24 -41 -177 -16 -69 -31 -134
-33 -145 -2 -11 -7 -27 -10 -35 -3 -8 -8 -28 -11 -45 -2 -16 -23 -106 -46
-200 -23 -93 -44 -181 -47 -195 -2 -14 -11 -50 -19 -80 -8 -30 -17 -64 -18
-75 -9 -46 -58 -253 -68 -284 -6 -19 -12 -46 -14 -60 -2 -14 -19 -89 -38 -166
-19 -77 -32 -143 -30 -147 3 -4 0 -8 -7 -8 -7 0 -10 -3 -7 -6 3 -3 0 -29 -8
-57 -12 -45 -19 -75 -28 -122 -1 -5 -5 -16 -9 -22 -5 -7 -6 -13 -4 -13 2 0 -2
-26 -10 -57 -8 -32 -16 -67 -18 -78 -3 -11 -9 -40 -16 -65 -6 -25 -13 -54 -15
-65 -1 -11 -7 -35 -13 -52 -5 -18 -8 -33 -5 -33 3 0 0 -8 -5 -18 -5 -9 -12
-30 -15 -47 -3 -16 -12 -59 -21 -95 -8 -36 -18 -76 -21 -90 -3 -14 -14 -61
-25 -105 -12 -44 -23 -89 -25 -100 -2 -11 -8 -41 -14 -66 -6 -26 -13 -53 -14
-60 -2 -8 -5 -21 -8 -29 -3 -8 -12 -42 -19 -75 -7 -33 -14 -64 -15 -70 -2 -5
-5 -21 -8 -35 -10 -43 -17 -75 -20 -85 -7 -26 -16 -62 -21 -85 -2 -14 -16 -70
-29 -125 -14 -55 -28 -111 -30 -125 -3 -14 -12 -49 -20 -77 -8 -29 -12 -53
-10 -53 2 0 0 -10 -5 -23 -5 -13 -12 -41 -15 -61 -4 -21 -8 -41 -11 -45 -2 -4
-6 -18 -9 -32 -8 -36 -27 -119 -42 -174 -3 -11 -6 -29 -8 -40 -2 -11 -8 -38
-14 -60 -6 -22 -13 -51 -16 -65 -3 -14 -14 -61 -26 -105 -11 -44 -22 -89 -24
-100 -5 -33 -37 -168 -47 -199 -5 -16 -9 -35 -9 -43 0 -11 127 -13 772 -11
762 3 771 3 774 23 2 11 6 34 9 50 6 38 13 70 15 70 1 0 4 11 5 25 2 14 8 43
14 65 5 22 12 54 15 70 9 48 15 75 20 93 3 9 8 35 11 57 7 45 13 70 15 70 1 0
3 9 5 20 4 31 15 89 20 105 2 8 7 29 10 45 8 38 13 59 15 63 2 1 3 10 5 20 1
9 5 35 10 57 4 22 9 47 11 55 1 8 19 92 39 185 20 94 45 215 56 270 12 55 22
107 24 115 5 21 45 211 50 235 2 11 4 20 5 20 1 0 3 11 5 25 2 14 15 78 29
143 14 65 28 131 31 145 6 35 13 71 20 102 3 14 8 36 11 50 3 14 7 36 10 50 3
14 23 111 46 215 22 105 42 199 44 210 2 11 11 54 19 95 8 41 17 85 20 98 2
13 6 31 9 40 3 9 7 28 10 42 2 14 18 93 36 175 17 83 34 164 37 180 2 17 8 46
13 65 5 19 12 51 15 70 3 19 12 62 20 95 15 64 27 121 31 145 1 8 5 26 8 40 8
35 26 121 32 155 3 16 7 32 10 36 2 4 7 29 10 55 3 27 8 53 12 58 3 6 7 21 8
33 2 13 8 49 15 81 7 31 13 62 15 67 1 8 23 108 29 135 0 3 5 28 10 55 4 28
10 55 11 60 9 32 18 72 28 125 2 14 12 59 21 100 9 41 18 84 20 95 1 11 3 20
5 20 1 0 3 9 5 20 1 11 5 34 9 50 3 17 9 46 12 65 3 19 8 38 10 41 2 4 6 24
10 45 3 22 9 55 14 74 5 19 16 71 25 115 9 44 18 87 20 95 12 55 68 329 72
350 2 14 8 42 14 63 6 21 12 50 14 65 5 31 16 86 30 142 2 8 7 36 11 63 3 26
11 50 15 53 5 3 7 9 5 13 -3 4 0 25 5 47 5 21 12 50 14 64 3 14 10 45 15 70 5
25 12 56 14 70 2 14 11 57 20 95 9 39 18 81 20 95 3 14 7 36 11 50 3 14 7 39
10 55 2 17 9 50 16 75 13 53 17 73 25 120 3 19 12 60 20 90 7 30 15 71 18 90
3 19 8 46 11 60 3 14 8 36 11 50 3 14 10 43 16 65 5 22 12 58 15 80 2 21 7 43
10 48 3 4 7 23 10 40 7 42 11 62 13 62 1 0 3 9 4 20 2 11 9 47 16 80 7 33 14
69 15 80 2 11 8 40 15 64 6 25 13 56 15 70 2 14 4 26 5 26 2 0 10 36 15 70 6
41 14 81 30 145 7 30 16 69 18 85 5 29 31 155 42 203 l5 22 -1218 0 -1217 0
-33 -64 c-17 -34 -32 -68 -32 -75 0 -6 -4 -11 -10 -11 -5 0 -10 -3 -9 -7 2
-16 -14 -53 -22 -53 -5 0 -9 -7 -9 -15 0 -8 -9 -30 -20 -50 -11 -19 -16 -35
-12 -35 4 0 2 -4 -3 -8 -6 -4 -24 -34 -39 -67 -16 -33 -58 -118 -93 -189 -34
-70 -63 -135 -63 -142 0 -8 -4 -14 -9 -14 -5 0 -13 -10 -17 -22 -4 -13 -59
-129 -122 -258 -64 -129 -116 -237 -117 -240 -1 -3 -38 -81 -84 -175 -46 -93
-83 -172 -83 -175 0 -3 -6 -12 -13 -20 -7 -8 -14 -18 -14 -22 -1 -10 -78 -170
-234 -488 -242 -495 -307 -631 -307 -640 0 -6 -4 -10 -10 -10 -5 0 -10 -5 -10
-11 0 -11 -131 -288 -150 -319 -6 -8 -14 -24 -19 -36 -10 -23 -104 -217 -261
-539 -56 -115 -127 -262 -157 -325 -31 -63 -58 -117 -62 -120 -3 -3 -8 -14 -9
-25 -2 -11 -7 -22 -11 -25 -3 -3 -17 -30 -31 -60 -14 -30 -28 -56 -32 -58 -5
-2 -8 -11 -8 -21 0 -9 -6 -26 -14 -37 -8 -11 -23 -41 -32 -65 -10 -24 -20 -46
-23 -49 -8 -6 -108 -212 -128 -262 -8 -21 -19 -38 -24 -38 -5 0 -9 -6 -9 -13
0 -8 -18 -49 -39 -93 -47 -95 -242 -497 -277 -571 -14 -29 -30 -55 -35 -59 -6
-3 -8 -12 -5 -19 3 -8 2 -15 -2 -17 -4 -2 -29 -49 -56 -105 -27 -56 -53 -100
-58 -97 -5 3 -4 11 1 18 6 7 8 16 5 19 -4 3 -8 52 -10 109 -3 100 -8 210 -20
448 -3 63 -7 160 -9 215 -8 205 -15 363 -20 470 -10 203 -16 350 -29 660 -12
269 -17 395 -21 445 -2 30 -6 134 -10 230 -4 96 -9 209 -11 250 -1 41 -6 136
-9 210 -3 74 -7 171 -10 215 -2 44 -6 142 -9 218 -3 76 -8 143 -12 148 -3 5 0
9 6 9 6 0 8 5 5 11 -4 6 -9 54 -11 107 -2 53 -6 149 -9 212 -6 108 -8 153 -19
422 -2 59 -7 111 -10 117 -4 5 -2 12 4 16 6 4 8 11 4 16 -3 5 -7 58 -10 117
-5 120 -11 269 -18 412 -5 93 -16 338 -21 475 -2 39 -4 94 -4 123 l-1 52
-1205 0 c-1033 0 -1206 -2 -1211 -14z"/>
</g>
</svg>
