<svg width="402" height="316" viewBox="0 0 402 316" fill="none" xmlns="http://www.w3.org/2000/svg">
<path d="M73.0986 171.342C69.9493 143.748 70.9593 117.742 75.6491 94.7352L83.4955 67.5343C96.1516 33.9203 118.07 10.0991 146.712 2.77311C147.571 2.59569 148.38 2.52175 149.239 2.34433C149.239 2.34433 155.011 1.32552 158.91 1.00028C162.809 0.67504 169.208 0.678661 169.208 0.678661C181.612 1.2773 194.093 4.91786 206.384 11.139L225.755 23.502C244.533 37.8222 261.948 58.2998 276.243 83.7356L285.877 102.551C287.89 106.856 289.743 111.213 291.575 115.719C299.277 115.859 306.608 116.209 313.555 116.844L350.056 123.455C377.478 131.543 394.924 145.667 399.799 164.923C405.464 187.283 393.075 211.664 365.521 234.665C349.446 248.139 328.137 261.154 302.269 273.01C278.016 284.193 251.145 293.63 222.429 300.945C193.712 308.26 165.665 312.836 139.021 314.587C116.425 316.097 96.0954 315.591 78.3072 313.26L57.0398 309.364C26.3839 301.637 6.70863 286.995 1.48076 266.288C-6.28339 235.599 19.7968 201.296 73.0986 171.342Z" fill="#FBF6EA"/>
</svg>
