<svg width="90" height="90" viewBox="0 0 90 90" fill="none" xmlns="http://www.w3.org/2000/svg">
<path d="M63.8444 41.4558H49.7244L46.7014 54.2133L41.0854 12.2763L34.9299 48.4688L29.1251 25.7203L25.3977 41.4558H9.69019V43.0282H26.56L29.1778 31.9785L35.221 55.6578L40.9105 22.2065L46.295 62.4138L50.8878 43.0282H63.8444V41.4558Z" fill="#EA3A39" stroke="#EA3A39" stroke-width="2"/>
<path d="M34.9299 48.4687L41.0854 12.2762L40.9105 22.2065L35.221 55.6577L29.1778 31.9784L26.56 43.0282H9.69019V41.4558H25.3977L29.1251 25.7203L34.9299 48.4687Z" fill="#29475F" stroke="#29475F" stroke-width="2"/>
<path d="M65.4508 58.6725C69.4902 52.5265 71.6212 45.3155 71.6212 37.7732C71.6212 17.4966 55.9872 1 36.7708 1C17.5484 1 1.90845 17.4955 1.90845 37.7732C1.90845 58.0571 17.5474 74.5589 36.7708 74.5589C45.7645 74.5589 54.2516 70.9823 60.7518 64.4704L83.0608 87.9967L88.1503 82.6264L65.4508 58.6725ZM60.7627 62.2586L60.2362 62.8079C53.9506 69.3711 45.6175 72.9855 36.7708 72.9855C18.37 72.9866 3.39863 57.1902 3.39863 37.7732C3.39863 18.3635 18.369 2.5724 36.7708 2.5724C55.1656 2.5724 70.131 18.3635 70.131 37.7732C70.131 45.2075 67.9672 52.3064 63.8752 58.3003L63.5046 58.8433L86.0442 82.6264L83.0618 85.7733L60.7627 62.2586Z" fill="white" stroke="white" stroke-width="2"/>
</svg>
