<svg width="83" height="88" viewBox="0 0 83 88" fill="none" xmlns="http://www.w3.org/2000/svg">
<path d="M3.57436 44C3.57436 56.5775 8.96896 68.295 18.4349 75.9275L16.8064 78.0775C6.62791 69.9075 0.826172 57.4375 0.826172 44C0.826172 20.2425 19.0457 1 41.5401 1C64.0345 1 82.1522 20.2425 82.1522 44C82.1522 67.7575 63.9328 87 41.4383 87C39.3008 87 37.1634 86.785 35.1277 86.4625C33.3973 86.14 31.667 85.71 29.9366 85.1725H29.8348L29.6313 85.065C29.5295 84.9575 29.4277 84.9575 29.4277 84.9575C25.3563 83.6675 22.201 80.12 21.1831 75.7125C20.1653 71.09 21.3867 66.36 24.542 63.0275L26.4759 60.985C25.4581 59.8025 24.6438 58.405 24.0331 56.9C21.2849 50.3425 22.7099 43.14 27.4938 39.3775C29.8348 37.55 32.6848 36.5825 36.0437 35.4C42.2526 33.25 49.9882 30.455 57.6221 21.5325L59.4566 19.5L59.8614 22.1775C60.0649 23.145 63.4238 44.86 48.7668 61.9525C46.1204 65.07 42.2526 66.79 38.283 66.79C36.2473 66.79 34.2116 66.36 32.2777 65.5L33.2955 62.92C38.0794 65.07 43.5758 63.995 46.8329 60.125C57.6221 47.5475 58.0292 31.96 57.6221 25.6175C50.1918 33.465 42.9651 35.9375 36.9598 38.0875C33.8045 39.1625 31.0563 40.13 29.1224 41.635C24.7456 45.075 24.7456 51.4175 26.5777 55.825C27.0867 57.0075 27.6974 58.0825 28.4099 59.05L42.9651 43.6775L44.7972 45.6125L29.2241 62.06L26.4759 64.9625C23.9313 67.65 22.9135 71.4125 23.8295 75.0675C24.6438 78.615 27.1884 81.41 30.4456 82.485C32.1758 83.13 33.9061 83.4525 35.6364 83.775L35.6366 83.775L35.6368 83.775C37.5706 83.99 39.5045 84.205 41.5401 84.205C62.5078 84.205 79.6076 66.145 79.6076 44C79.6076 21.855 62.6096 3.795 41.6419 3.795C20.6742 3.795 3.57436 21.855 3.57436 44Z" fill="white" stroke="white" stroke-width="1.5"/>
<path d="M26.5775 55.825C27.0865 57.0075 27.6972 58.0825 28.4097 59.05L26.4758 60.985C25.4579 59.8025 24.6436 58.405 24.0329 56.9C21.2847 50.3425 22.7097 43.14 27.4936 39.3775C29.8347 37.55 32.6846 36.5825 36.0435 35.4C42.2524 33.25 49.9881 30.455 57.6219 21.5325L59.4564 19.5L59.8612 22.1775C60.0648 23.145 63.4237 44.86 48.7666 61.9525C46.1202 65.07 42.2524 66.79 38.2828 66.79C36.2471 66.79 34.2114 66.36 32.2775 65.5L33.2953 62.92C38.0792 65.07 43.5756 63.995 46.8327 60.125C57.6219 47.5475 58.0291 31.96 57.6219 25.6175C50.1916 33.465 42.9649 35.9375 36.9596 38.0875C33.8043 39.1625 31.0561 40.13 29.1222 41.635C24.7454 45.075 24.7454 51.4175 26.5775 55.825Z" fill="#EA3A39" stroke="#EA3A39" stroke-width="1.5"/>
</svg>
