<svg width="402" height="316" viewBox="0 0 402 316" fill="none" xmlns="http://www.w3.org/2000/svg">
<path d="M328.738 171.489C331.887 143.894 330.877 117.888 326.188 94.8819L318.341 67.681C305.685 34.067 283.767 10.2458 255.124 2.91984C254.265 2.74242 253.457 2.66847 252.598 2.49106C252.598 2.49106 246.826 1.47225 242.927 1.14701C239.028 0.821769 232.629 0.825389 232.629 0.825389C220.225 1.42403 207.744 5.06459 195.453 11.2857L176.082 23.6488C157.303 37.9689 139.889 58.4465 125.593 83.8823L115.96 102.697C113.947 107.002 112.094 111.36 110.261 115.866C102.56 116.006 95.2287 116.356 88.2815 116.991L51.7811 123.602C24.3585 131.69 6.91263 145.814 2.03788 165.069C-3.62691 187.429 8.76185 211.81 36.3156 234.812C52.3906 248.285 73.6998 261.301 99.5672 273.157C123.821 284.34 150.692 293.777 179.408 301.092C208.125 308.407 236.171 312.982 262.816 314.734C285.412 316.244 305.741 315.737 323.529 313.407L344.797 309.511C375.453 301.783 395.128 287.142 400.356 266.435C408.12 235.745 382.04 201.443 328.738 171.489Z" fill="#E6FBDC"/>
</svg>
