<svg width="136" height="92" viewBox="0 0 136 92" fill="none" xmlns="http://www.w3.org/2000/svg">
<path d="M31.9379 41.5784V13.2139C31.9379 10.178 29.4768 7.71692 26.4409 7.71692V7.71692C23.405 7.71692 20.9439 10.178 20.9439 13.2139V41.5784L12.8724 33.5069C10.5297 31.1642 6.7315 31.1642 4.38882 33.5069V33.5069C2.3774 35.5183 2.05521 38.6659 3.61739 41.0431L11.0493 52.3525L23.1427 73.0212L20.724 89.5122" stroke="white" stroke-width="3"/>
<line x1="26.3547" y1="13" x2="26.3547" y2="17.3976" stroke="#507E9B" stroke-width="3"/>
<line x1="26.3547" y1="20.3976" x2="26.3547" y2="24.7952" stroke="#507E9B" stroke-width="3"/>
<line x1="26.3547" y1="27.7952" x2="26.3547" y2="32.1928" stroke="#507E9B" stroke-width="3"/>
<line x1="26.3547" y1="35.1928" x2="26.3547" y2="39.5904" stroke="#507E9B" stroke-width="3"/>
<line x1="48.3547" y1="13" x2="48.3547" y2="17.3976" stroke="#507E9B" stroke-width="3"/>
<line x1="48.3547" y1="20.3976" x2="48.3547" y2="24.7952" stroke="#507E9B" stroke-width="3"/>
<line x1="48.3547" y1="27.7952" x2="48.3547" y2="32.1928" stroke="#507E9B" stroke-width="3"/>
<line x1="48.3547" y1="35.1928" x2="48.3547" y2="39.5904" stroke="#507E9B" stroke-width="3"/>
<line x1="59.3547" y1="20" x2="59.3547" y2="24.3976" stroke="white" stroke-width="3"/>
<line x1="59.3547" y1="27.3976" x2="59.3547" y2="31.7952" stroke="white" stroke-width="3"/>
<line x1="59.3547" y1="34.7952" x2="59.3547" y2="39.1928" stroke="white" stroke-width="3"/>
<line x1="7.96331" y1="37.5431" x2="10.9422" y2="40.7781" stroke="white" stroke-width="3"/>
<line x1="12.9743" y1="42.985" x2="15.9532" y2="46.22" stroke="white" stroke-width="3"/>
<line x1="37.3547" y1="6" x2="37.3547" y2="10.3976" stroke="white" stroke-width="3"/>
<line x1="37.3547" y1="13.3976" x2="37.3547" y2="17.7952" stroke="white" stroke-width="3"/>
<line x1="37.3547" y1="20.7952" x2="37.3547" y2="25.1928" stroke="white" stroke-width="3"/>
<line x1="37.3547" y1="28.1928" x2="37.3547" y2="32.5904" stroke="white" stroke-width="3"/>
<line x1="37.3547" y1="35.5904" x2="37.3547" y2="39.988" stroke="white" stroke-width="3"/>
<path d="M42.9317 41.5784V7.49699C42.9317 4.46109 40.4706 2 37.4347 2V2C34.3988 2 31.9377 4.46109 31.9377 7.49699V13.4337" stroke="white" stroke-width="3"/>
<path d="M53.9259 41.5784V13.2139C53.9259 10.178 51.4648 7.71692 48.4289 7.71692V7.71692C45.393 7.71692 42.9319 10.178 42.9319 13.2139V17.4991" stroke="white" stroke-width="3"/>
<path d="M53.9258 20.6263V17.6115C53.9258 14.5756 56.3869 12.1145 59.4228 12.1145V12.1145C62.4587 12.1145 64.9198 14.5756 64.9198 17.6115V41.5784L58.3234 73.0212L59.7884 85.5543M19.8445 89.9519H60.3024L59.7884 85.5543M59.7884 85.5543H21.3836" stroke="white" stroke-width="3"/>
<line x1="27.6667" y1="72.8013" x2="27.6667" y2="77.1989" stroke="#EA3A39" stroke-width="3"/>
<line x1="32.6667" y1="72.8014" x2="32.6667" y2="77.199" stroke="#EA3A39" stroke-width="3"/>
<line x1="37.6667" y1="72.8014" x2="37.6667" y2="77.199" stroke="#EA3A39" stroke-width="3"/>
<line x1="42.6667" y1="72.8014" x2="42.6667" y2="77.199" stroke="#EA3A39" stroke-width="3"/>
<line x1="47.6667" y1="72.8014" x2="47.6667" y2="77.199" stroke="#EA3A39" stroke-width="3"/>
<line x1="52.6667" y1="72.8014" x2="52.6667" y2="77.199" stroke="#EA3A39" stroke-width="3"/>
<path d="M40.1256 47V57M40.1256 47H32.899M40.1256 47H48.9902M40.1256 57H32.899M40.1256 57H48.9902M32.899 47H25.6724L20.8547 52.2941L23.5527 57H32.899M32.899 47V57M48.9902 47H57.8547L55.7349 57H48.9902M48.9902 47V57" stroke="#507E9B" stroke-width="3"/>
<path d="M104.917 41.5784V13.2139C104.917 10.178 107.378 7.71692 110.414 7.71692V7.71692C113.45 7.71692 115.911 10.178 115.911 13.2139V41.5784L123.982 33.5069C126.325 31.1642 130.123 31.1642 132.466 33.5069V33.5069C134.477 35.5183 134.8 38.6659 133.237 41.0431L125.805 52.3525L113.712 73.0212L116.131 89.5122" stroke="white" stroke-width="3"/>
<line y1="-1.5" x2="4.39759" y2="-1.5" transform="matrix(4.37115e-08 1 1 -4.37115e-08 112 13)" stroke="#507E9B" stroke-width="3"/>
<line y1="-1.5" x2="4.39759" y2="-1.5" transform="matrix(4.37115e-08 1 1 -4.37115e-08 112 20.3976)" stroke="#507E9B" stroke-width="3"/>
<line y1="-1.5" x2="4.39759" y2="-1.5" transform="matrix(4.37115e-08 1 1 -4.37115e-08 112 27.7952)" stroke="#507E9B" stroke-width="3"/>
<line y1="-1.5" x2="4.39759" y2="-1.5" transform="matrix(4.37115e-08 1 1 -4.37115e-08 112 35.1928)" stroke="#507E9B" stroke-width="3"/>
<line y1="-1.5" x2="4.39759" y2="-1.5" transform="matrix(4.37115e-08 1 1 -4.37115e-08 90 13)" stroke="#507E9B" stroke-width="3"/>
<line y1="-1.5" x2="4.39759" y2="-1.5" transform="matrix(4.37115e-08 1 1 -4.37115e-08 90 20.3976)" stroke="#507E9B" stroke-width="3"/>
<line y1="-1.5" x2="4.39759" y2="-1.5" transform="matrix(4.37115e-08 1 1 -4.37115e-08 90 27.7952)" stroke="#507E9B" stroke-width="3"/>
<line y1="-1.5" x2="4.39759" y2="-1.5" transform="matrix(4.37115e-08 1 1 -4.37115e-08 90 35.1928)" stroke="#507E9B" stroke-width="3"/>
<line y1="-1.5" x2="4.39759" y2="-1.5" transform="matrix(4.37115e-08 1 1 -4.37115e-08 79 20)" stroke="white" stroke-width="3"/>
<line y1="-1.5" x2="4.39759" y2="-1.5" transform="matrix(4.37115e-08 1 1 -4.37115e-08 79 27.3976)" stroke="white" stroke-width="3"/>
<line y1="-1.5" x2="4.39759" y2="-1.5" transform="matrix(4.37115e-08 1 1 -4.37115e-08 79 34.7952)" stroke="white" stroke-width="3"/>
<line y1="-1.5" x2="4.39759" y2="-1.5" transform="matrix(-0.677384 0.735629 0.735629 0.677384 129.995 38.5592)" stroke="white" stroke-width="3"/>
<line y1="-1.5" x2="4.39759" y2="-1.5" transform="matrix(-0.677384 0.735629 0.735629 0.677384 124.984 44.0011)" stroke="white" stroke-width="3"/>
<line y1="-1.5" x2="4.39759" y2="-1.5" transform="matrix(4.37115e-08 1 1 -4.37115e-08 101 6)" stroke="white" stroke-width="3"/>
<line y1="-1.5" x2="4.39759" y2="-1.5" transform="matrix(4.37115e-08 1 1 -4.37115e-08 101 13.3976)" stroke="white" stroke-width="3"/>
<line y1="-1.5" x2="4.39759" y2="-1.5" transform="matrix(4.37115e-08 1 1 -4.37115e-08 101 20.7952)" stroke="white" stroke-width="3"/>
<line y1="-1.5" x2="4.39759" y2="-1.5" transform="matrix(4.37115e-08 1 1 -4.37115e-08 101 28.1928)" stroke="white" stroke-width="3"/>
<line y1="-1.5" x2="4.39759" y2="-1.5" transform="matrix(4.37115e-08 1 1 -4.37115e-08 101 35.5904)" stroke="white" stroke-width="3"/>
<path d="M93.923 41.5784V7.49699C93.923 4.46109 96.3841 2 99.42 2V2C102.456 2 104.917 4.46109 104.917 7.49699V13.4337" stroke="white" stroke-width="3"/>
<path d="M82.9289 41.5784V13.2139C82.9289 10.178 85.39 7.71692 88.4259 7.71692V7.71692C91.4618 7.71692 93.9229 10.178 93.9229 13.2139V17.4991" stroke="white" stroke-width="3"/>
<path d="M82.9289 20.6263V17.6115C82.9289 14.5756 80.4678 12.1145 77.4319 12.1145V12.1145C74.396 12.1145 71.9349 14.5756 71.9349 17.6115V41.5784L78.5313 73.0212L77.0664 85.5543M117.01 89.9519H76.5524L77.0664 85.5543M77.0664 85.5543H115.471" stroke="white" stroke-width="3"/>
<line y1="-1.5" x2="4.39759" y2="-1.5" transform="matrix(4.37115e-08 1 1 -4.37115e-08 110.688 72.8013)" stroke="#EA3A39" stroke-width="3"/>
<line y1="-1.5" x2="4.39759" y2="-1.5" transform="matrix(4.37115e-08 1 1 -4.37115e-08 105.688 72.8014)" stroke="#EA3A39" stroke-width="3"/>
<line y1="-1.5" x2="4.39759" y2="-1.5" transform="matrix(4.37115e-08 1 1 -4.37115e-08 100.688 72.8014)" stroke="#EA3A39" stroke-width="3"/>
<line y1="-1.5" x2="4.39759" y2="-1.5" transform="matrix(4.37115e-08 1 1 -4.37115e-08 95.688 72.8014)" stroke="#EA3A39" stroke-width="3"/>
<line y1="-1.5" x2="4.39759" y2="-1.5" transform="matrix(4.37115e-08 1 1 -4.37115e-08 90.688 72.8014)" stroke="#EA3A39" stroke-width="3"/>
<line y1="-1.5" x2="4.39759" y2="-1.5" transform="matrix(4.37115e-08 1 1 -4.37115e-08 85.688 72.8014)" stroke="#EA3A39" stroke-width="3"/>
<path d="M96.7292 47V57M96.7292 47H103.956M96.7292 47H87.8646M96.7292 57H103.956M96.7292 57H87.8646M103.956 47H111.182L116 52.2941L113.302 57H103.956M103.956 47V57M87.8646 47H79L81.1198 57H87.8646M87.8646 47V57" stroke="#507E9B" stroke-width="3"/>
</svg>
