<svg width="87" height="77" viewBox="0 0 87 77" fill="none" xmlns="http://www.w3.org/2000/svg">
<path d="M43.4523 9.33552C58.4644 -7.79459 85.7067 3.14789 86.0664 26.9728C86.3902 47.9829 57.7809 62.9575 44.2796 75.6624C43.812 76.1189 43.0926 76.1062 42.625 75.6624C29.4115 63.2364 0.826172 46.9939 0.826172 26.9982C0.826172 3.21129 28.4522 -7.78191 43.4523 9.33552ZM42.613 12.3025C28.4162 -4.62469 3.33218 5.22734 3.33218 26.9982C3.33218 32.8688 6.29383 38.6 10.7063 44.0522L34.8192 18.5916C35.2988 18.0844 36.0901 18.0337 36.5818 18.5536L43.9679 26.0472C48.1765 30.3202 54.0639 23.4479 50.095 19.5933L42.613 12.3025ZM45.1909 11.2248L51.7857 17.6533C58.2126 23.9044 48.848 34.6693 42.2413 27.9491L35.7424 21.3431L12.373 46.0175C14.4354 48.3633 16.7375 50.6456 19.1596 52.8645L39.7592 30.2315C40.8983 28.9762 42.6969 30.802 41.5578 32.0573L21.0661 54.5763C23.3802 56.6177 25.7783 58.5957 28.1525 60.4976L48.5243 38.4985C49.6753 37.256 51.4499 39.1072 50.3108 40.3371L30.1549 62.1079C32.3731 63.8704 34.6153 65.6202 36.8336 67.3953L56.3181 47.5391C57.5051 46.3345 59.2318 48.2365 58.0447 49.441L38.8479 69.0056C40.5266 70.375 42.0854 71.681 43.4523 72.9236C56.1502 61.4739 83.8722 45.8907 83.5844 27.0235C83.2487 5.53165 58.6442 -4.3077 45.1909 11.2248Z" fill="white" stroke="white" stroke-width="1.5"/>
<path d="M39.7593 30.2315L20 52L22 54L41.5579 32.0574C42.697 30.8021 40.8984 28.9762 39.7593 30.2315Z" fill="#EA3A39"/>
<path d="M48.5243 38.4986L29 59.5L31.5 61.5L50.3109 40.3371C51.45 39.1072 49.6754 37.256 48.5243 38.4986Z" fill="#EA3A39"/>
<path d="M56.3181 47.5391L38 66.5L40 68.5L58.0448 49.4411C59.2318 48.2365 57.5052 46.3346 56.3181 47.5391Z" fill="#EA3A39"/>
<path d="M39.7593 30.2315L20 52L22 54L41.5579 32.0574C42.697 30.8021 40.8984 28.9762 39.7593 30.2315Z" stroke="#EA3A39" stroke-width="1.5"/>
<path d="M48.5243 38.4986L29 59.5L31.5 61.5L50.3109 40.3371C51.45 39.1072 49.6754 37.256 48.5243 38.4986Z" stroke="#EA3A39" stroke-width="1.5"/>
<path d="M56.3181 47.5391L38 66.5L40 68.5L58.0448 49.4411C59.2318 48.2365 57.5052 46.3346 56.3181 47.5391Z" stroke="#EA3A39" stroke-width="1.5"/>
</svg>
