<svg width="64" height="64" viewBox="0 0 64 64" fill="none" xmlns="http://www.w3.org/2000/svg">
<g clip-path="url(#clip0_560_40992)">
<path d="M17.7208 7.91564C18.5358 6.68231 18.9434 6.06564 19.4905 5.65208C19.995 5.27082 20.5826 5.01458 21.2053 4.90439C21.8807 4.78486 22.6098 4.90588 24.0682 5.14793L37.434 7.36628L50.4925 10.9775C51.9174 11.3715 52.6298 11.5685 53.1922 11.9611C53.7107 12.3231 54.136 12.8028 54.4332 13.3609C54.7556 13.9663 54.8658 14.6972 55.0863 16.159L57.1067 29.5561L57.7076 43.0914C57.7731 44.5683 57.8059 45.3067 57.6063 45.9629C57.4223 46.5679 57.0975 47.1206 56.6586 47.5757C56.1824 48.0694 55.5214 48.4001 54.1992 49.0615L42.0822 55.123L29.395 59.8771C28.0107 60.3958 27.3185 60.6552 26.6327 60.6681C26.0005 60.6801 25.3745 60.542 24.806 60.2651C24.1893 59.9649 23.6706 59.4383 22.633 58.3853L13.1237 48.7344L4.68178 38.1373C3.76067 36.981 3.30011 36.4029 3.07589 35.7547C2.86917 35.1571 2.80706 34.519 2.89467 33.8928C2.9897 33.2135 3.33013 32.5574 4.01099 31.2452L10.251 19.2191L17.7208 7.91564Z" fill="#E94C4D"/>
<g clip-path="url(#clip1_560_40992)">
<mask id="mask0_560_40992" style="mask-type:alpha" maskUnits="userSpaceOnUse" x="2" y="4" width="56" height="57">
<path d="M17.7208 7.9154C18.5358 6.68206 18.9434 6.06539 19.4905 5.65184C19.995 5.27057 20.5826 5.01434 21.2053 4.90414C21.8807 4.78461 22.6098 4.90564 24.0682 5.14768L37.434 7.36603L50.4925 10.9772C51.9174 11.3713 52.6298 11.5683 53.1922 11.9609C53.7107 12.3228 54.136 12.8025 54.4332 13.3607C54.7556 13.966 54.8658 14.6969 55.0863 16.1587L57.1067 29.5559L57.7076 43.0912C57.7731 44.5681 57.8059 45.3065 57.6063 45.9627C57.4223 46.5676 57.0975 47.1203 56.6586 47.5755C56.1824 48.0692 55.5214 48.3998 54.1992 49.0612L42.0822 55.1228L29.395 59.8769C28.0107 60.3956 27.3185 60.6549 26.6327 60.6679C26.0005 60.6798 25.3745 60.5417 24.806 60.2649C24.1893 59.9646 23.6706 59.4381 22.633 58.3851L13.1237 48.7342L4.68178 38.137C3.76067 36.9807 3.30011 36.4026 3.07589 35.7544C2.86917 35.1568 2.80706 34.5188 2.89467 33.8926C2.9897 33.2133 3.33013 32.5572 4.01099 31.245L10.251 19.2189L17.7208 7.9154Z" fill="#FFD066"/>
</mask>
<g mask="url(#mask0_560_40992)">
<path d="M21.6199 61.6159C21.062 62.0648 20.5879 62.0466 20.1976 61.5614C20.0805 61.4159 20.0217 61.2434 20.0212 61.0441L18.9338 22.9617C18.928 22.6067 18.9612 22.3003 19.0334 22.0425C19.1299 21.7651 19.348 21.4898 19.6876 21.2166L22.8897 18.6407C23.4476 18.1919 23.9217 18.21 24.312 18.6952C24.4291 18.8407 24.4879 19.0132 24.4884 19.2125L25.5394 57.3242C25.5452 57.6791 25.512 57.9855 25.4398 58.2434C25.3676 58.5013 25.1616 58.7669 24.822 59.0401L21.6199 61.6159ZM40.7968 46.489C39.123 47.8355 37.4133 48.4917 35.6677 48.4575C33.9463 48.4038 32.4517 47.6882 31.1838 46.3108C30.628 45.7191 30.1549 45.1807 29.7646 44.6955C29.3791 44.1666 28.9252 43.5527 28.4031 42.854C27.3098 41.2962 26.897 39.6903 27.1648 38.0365C27.4569 36.3631 28.4884 34.8142 30.2592 33.3896C32.03 31.9651 33.7519 31.2992 35.4247 31.3919C37.1218 31.4651 38.6019 32.2123 39.8651 33.6336C40.46 34.2738 40.9623 34.8486 41.3721 35.358C41.7624 35.8432 42.187 36.4206 42.6458 37.0903C43.7439 38.6044 44.1226 40.2176 43.782 41.93C43.4657 43.6229 42.4706 45.1426 40.7968 46.489ZM37.9282 42.9231C38.2436 42.6694 38.4374 42.4136 38.5096 42.1557C38.5624 41.8736 38.5494 41.5843 38.4708 41.2879C38.3727 40.9673 38.2261 40.6857 38.031 40.4431C37.6697 39.8947 37.2841 39.3657 36.8743 38.8563C36.4645 38.3469 36.0402 37.8691 35.6014 37.423C35.265 37.0543 34.8826 36.8025 34.4544 36.6676C34.0261 36.5326 33.5937 36.6407 33.157 36.992C32.6961 37.3627 32.4857 37.7717 32.5258 38.2189C32.5659 38.6661 32.73 39.0936 33.018 39.5012C33.384 40.0059 33.7719 40.5129 34.1817 41.0224C34.5915 41.5318 35.0134 42.0315 35.4475 42.5214C35.6669 42.7444 35.9105 42.948 36.1784 43.132C36.4511 43.2723 36.7309 43.3469 37.0178 43.3558C37.3094 43.321 37.6129 43.1768 37.9282 42.9231ZM14.3303 46.7428C12.6565 48.0893 10.9687 48.7478 9.26684 48.7183C7.54549 48.6646 6.03874 47.9588 4.74661 46.6009C4.19072 46.0092 3.71764 45.4708 3.32736 44.9856C2.94182 44.4567 2.48798 43.8429 1.96584 43.1441C0.872514 41.5863 0.471888 39.9707 0.763964 38.2974C1.05604 36.624 2.07537 35.0848 3.82196 33.6798C5.5928 32.2552 7.31464 31.5893 8.98748 31.6821C10.6846 31.7553 12.1768 32.4927 13.4642 33.8944C14.0591 34.5346 14.5615 35.1094 14.9713 35.6189C15.3616 36.104 15.7861 36.6815 16.245 37.3512C17.3188 38.8848 17.6854 40.5077 17.3448 42.2201C17.009 43.8888 16.0041 45.3963 14.3303 46.7428ZM11.491 43.2132C11.8064 42.9595 12.0002 42.7038 12.0724 42.4459C12.1251 42.1637 12.1122 41.8745 12.0336 41.5781C11.9355 41.2574 11.7889 40.9758 11.5937 40.7332C11.2129 40.1605 10.8274 39.6316 10.4371 39.1464C10.0273 38.637 9.60301 38.1592 9.16421 37.7131C8.82772 37.3445 8.44536 37.0927 8.01713 36.9577C7.61315 36.8032 7.18071 36.9113 6.71981 37.2821C6.2589 37.6529 6.0485 38.0619 6.0886 38.5091C6.12871 38.9563 6.29275 39.3837 6.58071 39.7914C6.94674 40.296 7.33465 40.8031 7.74445 41.3125C8.13473 41.7977 8.55665 42.2973 9.01022 42.8115C9.22962 43.0346 9.47328 43.2381 9.74119 43.4222C10.0139 43.5624 10.3058 43.6273 10.6169 43.6167C10.9085 43.5819 11.1999 43.4474 11.491 43.2132Z" fill="white"/>
</g>
</g>
</g>
<defs>
<clipPath id="clip0_560_40992">
<rect width="64" height="64" fill="white"/>
</clipPath>
<clipPath id="clip1_560_40992">
<rect width="71.2133" height="82.0267" fill="white"/>
</clipPath>
</defs>
</svg>
