<svg width="45" height="44" viewBox="0 0 45 44" fill="none" xmlns="http://www.w3.org/2000/svg">
<path d="M5.28652 26.1012C3.5138 23.0144 2.3112 19.903 1.69398 16.9576L1.23507 13.3583C1.01623 8.76 2.38483 4.84331 5.38281 2.52588C5.47487 2.46135 5.56623 2.41158 5.6583 2.34705C5.6583 2.34705 6.28568 1.93388 6.72796 1.69748C7.17023 1.46108 7.92332 1.13637 7.92332 1.13637C9.41325 0.576529 11.0668 0.370693 12.8292 0.478136L15.7368 0.94854C18.674 1.67935 21.7636 3.20397 24.7382 5.47051L26.8278 7.19487C27.2834 7.59916 27.7229 8.01774 28.1674 8.45483C29.0808 8.07991 29.9611 7.74857 30.8109 7.47029L35.4416 6.39347C39.0793 5.95172 41.8498 6.72721 43.4018 8.74518C45.2046 11.0884 44.9857 14.5867 42.9123 18.6932C41.7055 21.0955 39.8595 23.7097 37.4182 26.4192C35.1326 28.9675 32.4504 31.4433 29.4431 33.7632C26.4359 36.0831 23.3682 38.0466 20.3221 39.6066C17.74 40.9324 15.3222 41.9059 13.1107 42.5355L10.4103 43.1577C6.4105 43.8062 3.3514 43.0832 1.68407 40.9123C-0.788938 37.6957 0.536801 32.3343 5.28652 26.1012Z" fill="#B3816E"/>
</svg>
