<svg width="49" height="55" viewBox="0 0 49 55" fill="none" xmlns="http://www.w3.org/2000/svg">
<path d="M20.6705 6.81398C17.3921 5.28852 16.3377 6.88135 16.3377 6.88135C16.3377 6.88135 14.6714 6.48725 12.7936 7.27072C12.9105 6.02998 13.3549 4.77545 13.784 4.56515C14.4394 4.24351 14.3776 4.84246 15.1455 4.82929C15.9134 4.81612 16.3204 3.09192 16.459 2.4732C16.598 1.8561 14.7635 0.471191 12.3776 2.55662C10.0429 4.59758 10.6326 8.76499 10.5043 8.90455C10.5043 8.90455 8.48712 8.13503 7.06135 9.2086C5.63559 10.2822 5.63934 10.623 5.63934 10.623C5.63934 10.623 1.71243 10.1199 2.37332 14.7097C3.03459 19.3012 5.59099 22.1089 6.91152 23.8164C8.23168 25.5222 9.34303 28.3537 12.1605 26.0266C12.1605 26.0266 13.0768 27.0328 15.153 26.2095C17.2292 25.3863 17.9739 24.3772 17.9739 24.3772C17.9739 24.3772 18.5865 25.5335 20.8019 24.9628C23.0173 24.3922 23.6016 22.7014 23.764 18.9483C23.924 15.1992 23.9489 8.33944 20.6705 6.81398Z" fill="#E94C4D"/>
<g clip-path="url(#clip0_439_40752)">
<path d="M44.5105 24.9841C44.3047 19.6642 40.0905 20.6374 37.7346 19.91C38.1867 18.0554 38.9566 17.0989 39.5735 16.6098C39.952 16.3092 39.9325 15.7251 39.5345 15.4643C39.301 15.3113 38.9941 15.3128 38.762 15.4761C37.2292 16.5523 36.7881 18.1698 36.6835 19.3134C36.6449 19.2732 36.6085 19.2321 36.5754 19.1873C33.262 14.8889 25.2235 16.9469 25.362 24.4568C25.5081 32.3683 27.6498 33.4514 29.0491 34.0845C30.4469 34.7169 31.1008 35.0128 32.4058 35.6032C34.2376 36.4321 44.804 32.6115 44.5105 24.9841Z" fill="#32691A"/>
</g>
<path d="M16.9678 36.1823C14.7341 31.2584 10.601 28.9437 7.13909 30.0709C3.67716 31.1982 1.70156 35.5019 2.79307 40.7977C3.76107 45.4816 8.39787 48.7355 12.7546 47.3169C17.1135 45.8976 18.9454 40.5374 16.9678 36.1823Z" fill="#B3816E"/>
<path d="M29.0857 46.4224C29.762 41.058 27.8986 36.1876 24.361 35.3302C20.8211 34.4725 16.4375 37.8331 14.5972 42.9146C12.9672 47.4116 15.2106 52.6143 19.6659 53.6921C24.1209 54.7722 28.4872 51.1689 29.0857 46.4224Z" fill="#B3816E"/>
<defs>
<clipPath id="clip0_439_40752">
<rect width="19.3604" height="21.2964" fill="white" transform="translate(30.3633 11.304) rotate(24.3446)"/>
</clipPath>
</defs>
</svg>
