<svg width="213" height="174" viewBox="0 0 213 174" fill="none" xmlns="http://www.w3.org/2000/svg">
<path d="M18.9286 63.2237L17.9762 49.9304C21.1508 48.2688 24.5238 46.884 28.0952 45.7763C31.6667 44.6685 35.3571 44.1146 39.1667 44.1146C44.0079 44.1146 48.3333 45.0641 52.1429 46.9632C56.0317 48.8622 59.127 51.6712 61.4286 55.3902C63.8095 59.1091 65 63.7381 65 69.2769C65 75.3697 63.6111 80.5525 60.8333 84.8254C58.0556 89.0982 54.246 92.382 49.4048 94.6767C44.5635 96.8922 39.127 98 33.0952 98C27.0635 98 21.5476 96.734 16.5476 94.2019C11.5476 91.5907 7.53968 87.4761 4.52381 81.8581C1.50794 76.161 0 68.6835 0 59.4256C0 49.2974 1.8254 40.633 5.47619 33.4325C9.12698 26.2319 14.1667 20.693 20.5952 16.8158C27.1032 12.9386 34.5635 11 42.9762 11C47.9762 11 53.0952 11.6726 58.3333 13.0177L57.0238 27.7353C54.9603 27.3397 52.9762 27.0628 51.0714 26.9045C49.1667 26.7463 47.4206 26.6671 45.8333 26.6671C39.881 26.6671 35.0794 27.9332 31.4286 30.4652C27.8571 32.9181 25.2778 36.5975 23.6905 41.5034C22.1032 46.4093 21.3095 52.6207 21.3095 60.1378C21.3095 67.6548 22.2222 73.2333 24.0476 76.8731C25.873 80.513 28.8889 82.3329 33.0952 82.3329C36.4286 82.3329 39.0476 81.3042 40.9524 79.2469C42.8571 77.1896 43.8095 74.1828 43.8095 70.2265C43.8095 67.5362 43.2937 65.3206 42.2619 63.5798C41.3095 61.839 39.9603 60.5334 38.2143 59.663C36.5476 58.7135 34.6032 58.2387 32.381 58.2387C30.2381 58.2387 28.0159 58.6739 25.7143 59.5443C23.4127 60.3356 21.1508 61.5621 18.9286 63.2237Z" fill="#F8EED8"/>
<path d="M84.0582 78.7062C82.0964 78.8222 80.1625 79.1982 78.3086 79.8407C58.1925 86.8115 42.3939 85.0573 30.249 79.571C27.4339 83.3081 22.9006 91.0799 20.9258 104.145C43.0331 120.599 70.8344 116.264 79.9254 114.23C77.5452 131.889 77.5681 159.825 87.2869 200.778C87.5419 201.85 88.4623 202.643 89.5707 202.735C95.7813 203.248 116.569 204.467 136.556 199.978C137.454 199.777 137.944 198.813 137.588 197.974L137.406 197.546C135.741 193.626 134.995 189.385 135.234 185.138C135.96 172.238 139.43 143.089 146.828 123.112C147.258 123.84 147.66 124.557 148.049 125.272C149.388 112.133 154.421 99.2081 157.974 86.1739C129.031 76.9733 94.6124 78.0866 84.0582 78.7062Z" fill="#9C5A40"/>
<path d="M129.21 54.8499C129.21 54.8499 131.233 76.228 133.013 82.553C133.283 83.5127 132.866 84.5246 131.994 85.0216C128.973 86.7479 121.726 89.5647 111.813 84.7061C110.208 83.9197 109.241 82.2457 109.317 80.4736L110.19 59.8147L129.21 54.8499Z" fill="#F8EED8"/>
<path d="M109.756 27.4995C109.756 27.4995 103.289 42.3549 102.854 50.1528C102.419 57.9508 100.74 63.0105 109.756 64.5799C118.772 66.1493 126.367 61.6585 130.482 53.8916C130.482 53.8916 136.929 41.9233 135.483 37.0222C134.037 32.1211 109.756 27.4995 109.756 27.4995Z" fill="#F8EED8"/>
<path d="M127.401 48.3071L126.887 48.0815C126.234 47.7938 125.954 47.0157 126.283 46.3814C127.554 43.9243 130.033 38.2957 126.83 36.9829C123.814 35.7454 120.549 35.0506 117.448 34.0583C114.569 33.1363 108.978 32.1717 107.476 29.1343C107.041 28.2564 107.517 27.22 107.986 26.3601C108.862 24.7498 109.738 23.1379 110.615 21.5276C111.355 20.1658 112.122 18.7713 113.302 17.7659C116.005 15.4658 119.228 17.4848 122.218 18.0373C133.342 20.0906 140.695 24.5912 140.878 32.278C140.889 32.7668 141.409 33.0382 141.826 32.7832C142.647 32.2829 143.961 32.0475 145.719 33.5253C148.774 36.0936 147.523 42.757 140.827 48.2368C140.509 48.4968 140.512 48.9938 140.857 49.2177C142.071 50.0073 143.881 51.889 139.191 54.3951C134.34 56.9879 130.719 56.7754 129.325 56.5449C128.978 56.4876 128.754 56.1509 128.83 55.8076L130.319 49.0526C130.404 48.6701 130.111 48.3088 129.721 48.3088H127.401V48.3071Z" fill="#B3816E"/>
<path d="M127.121 49.733C127.121 49.733 129.588 40.243 133.843 42.9044C138.099 45.5659 131.635 53.5371 128.215 53.8919L127.121 49.733Z" fill="#F8EED8"/>
<path d="M136.272 196.71C142.599 196.831 147.791 191.736 147.791 185.409V135.111C147.791 128.504 142.48 123.127 135.872 123.055C116.04 122.839 75.1376 122.828 41.6701 125.648C37.1025 126.032 33.5518 129.775 33.385 134.356L30.2576 182.983C30.0255 189.414 35.1097 194.788 41.5459 194.91L136.272 196.71Z" fill="#E94C4D"/>
<path d="M136.301 140.553C136.386 144.833 136.258 151.624 136.154 156.01C136.1 158.292 134.096 160.032 131.828 159.767L115.506 157.854C113.332 157.599 111.8 155.595 112.126 153.43L114.128 140.066C114.413 138.168 116.043 136.765 117.96 136.765H132.425C134.534 136.764 136.26 138.446 136.301 140.553Z" fill="white"/>
<path opacity="0.37" d="M93.6542 165.88L80.0397 167.348C78.1351 167.554 76.5085 165.983 76.6491 164.072L79.6261 123.573C85.3331 123.391 90.9634 123.261 96.3941 123.167V162.829C96.3941 164.397 95.2138 165.711 93.6542 165.88Z" fill="white"/>
<path d="M128.752 153.312C128.991 153.312 129.192 153.127 129.208 152.883L129.915 141.75C129.931 141.499 129.74 141.283 129.488 141.266C129.223 141.245 129.02 141.441 129.004 141.693L128.298 152.826C128.282 153.078 128.473 153.294 128.725 153.31C128.734 153.312 128.744 153.312 128.752 153.312Z" fill="#9C5A40"/>
<path d="M127.298 153.311C127.543 153.311 127.746 153.117 127.754 152.87L128.123 141.524C128.132 141.273 127.934 141.06 127.682 141.052C127.391 141.037 127.219 141.242 127.21 141.493L126.84 152.839C126.832 153.091 127.03 153.303 127.281 153.311C127.283 153.311 127.295 153.311 127.298 153.311Z" fill="#9C5A40"/>
<path d="M125.33 153.31C125.078 153.298 124.884 153.084 124.895 152.832C125.076 149.02 125.421 141.75 125.426 141.503C125.428 141.253 125.632 141.05 125.882 141.05C126.134 141.05 126.339 141.255 126.339 141.506C126.339 141.694 125.894 151.009 125.806 152.875C125.794 153.12 125.593 153.31 125.349 153.31C125.345 153.311 125.336 153.311 125.33 153.31Z" fill="#9C5A40"/>
<path d="M122.311 153.767C122.799 153.767 123.205 153.38 123.221 152.886C123.607 141.892 123.54 141.645 123.494 141.48C123.362 140.993 122.855 140.707 122.373 140.839C121.926 140.962 121.647 141.395 121.707 141.841C121.737 142.502 121.532 148.899 121.395 152.821C121.377 153.324 121.771 153.748 122.275 153.766C122.288 153.767 122.299 153.767 122.311 153.767Z" fill="#9C5A40"/>
<path d="M120.327 153.312C120.579 153.312 120.783 153.107 120.783 152.855V141.722C120.783 141.471 120.579 141.266 120.327 141.266C120.075 141.266 119.871 141.471 119.871 141.722V152.855C119.869 153.107 120.074 153.312 120.327 153.312Z" fill="#9C5A40"/>
<path d="M118.731 153.311C118.98 153.311 119.182 153.113 119.187 152.865C119.274 148.997 119.478 142.678 119.661 141.918C119.742 141.774 119.742 141.593 119.645 141.444C119.506 141.232 119.225 141.174 119.012 141.313C118.764 141.477 118.527 141.63 118.274 152.843C118.269 153.095 118.468 153.304 118.72 153.311H118.731Z" fill="#9C5A40"/>
<path d="M131.212 154.325C131.694 154.325 132.098 153.947 132.123 153.458L132.731 141.768C132.757 141.264 132.369 140.836 131.866 140.808C131.389 140.774 130.934 141.17 130.906 141.673L130.298 153.363C130.272 153.867 130.659 154.295 131.163 154.323C131.179 154.325 131.196 154.325 131.212 154.325Z" fill="#9C5A40"/>
<path d="M102.595 124.923C107.331 125.013 111.218 121.199 111.218 116.463V78.809C111.218 73.8621 107.243 69.8372 102.296 69.7833C87.4502 69.6214 56.8305 69.6133 31.7773 71.7254C28.359 72.0131 25.6992 74.8152 25.5749 78.245L23.2323 114.645C23.059 119.46 26.8648 123.483 31.6825 123.575L102.595 124.923Z" fill="#E94C4D"/>
<path d="M102.622 82.8832C102.686 86.0874 102.589 91.1699 102.512 94.4542C102.472 96.1626 100.972 97.4655 99.2739 97.2661L87.0555 95.834C85.4273 95.6427 84.2813 94.1436 84.5249 92.5219L86.024 82.517C86.2365 81.0963 87.4577 80.0452 88.893 80.0452H99.7202C101.298 80.0468 102.591 81.3056 102.622 82.8832Z" fill="white"/>
<path opacity="0.37" d="M70.6881 101.843L60.4968 102.944C59.0713 103.097 57.8533 101.922 57.9596 100.491L60.1878 70.1742C64.4595 70.0385 68.674 69.9404 72.7414 69.8701V99.5612C72.7398 100.733 71.8553 101.718 70.6881 101.843Z" fill="white"/>
<path d="M96.9712 92.4338C97.1494 92.4338 97.3014 92.2949 97.3129 92.1134L97.8409 83.7792C97.8524 83.5912 97.7102 83.4294 97.5205 83.4163C97.3227 83.4016 97.1707 83.5471 97.1576 83.7367L96.6296 92.0709C96.6181 92.2589 96.7603 92.4207 96.95 92.4338C96.9581 92.4338 96.9647 92.4338 96.9712 92.4338Z" fill="#9C5A40"/>
<path d="M95.8809 92.4337C96.064 92.4337 96.2161 92.2882 96.2226 92.1035L96.4989 83.6091C96.5054 83.4195 96.3567 83.2625 96.1687 83.256C95.9512 83.2445 95.8221 83.3982 95.8156 83.5862L95.5393 92.0806C95.5327 92.2702 95.6815 92.4272 95.8695 92.4337C95.8695 92.4337 95.8777 92.4337 95.8809 92.4337Z" fill="#9C5A40"/>
<path d="M94.4078 92.4339C94.2182 92.4257 94.0727 92.2655 94.0825 92.0775C94.2182 89.2248 94.4765 83.7826 94.4798 83.5962C94.4814 83.4098 94.6334 83.2578 94.8214 83.2578C95.0111 83.2578 95.1631 83.4098 95.1631 83.5995C95.1631 83.7401 94.8312 90.7125 94.7642 92.1086C94.756 92.2917 94.604 92.4339 94.4225 92.4339C94.4193 92.4339 94.4144 92.4339 94.4078 92.4339Z" fill="#9C5A40"/>
<path d="M92.1424 92.7752C92.5086 92.7752 92.8127 92.4842 92.8241 92.1164C93.1135 83.8869 93.0628 83.7005 93.0285 83.5779C92.9304 83.2133 92.5511 82.9992 92.1898 83.0973C91.8547 83.1888 91.6471 83.5125 91.6912 83.8476C91.7125 84.343 91.5604 89.1296 91.4575 92.0674C91.4444 92.445 91.7386 92.7622 92.1163 92.7736C92.1261 92.7752 92.1343 92.7752 92.1424 92.7752Z" fill="#9C5A40"/>
<path d="M90.6659 92.4338C90.8555 92.4338 91.0076 92.2817 91.0076 92.0921V83.7579C91.0076 83.5683 90.8555 83.4163 90.6659 83.4163C90.4763 83.4163 90.3242 83.5683 90.3242 83.7579V92.0921C90.3242 92.2817 90.4763 92.4338 90.6659 92.4338Z" fill="#9C5A40"/>
<path d="M89.4667 92.4341C89.6515 92.4341 89.8051 92.2853 89.8084 92.1006C89.8738 89.2054 90.0275 84.4743 90.1631 83.9054C90.2236 83.7975 90.222 83.6618 90.1501 83.5506C90.0471 83.3921 89.8345 83.3496 89.6776 83.4525C89.4912 83.5752 89.3147 83.6896 89.1251 92.0842C89.1218 92.2739 89.2705 92.4292 89.4585 92.4341H89.4667Z" fill="#9C5A40"/>
<path d="M98.8093 93.1917C99.1706 93.1917 99.4714 92.9089 99.491 92.5444L99.9471 83.7933C99.9667 83.4157 99.6774 83.0953 99.2997 83.0756C98.9417 83.0511 98.6017 83.3454 98.582 83.723L98.1259 92.4741C98.1063 92.8517 98.3957 93.1721 98.7733 93.1917C98.7848 93.1917 98.7978 93.1917 98.8093 93.1917Z" fill="#9C5A40"/>
<path d="M19.8895 91.5521C21.9722 91.0404 26.651 84.7104 27.1496 87.0237C27.6465 89.3369 26.2357 92.2697 26.445 93.2522C26.6542 94.2364 28.2253 99.744 26.9763 102.056C26.0755 103.723 24.3083 108.969 23.3944 111.761C23.0904 112.688 22.8435 113.911 21.8741 113.803C20.9047 113.694 20.1543 112.391 20.0644 111.42C20.03 111.031 17.8067 92.0637 19.8895 91.5521Z" fill="#F8EED8"/>
<path d="M169.145 99.3633C166.58 93.4764 158.402 86.3095 157.974 86.1738C154.422 99.208 148.169 109.973 146.828 123.112C155.596 139.215 153.585 158.204 148.11 167.439C150.802 171.438 153.951 176.882 156.678 183.655C190.387 163.477 177.044 117.492 169.145 99.3633Z" fill="#9C5A40"/>
<path d="M125.852 198.254L96.668 197.618C96.668 197.618 122.117 190.425 123.696 192.383C123.696 192.383 139.47 182.019 148.113 167.438C150.806 171.437 153.954 176.881 156.681 183.653C148.934 188.203 138.756 196.106 125.852 198.254Z" fill="#F8EED8"/>
<path d="M130.505 13.8976C132.615 12.0312 134.834 10.6027 137.018 9.65436L139.735 8.72439C143.264 7.82107 146.517 8.25681 148.792 10.2105C148.856 10.2716 148.91 10.3344 148.974 10.3955C148.974 10.3955 149.395 10.8158 149.648 11.1209C149.902 11.4259 150.274 11.9578 150.274 11.9578C150.946 13.0231 151.369 14.2718 151.567 15.6549L151.666 17.9833C151.569 20.3763 150.88 23.0141 149.598 25.6811L148.595 27.5757C148.354 27.9933 148.1 28.4007 147.832 28.815C148.269 29.463 148.666 30.0925 149.017 30.7066L150.591 34.1237C151.513 36.8725 151.354 39.1434 150.038 40.6682C148.51 42.4393 145.764 42.8279 142.25 41.8762C140.196 41.3242 137.875 40.3106 135.386 38.8509C133.046 37.4862 130.699 35.8024 128.421 33.8419C126.144 31.8814 124.132 29.8172 122.437 27.7053C120.998 25.9158 119.858 24.1972 119.017 22.5838L118.104 20.5902C116.963 17.5937 117.035 15.1075 118.451 13.4689C120.55 11.039 124.917 11.211 130.505 13.8976Z" fill="#32691A"/>
</svg>
