<svg width="172" height="161" viewBox="0 0 172 161" fill="none" xmlns="http://www.w3.org/2000/svg">
<path d="M74.1429 24.3093C62.4469 18.867 58.6853 24.5496 58.6853 24.5496C58.6853 24.5496 52.7406 23.1436 46.0411 25.9388C46.4583 21.5123 48.0435 17.0366 49.5744 16.2863C51.9129 15.1388 51.6923 17.2756 54.4319 17.2287C57.1715 17.1817 58.6235 11.0304 59.118 8.82302C59.6139 6.62145 53.0689 1.68061 44.5572 9.12064C36.2275 16.402 38.3316 31.2698 37.8737 31.7676C37.8737 31.7676 30.6773 29.0223 25.5907 32.8524C20.5041 36.6824 20.5175 37.8986 20.5175 37.8986C20.5175 37.8986 6.50775 36.1035 8.86555 52.4783C11.2247 68.8589 20.345 78.8758 25.0561 84.9673C29.766 91.0531 33.7308 101.155 43.7826 92.8526C43.7826 92.8526 47.0517 96.4425 54.4587 93.5053C61.8658 90.5681 64.5226 86.9682 64.5226 86.9682C64.5226 86.9682 66.7082 91.0934 74.6118 89.0575C82.5154 87.0216 84.6002 80.9897 85.1795 67.6001C85.7503 54.2246 85.8389 29.7516 74.1429 24.3093Z" fill="#E94C4D"/>
<g clip-path="url(#clip0_50_5447)">
<path d="M159.183 89.1336C158.449 70.1543 143.414 73.6265 135.009 71.0313C136.622 64.4149 139.369 61.0022 141.57 59.2572C142.92 58.185 142.85 56.101 141.43 55.1707C140.597 54.6248 139.503 54.6301 138.674 55.2128C133.206 59.0524 131.632 64.8229 131.259 68.9029C131.121 68.7593 130.991 68.6128 130.873 68.4531C119.052 53.1178 90.374 60.4599 90.8684 87.2526C91.3896 115.478 99.0303 119.342 104.022 121.6C109.009 123.857 111.342 124.912 115.998 127.019C122.533 129.976 160.23 116.345 159.183 89.1336Z" fill="#32691A"/>
</g>
<path d="M60.933 129.085C52.964 111.518 38.2189 103.26 25.868 107.282C13.5171 111.303 6.46897 126.657 10.3631 145.551C13.8165 162.261 30.3589 173.87 45.9019 168.809C61.4528 163.745 67.9885 144.622 60.933 129.085Z" fill="#B3816E"/>
<path d="M104.158 165.618C106.571 146.479 99.9232 129.104 87.3025 126.045C74.6735 122.985 59.0344 134.974 52.4691 153.103C46.6536 169.146 54.6575 187.708 70.5521 191.553C86.446 195.407 102.023 182.551 104.158 165.618Z" fill="#B3816E"/>
<defs>
<clipPath id="clip0_50_5447">
<rect width="69.0705" height="75.9776" fill="white" transform="translate(108.711 40.3286) rotate(24.3446)"/>
</clipPath>
</defs>
</svg>
