<svg width="85" height="110" viewBox="0 0 85 110" fill="none" xmlns="http://www.w3.org/2000/svg">
<path d="M68.9992 15.4959C68.9992 15.4959 63.8075 8.58133 58.3994 14.2135C52.9913 19.8379 34.9593 50.1694 35.5155 53.2984C35.7627 54.689 40.066 51.5446 40.5991 51.1815C43.0637 49.5127 45.2964 47.5813 47.5833 45.6885C53.9262 40.4272 60.4777 35.2586 66.5965 29.7346C70.8766 25.8717 74.1755 20.1546 68.9992 15.4959Z" fill="#F5A163"/>
<path d="M67.8171 14.2289L74.4264 2.04912C74.7588 1.43647 75.4703 1.13458 76.1419 1.32122C77.1552 1.60282 77.5694 2.81444 76.9404 3.65735L68.5279 14.932L67.8171 14.2289Z" fill="#32691A"/>
<path d="M69.9264 16.4462C70.4303 16.3187 80.3272 8.98313 83.7653 6.42734C84.4156 5.94388 84.5501 5.03314 84.0765 4.37557C83.5937 3.70516 82.6564 3.55795 81.9912 4.04805L70.135 12.7842L68.5281 14.9397L69.9264 16.4462Z" fill="#11936C"/>
<path d="M56.4141 16.6162L60.0297 20.6105" stroke="#14362A" stroke-miterlimit="10" stroke-linecap="round" stroke-linejoin="round"/>
<path d="M65.4302 30.7777L61.8376 27.471" stroke="#14362A" stroke-miterlimit="10" stroke-linecap="round" stroke-linejoin="round"/>
<path d="M50.6196 25.0914L55.4328 30.1673" stroke="#14362A" stroke-miterlimit="10" stroke-linecap="round" stroke-linejoin="round"/>
<path d="M56.7075 38.1944L53.2463 35.6526" stroke="#14362A" stroke-miterlimit="10" stroke-linecap="round" stroke-linejoin="round"/>
<path d="M44.7402 34.6715L47.5061 38.0708" stroke="#14362A" stroke-miterlimit="10" stroke-linecap="round" stroke-linejoin="round"/>
<path d="M49.4067 44.1742L46.355 41.0143" stroke="#14362A" stroke-miterlimit="10" stroke-linecap="round" stroke-linejoin="round"/>
<path d="M39.5408 43.8806L41.8353 46.2061" stroke="#14362A" stroke-miterlimit="10" stroke-linecap="round" stroke-linejoin="round"/>
<path d="M41.1786 30.8162C46.798 30.8162 51.3535 26.2608 51.3535 20.6413C51.3535 15.0219 46.798 10.4664 41.1786 10.4664C35.5591 10.4664 31.0037 15.0219 31.0037 20.6413C31.0037 26.2608 35.5591 30.8162 41.1786 30.8162Z" fill="#11936C"/>
<path d="M43.0715 9.23802C42.0904 7.97099 40.5838 7.12116 38.9846 6.94347C39.7185 6.88938 40.0198 7.83965 40.4679 8.41909C40.8156 8.86719 41.3409 9.12987 41.7968 9.46208C42.2526 9.79429 42.6775 10.2733 42.6621 10.8373C40.8465 10.9068 39.5177 12.5524 37.8489 13.2555C39.7572 12.7456 41.735 12.4983 43.7128 12.537C43.2338 12.8151 43.1565 13.4563 43.1333 14.0049C43.0561 15.6736 42.9788 17.3347 42.9016 19.0035C44.4467 17.8214 44.1609 14.9706 45.9378 14.1748C46.3318 15.7663 47.2667 17.2188 48.5491 18.2386C48.2556 17.0488 47.8229 15.89 47.2667 14.7929C48.9354 14.2598 50.751 14.1826 52.4507 14.5843C52.0798 13.7654 51.1141 13.41 50.2256 13.2555C49.3372 13.1009 48.3946 13.0546 47.6452 12.5601C49.0745 12.1738 50.3415 11.2236 51.1064 9.96425C49.5458 10.7677 47.7843 11.1772 46.0228 11.154C45.8992 9.94881 45.2039 8.82083 44.1918 8.15641C44.5472 8.38819 45.312 10.2733 44.9257 10.6132C44.3231 11.1386 43.3419 9.58569 43.0715 9.23802Z" fill="#32691A"/>
<path d="M15.1566 22.5207C16.2699 22.557 17.1138 21.6021 16.7415 20.5523C15.7432 17.7382 12.5401 12.818 2.30573 12.074C1.09494 11.9859 0.186016 13.0546 0.655371 14.1742C1.91074 17.1688 5.45751 22.2041 15.1566 22.5207Z" fill="#11936C"/>
<path d="M29.3969 22.9977C29.5859 23.1358 34.2469 12.1895 25.8305 3.514C24.9668 2.62374 23.5529 2.90869 23.147 4.08077C21.8042 7.95882 20.3914 16.2908 29.3969 22.9977Z" fill="#11936C"/>
<path d="M29.7831 42.1114C30.293 41.9878 27.5117 29.3406 10.4685 29.8892C10.4685 29.8892 15.4285 45.5803 29.7831 42.1114Z" fill="#11936C"/>
<path d="M34.1483 41.0916C34.3337 41.5552 43.4733 38.6657 41.426 24.118C41.426 24.118 30.154 30.8935 34.1483 41.0916Z" fill="#11936C"/>
<path d="M17.4958 16.3968C18.655 16.9122 19.8978 16.1021 19.8226 14.8357C19.6046 11.1616 18.1255 4.35519 10.4687 1.49268C9.45426 1.11342 8.38794 1.7479 8.31415 2.82842C8.09448 6.04515 8.8469 12.5504 17.4958 16.3968Z" fill="#11936C"/>
<path d="M31.4715 47.7909C31.5411 46.2998 31.3556 44.801 31.1857 43.3176C31.0157 41.8343 30.7917 40.3509 30.5135 38.883C29.965 35.9472 29.2388 33.05 28.2344 30.2378C27.7477 28.8317 27.1992 27.4488 26.5811 26.0968C25.963 24.7448 25.2291 23.4468 24.4797 22.1643C22.9268 19.6225 21.0262 17.3048 18.7935 15.2884C20.0064 16.1768 21.1344 17.1889 22.1774 18.2782C23.1894 19.3985 24.132 20.5883 24.9818 21.8476C26.6661 24.3739 27.9408 27.1475 28.9684 29.9906C29.9264 32.8646 30.668 35.8004 31.1007 38.7903C31.4947 41.7648 31.8192 44.7933 31.4715 47.7909Z" fill="#40785F"/>
<path d="M27.3227 26.5758C26.442 25.9423 25.5612 25.3319 24.6882 24.7216C23.8074 24.1267 22.9267 23.5318 22.0151 22.9987C21.1034 22.4579 20.1763 21.9557 19.2183 21.5231C18.2526 21.1136 17.2559 20.7505 16.1975 20.5187C17.2791 20.4492 18.3916 20.6269 19.4346 20.9668C20.4853 21.299 21.4665 21.7935 22.4168 22.342C24.2633 23.47 25.963 24.8761 27.3227 26.5758Z" fill="#40785F"/>
<path d="M28.621 29.6507C28.7678 28.909 28.8528 28.1905 28.9146 27.472C28.961 26.7535 28.9919 26.035 28.9532 25.3242C28.9223 24.6134 28.8682 23.8949 28.7601 23.1842C28.6674 22.4657 28.5129 21.7549 28.397 21.0055C28.8064 21.639 29.1386 22.3266 29.3472 23.0528C29.5867 23.7791 29.6795 24.5362 29.7258 25.301C29.749 26.0659 29.6795 26.8308 29.5095 27.5724C29.3318 28.3064 29.0614 29.0326 28.621 29.6507Z" fill="#40785F"/>
<path d="M31.294 42.4446C30.6914 42.1974 30.2665 41.8343 29.857 41.4402C29.6639 41.2394 29.4707 41.0385 29.3007 40.8145C29.1231 40.5904 28.9763 40.3664 28.7754 40.1114C29.1076 40.0805 29.4244 40.2041 29.687 40.3509C29.9574 40.4977 30.1892 40.6908 30.3978 40.8917C30.815 41.3244 31.1627 41.8034 31.294 42.4446Z" fill="#40785F"/>
<path d="M33.1481 39.0916C32.9086 39.9878 32.5841 40.7681 32.2905 41.5639C32.136 41.9579 31.9969 42.3519 31.8501 42.7537L31.4406 44.0053C31.1007 43.1245 31.263 42.1356 31.572 41.2935C31.742 40.8686 31.9506 40.4591 32.2132 40.0883C32.4605 39.7174 32.7618 39.3698 33.1481 39.0916Z" fill="#40785F"/>
<path d="M70.3495 23.5774C71.9582 22.7282 73.6095 23.6454 73.6684 25.4636C74.091 38.5006 75.0409 83.7083 74.5119 100.824C74.3941 104.636 71.5132 107.311 67.7085 107.563C54.6697 108.427 25.2618 110.152 16.0466 108.832C16.0466 108.832 13.2583 39.3139 14.3569 22.4076C14.4692 20.6797 16.1231 19.7444 17.766 20.2914L20.4878 21.1977C21.3396 21.4813 22.2737 21.3685 23.0335 20.8903L27.8312 17.8707C29.0733 17.089 30.6985 17.3205 31.6727 18.418L33.7346 20.7405C34.9474 22.1067 37.0868 22.0776 38.3339 20.7426C39.6017 19.3855 40.9601 18.0729 41.1633 18.4395C41.4234 18.9088 43.5764 20.8903 45.0093 22.1825C45.8015 22.897 46.916 23.1239 47.9288 22.7889L55.3937 20.3198C56.5679 19.9314 57.8601 20.3034 58.6481 21.2566L58.8838 21.5417C59.7543 22.5948 61.2263 22.9266 62.4644 22.349L63.1938 22.0087C64.337 21.4753 65.6916 21.7141 66.5836 22.606L67.058 23.0804C67.9275 23.9499 69.262 24.1514 70.3495 23.5774Z" fill="#9C5A40"/>
<path d="M14.3409 22.5605C14.4026 21.5693 12.9764 20.8562 12.2383 21.5207L10.0276 23.511C9.72835 23.7804 9.29666 23.8441 8.93236 23.6724L7.06531 22.7929C6.19267 22.3817 4.89212 23.4639 5.02004 24.42C6.64499 36.5658 4.83301 78.3633 4.39148 92.3832C4.29669 95.3931 5.3594 98.1679 7.4609 100.325C11.1058 104.066 16.0388 108.832 16.0388 108.832C16.0388 108.832 13.2736 39.7286 14.3409 22.5605Z" fill="#B3816E"/>
<path d="M16.0465 108.832C15.4593 107.588 14.8876 106.336 14.3623 105.061C13.8292 103.794 13.2884 102.535 12.7785 101.253C11.7664 98.6953 10.7852 96.1304 9.86583 93.5422L10.3448 93.7044L7.35494 95.3655C6.86048 95.6436 6.35058 95.8986 5.8484 96.169C5.34622 96.4394 5.5099 96.2527 5 96.5C5.46355 96.16 5.26124 96.2849 5.72479 95.9681C6.19606 95.6513 6.65961 95.3114 7.13862 95.0101L10.0049 93.1405L10.3294 92.9319L10.4839 93.3104C11.5269 95.8522 12.5003 98.4249 13.4429 101.005C13.9142 102.296 14.3545 103.601 14.7949 104.899C15.243 106.197 15.6525 107.518 16.0465 108.832Z" fill="#9C5A40"/>
<path d="M10.1748 93.4264L10.2984 76.0433C10.337 70.2489 10.4297 64.4545 10.422 58.6602C10.4761 52.8658 10.4761 47.0714 10.4066 41.2848C10.4066 39.84 10.3679 38.3876 10.3447 36.9429C10.3216 35.4981 10.2829 34.0457 10.2134 32.6009L10.1361 30.43L9.99708 28.2668C9.93528 26.8143 9.71895 25.3928 9.54126 23.948C10.6306 29.6497 10.7697 35.4827 11.0014 41.2693C11.1946 47.0637 11.1869 52.8658 11.1946 58.6602C11.1405 64.4545 11.0555 70.2566 10.8933 76.0433C10.7156 81.8454 10.507 87.6397 10.1748 93.4264Z" fill="#9C5A40"/>
</svg>
