<svg width="600" height="151" viewBox="0 0 600 151" fill="none" xmlns="http://www.w3.org/2000/svg">
<path d="M498.336 5.20914L619.904 7.29405C628.647 7.444 636.889 11.4012 642.474 18.13L671 52.5H537L498.336 5.20914Z" fill="#F8EED8"/>
<path d="M504.766 7.04926C501.973 3.80061 496.943 3.8006 494.15 7.04925L462.351 44.0352C459.544 47.3004 458 51.4639 458 55.77V113.35H499.458H540.915V55.77C540.915 51.4639 539.372 47.3005 536.564 44.0352L504.766 7.04926Z" fill="#F8EED8"/>
<path d="M0 161.91C58.9962 185.955 461.319 66.6952 654 110.936V469.216H0V161.91Z" fill="#F8EED8"/>
<path d="M0 241.92V286.64C74.3857 302.03 418.999 143.336 654 143.336V133.097C418.999 133.1 74.3857 257.309 0 241.92Z" fill="#FBF6EA"/>
<g clip-path="url(#clip0_823_12484)">
<path d="M414.327 110.6C414.327 110.6 404.719 91.7079 403.413 96.6129C402.108 101.518 414.327 110.6 414.327 110.6Z" fill="#F8EED8"/>
<path d="M411.511 111C411.511 111 401.965 102.071 401.052 103.773C400.139 105.475 411.511 111 411.511 111Z" fill="#F8EED8"/>
<path d="M415.87 110.248C415.836 110.055 410.267 94.5435 414.674 95.0097C419.082 95.4772 415.87 110.248 415.87 110.248Z" fill="#F8EED8"/>
</g>
<g clip-path="url(#clip1_823_12484)">
<path d="M513.32 144.934C513.32 144.934 502.274 123.215 500.773 128.854C499.274 134.493 513.32 144.934 513.32 144.934Z" fill="#FBF6EA"/>
<path d="M510.083 145.394C510.083 145.394 499.11 135.129 498.06 137.085C497.01 139.043 510.083 145.394 510.083 145.394Z" fill="#FBF6EA"/>
<path d="M515.095 144.529C515.056 144.308 508.653 126.475 513.72 127.011C518.787 127.549 515.095 144.529 515.095 144.529Z" fill="#FBF6EA"/>
</g>
<g clip-path="url(#clip2_823_12484)">
<path d="M480.496 139.775C480.496 139.775 475.091 129.148 474.357 131.907C473.623 134.666 480.496 139.775 480.496 139.775Z" fill="#FBF6EA"/>
<path d="M478.912 140C478.912 140 473.543 134.978 473.029 135.935C472.516 136.892 478.912 140 478.912 140Z" fill="#FBF6EA"/>
<path d="M481.365 139.577C481.345 139.469 478.213 130.743 480.692 131.005C483.171 131.268 481.365 139.577 481.365 139.577Z" fill="#FBF6EA"/>
</g>
<path d="M566.317 107.391C565.55 106.654 564.764 105.955 564.191 105.459C565.989 105.307 567.343 105.101 568 104.914C568.285 104.836 568.814 104.688 568.783 104.225C568.764 103.908 568.708 103.074 560.642 100.697C560.137 99.2809 557.115 92.1792 546.013 88.0364C541.216 86.2463 538.783 84.6453 538.13 82.8508C537.709 81.6886 537.978 80.3504 538.975 78.6363C540.759 75.5775 540.739 70.7765 538.931 67.7047C537.905 65.9581 536.401 65 534.691 65C529.929 65 528.387 67.6938 527.644 68.9864C527.589 69.082 527.54 69.1711 527.492 69.2493C526.925 70.1921 524.624 71.7323 523.098 72.1972C522.414 72.4036 521.845 72.6817 521.399 73.0206C521.126 73.227 520.98 73.555 521.002 73.8918C521.024 74.2263 521.214 74.5217 521.507 74.6868C522.575 75.2929 524.099 74.9215 525.707 74.5283C527.637 74.059 529.827 73.5268 531.464 74.613C532.282 75.1561 531.277 77.3611 530.114 79.9115C527.353 85.9596 522.731 96.0852 531.711 105.362C533.575 107.284 535.757 108.714 538.09 109.758C538.262 110.108 538.17 110.332 538.002 110.743C537.821 111.175 537.596 111.716 537.746 112.496C537.962 113.621 537.834 113.936 537.559 114.623C537.521 114.714 537.484 114.807 537.444 114.907C537.32 115.229 537.307 115.591 537.292 115.911C537.281 116.219 537.265 116.567 537.146 116.658C537.106 116.689 536.921 116.782 536.321 116.652C535.977 116.576 535.622 116.467 535.249 116.354C533.498 115.822 531.314 115.159 530.13 118.244C530.074 118.379 530.092 118.533 530.176 118.655C530.26 118.776 530.396 118.852 530.544 118.854C530.571 118.854 533.262 118.933 535.977 118.974C537.078 118.991 537.971 119 538.697 119C540.322 119 541.121 118.963 541.536 118.915C543.305 118.946 544.842 118.963 546.143 118.963C549.355 118.963 551.122 118.867 551.409 118.681C551.656 118.516 551.713 118.318 551.715 118.181C551.724 117.846 551.462 117.657 551.157 117.44C550.798 117.177 550.253 116.784 549.82 116.03C549.309 115.142 549.514 114.523 549.818 113.586C549.942 113.213 550.074 112.793 550.176 112.32C550.791 112.342 551.398 112.355 551.993 112.355C557.302 112.355 561.778 111.492 563.454 111.118C565.203 111.496 566.763 111.755 567.722 111.755C568.009 111.755 568.243 111.733 568.413 111.681C568.644 111.614 568.81 111.492 568.9 111.325C569.176 110.832 569.046 110.015 566.317 107.391Z" fill="#FFD066"/>
<path d="M460.249 95.5852C460.268 95.5332 460.3 95.4882 460.343 95.4531C461.036 94.8925 461.808 94.7436 462.311 94.7127C461.769 93.3919 462.318 92.0206 462.325 92.0023C462.363 91.9068 462.446 91.8394 462.543 91.8197C463.338 91.6581 464.354 91.6328 464.863 91.6314C464.85 90.1028 465.801 89.1038 465.815 89.0897C465.924 88.9773 466.102 88.9703 466.222 89.07C471.672 93.7109 471.981 102.303 471.985 104.09C479.101 103.98 480.689 100.029 482.092 96.5392C482.507 95.5037 482.9 94.5258 483.414 93.6968C485.276 90.6957 488.197 90.7603 489.345 90.9191C489.217 90.0943 489.588 89.7276 489.775 89.5983C490.182 89.3187 490.771 89.3904 491.209 89.7726C491.993 90.4568 492.084 91.1607 492.068 91.5317C492.969 92.0515 493.055 92.9198 492.933 93.4959C494.124 94.0916 494.094 95.4897 493.894 96.188C493.868 96.2849 493.798 96.3594 493.704 96.3917C493.613 96.424 493.511 96.41 493.431 96.3523C492.972 96.0194 492.552 95.7692 492.168 95.5866C492.213 95.9786 492.152 96.4184 491.934 96.7879C491.712 97.1631 491.243 97.6113 490.265 97.6113C490.232 97.6113 490.2 97.6098 490.168 97.607C490.207 98.5386 490.571 99.7385 490.986 101.108C492.037 104.572 493.479 109.312 490.553 113.723C488.223 117.234 485.845 117.523 483.935 117.754C482.438 117.934 481.357 118.064 480.744 119.703C479.834 122.133 480.021 123.204 480.337 123.673C480.54 123.973 480.866 124.123 481.31 124.123C481.547 124.123 481.751 124.105 481.95 124.089C482.904 124.006 483.51 124.03 484.887 125.48C484.972 125.567 484.995 125.699 484.947 125.812C484.901 125.927 484.791 126 484.671 126H471.457C471.328 126 471.21 125.914 471.17 125.786C471.13 125.659 471.176 125.521 471.281 125.444C472.798 124.332 472.685 122.648 472.579 121.019C472.501 119.829 472.426 118.698 472.993 117.861C469.803 115.983 468.298 113.311 467.586 111.198C466.768 108.756 466.827 106.64 466.867 106.006C465.694 105.198 458.593 100.084 460.249 95.5852Z" fill="#B3816E"/>
<path d="M535.417 120.132C535.271 119.74 534.993 119.48 534.61 119.382C534.028 119.233 533.309 119.475 532.821 119.761C532.967 118.933 533.005 117.947 532.936 116.806C532.743 113.726 530.119 111.538 528.571 110.509C526.348 109.029 523.273 110.027 521.798 111.208C520.767 112.033 520.557 111.994 520.175 111.925C520.086 111.909 519.985 111.891 519.866 111.88C519.524 111.847 519.152 111.985 518.791 112.117C518.64 112.172 518.479 112.23 518.337 112.266C518.503 112.136 518.686 112.003 518.872 111.868C519.477 111.43 520.104 110.977 520.452 110.396C520.655 110.059 520.939 109.707 521.213 109.368C521.693 108.775 522.108 108.262 522.062 107.864C522.046 107.73 521.983 107.618 521.872 107.531C521.688 107.387 521.506 107.328 521.289 107.328C521.279 107.327 521.269 107.327 521.257 107.328C520.953 107.337 520.577 107.46 520.034 107.638C519.926 107.674 519.812 107.711 519.69 107.75C519.802 107.109 520.043 105.594 519.908 105.075C519.715 104.329 519.233 103.967 518.476 104.002C517.704 104.038 516.493 104.926 515.657 106.788C515.195 107.82 515.03 108.807 514.898 109.603C514.804 110.169 514.728 110.617 514.58 110.876C514.114 111.692 513.44 111.874 512.588 112.104L512.513 112.124C511.819 112.312 511.224 113.325 510.748 114.139C510.567 114.448 510.411 114.713 510.291 114.858C509.968 115.247 509.374 115.965 509.876 116.686C509.879 116.975 509.977 118.137 511.347 118.332C511.511 118.356 511.659 118.37 511.796 118.377L511.812 118.415C512.139 119.188 512.671 120.447 514.119 120.667C514.055 120.805 514.031 120.969 514.059 121.146C514.15 121.741 514.788 122.535 516.303 122.98C517.204 123.244 517.748 123.386 518.177 123.386C518.75 123.386 519.123 123.135 519.878 122.595C519.963 122.534 520.043 122.474 520.119 122.414C520.374 122.432 520.917 122.508 521.165 122.707C521.304 122.856 521.514 123.014 521.824 123.172C522.423 123.477 523.326 123.574 524.238 123.574C525.706 123.574 527.193 123.321 527.465 123.273C528.283 123.497 530.251 123.333 530.916 123.198C531.4 123.1 531.56 122.751 531.587 122.457C531.829 122.535 532.089 122.57 532.353 122.57C533.27 122.57 534.263 122.148 534.871 121.591C535.388 121.122 535.587 120.589 535.417 120.132Z" fill="white"/>
<path d="M457.83 104C457.83 104 454.847 106.011 453.781 110.431C453.781 110.431 449.731 113.378 447.458 110.263C445.184 107.147 443.952 105.561 441.657 106.119C441.657 106.119 442.2 104.957 440.971 105.182C439.739 105.404 438.867 107.526 439.766 107.774C439.766 107.774 438.734 108.377 439.066 109.081C439.066 109.081 439.362 108.434 439.911 108.588C440.446 108.588 439.202 109.576 440.108 110.146C441.014 110.715 441.545 109.309 441.723 109.676C441.901 110.043 438.175 118.206 443.197 120.612C448.515 123.161 449.052 123.44 448.361 125.57C448.107 126.348 445.585 125.904 445.519 127H450.945C450.825 126.254 449.577 126.707 449.59 125.744C449.608 124.169 449.417 123.44 451.438 122.822C453.364 122.233 459.038 120.945 456.553 114.648C456.55 114.651 463.371 112.373 457.83 104Z" fill="#9C5A40"/>
<defs>
<clipPath id="clip0_823_12484">
<rect width="16" height="16" fill="white" transform="translate(401 95)"/>
</clipPath>
<clipPath id="clip1_823_12484">
<rect width="18.3937" height="18.3937" fill="white" transform="translate(498 127)"/>
</clipPath>
<clipPath id="clip2_823_12484">
<rect width="9" height="9" fill="white" transform="translate(473 131)"/>
</clipPath>
</defs>
</svg>
