<svg width="129" height="114" viewBox="0 0 129 114" fill="none" xmlns="http://www.w3.org/2000/svg">
<path d="M4.95334 58.6874L6.28439 98.0261C6.51768 104.887 12.1564 110.335 19.0512 110.366L113.262 110.764C117.871 110.783 121.794 107.427 122.458 102.888C123.915 92.951 125.762 75.1699 123.622 58.4891L4.95334 58.6874Z" fill="#FFD066"/>
<path d="M32.5166 30.0798L32.7967 27.0457C33.1165 26.3192 33.778 25.8079 34.5618 25.6821C37.4955 25.2087 44.7737 24.3771 48.2843 26.9888L48.8141 30.5132L32.5166 30.0798Z" fill="#9C5A40"/>
<path d="M41.6796 27.145C41.003 27.3104 40.3285 27.3114 39.6497 27.1445C38.8272 26.9432 38.2491 26.2105 38.2469 25.3682L38.2315 15.8663L43.0679 15.8597L43.0836 25.355C43.0822 26.2038 42.5053 26.9449 41.6796 27.145Z" fill="#9C5A40"/>
<path d="M79.345 30.0033L79.6217 26.9691C79.9415 26.2459 80.6031 25.7312 81.3902 25.6056C84.3238 25.1322 91.6021 24.3006 95.1127 26.9123L95.6425 30.4367L79.345 30.0033Z" fill="#9C5A40"/>
<path d="M88.5113 27.0686C87.8348 27.234 87.1603 27.235 86.4814 27.0681C85.6589 26.8669 85.0808 26.1341 85.0787 25.2918L85.063 14.7897L89.8994 14.7831L89.9153 25.2786C89.914 26.1241 89.3339 26.8651 88.5113 27.0686Z" fill="#9C5A40"/>
<path d="M37.7439 18.2026L89.7381 16.3965C90.9238 16.3563 91.9289 15.4975 92.1281 14.3361C92.4115 12.707 92.6589 10.2706 92.2775 7.74461C91.8482 4.87162 89.3713 2.74113 86.4552 2.67881C76.7535 2.46403 52.0608 2.51316 38.458 7.91855C37.0181 8.49004 35.9547 9.72194 35.5932 11.2202C35.2472 12.6499 35.0204 14.5573 35.4768 16.5001C35.7229 17.528 36.68 18.2403 37.7439 18.2026Z" fill="#9C5A40"/>
<path d="M8.38903 28.94C25.1888 28.6989 97.8566 27.8145 118.969 30.3232C120.787 30.5405 122.271 31.8654 122.67 33.6452C123.927 39.2824 126.457 52.3768 126.181 65.3631C126.143 67.1286 124.851 68.6228 123.106 68.9573L74.9368 78.1526L57.8215 78.1827L6.46345 68.0637C4.65241 67.7085 3.31732 66.1778 3.21934 64.3421C2.87333 57.8102 2.32756 42.4842 4.07773 32.6122C4.44886 30.5155 6.24962 28.9688 8.38903 28.94Z" fill="#F8C147"/>
<path d="M71.4887 82.692L60.0752 82.7109C58.5781 82.7146 57.3182 81.6042 57.1395 80.1245L55.8036 69.1451C55.591 67.3945 56.9606 65.8534 58.7306 65.852L72.4406 65.8292C74.1745 65.8266 75.5376 67.3055 75.3861 69.0245L74.4254 80.0079C74.2937 81.5236 73.0186 82.6893 71.4887 82.692Z" fill="#E94C4D"/>
</svg>
