<svg width="48" height="45" viewBox="0 0 48 45" fill="none" xmlns="http://www.w3.org/2000/svg">
<rect y="22.5779" width="34.4086" height="19.2392" rx="9.6196" transform="rotate(-30 0 22.5779)" fill="#E94C4D"/>
<rect x="8.58203" y="22.2043" width="34.4086" height="19.2392" rx="9.6196" transform="rotate(-30 8.58203 22.2043)" fill="#E94C4D"/>
<path d="M10.3843 22.8316C10.3043 22.8316 10.2363 22.8036 10.1803 22.7476C10.1243 22.6916 10.0963 22.6236 10.0963 22.5436V21.5836C10.0963 21.5036 10.1243 21.4356 10.1803 21.3796C10.2363 21.3236 10.3043 21.2956 10.3843 21.2956H14.1163C14.1963 21.2956 14.2643 21.3236 14.3203 21.3796C14.3763 21.4356 14.4043 21.5036 14.4043 21.5836V22.5436C14.4043 22.6236 14.3763 22.6916 14.3203 22.7476C14.2643 22.8036 14.1963 22.8316 14.1163 22.8316H10.3843ZM17.6109 25.6636C17.5309 25.6636 17.4589 25.6356 17.3949 25.5796C17.3389 25.5236 17.3109 25.4516 17.3109 25.3636V19.3996L15.5829 20.7316C15.5109 20.7876 15.4349 20.8076 15.3549 20.7916C15.2829 20.7756 15.2189 20.7316 15.1629 20.6596L14.5629 19.8796C14.5149 19.8076 14.4949 19.7316 14.5029 19.6516C14.5189 19.5716 14.5629 19.5076 14.6349 19.4596L17.3709 17.3476C17.4189 17.3156 17.4629 17.2956 17.5029 17.2876C17.5509 17.2716 17.6029 17.2636 17.6589 17.2636H18.9309C19.0109 17.2636 19.0789 17.2916 19.1349 17.3476C19.1909 17.4036 19.2189 17.4756 19.2189 17.5636V25.3636C19.2189 25.4516 19.1909 25.5236 19.1349 25.5796C19.0789 25.6356 19.0109 25.6636 18.9309 25.6636H17.6109ZM23.5571 25.7836C22.9811 25.7836 22.4851 25.7036 22.0691 25.5436C21.6611 25.3756 21.3211 25.1476 21.0491 24.8596C20.7851 24.5636 20.5851 24.2236 20.4491 23.8396C20.3211 23.4476 20.2451 23.0316 20.2211 22.5916C20.2131 22.3756 20.2051 22.1356 20.1971 21.8716C20.1971 21.5996 20.1971 21.3276 20.1971 21.0556C20.2051 20.7836 20.2131 20.5356 20.2211 20.3116C20.2371 19.8716 20.3131 19.4596 20.4491 19.0756C20.5931 18.6916 20.8011 18.3556 21.0731 18.0676C21.3451 17.7796 21.6851 17.5556 22.0931 17.3956C22.5091 17.2276 22.9971 17.1436 23.5571 17.1436C24.1171 17.1436 24.6011 17.2276 25.0091 17.3956C25.4171 17.5556 25.7571 17.7796 26.0291 18.0676C26.3011 18.3556 26.5051 18.6916 26.6411 19.0756C26.7851 19.4596 26.8691 19.8716 26.8931 20.3116C26.9011 20.5356 26.9051 20.7836 26.9051 21.0556C26.9131 21.3276 26.9131 21.5996 26.9051 21.8716C26.9051 22.1356 26.9011 22.3756 26.8931 22.5916C26.8691 23.0316 26.7891 23.4476 26.6531 23.8396C26.5171 24.2236 26.3131 24.5636 26.0411 24.8596C25.7771 25.1476 25.4371 25.3756 25.0211 25.5436C24.6131 25.7036 24.1251 25.7836 23.5571 25.7836ZM23.5571 24.2236C24.0211 24.2236 24.3611 24.0716 24.5771 23.7676C24.7931 23.4636 24.9091 23.0516 24.9251 22.5316C24.9331 22.2996 24.9371 22.0596 24.9371 21.8116C24.9451 21.5636 24.9451 21.3156 24.9371 21.0676C24.9371 20.8196 24.9331 20.5876 24.9251 20.3716C24.9091 19.8756 24.7931 19.4716 24.5771 19.1596C24.3611 18.8476 24.0211 18.6876 23.5571 18.6796C23.0851 18.6876 22.7411 18.8476 22.5251 19.1596C22.3171 19.4716 22.2051 19.8756 22.1891 20.3716C22.1811 20.5876 22.1731 20.8196 22.1651 21.0676C22.1651 21.3156 22.1651 21.5636 22.1651 21.8116C22.1731 22.0596 22.1811 22.2996 22.1891 22.5316C22.2051 23.0516 22.3211 23.4636 22.5371 23.7676C22.7531 24.0716 23.0931 24.2236 23.5571 24.2236ZM28.4167 25.6636C28.2407 25.6636 28.1527 25.5836 28.1527 25.4236C28.1527 25.3756 28.1687 25.3316 28.2007 25.2916L34.1287 17.4916C34.1847 17.4196 34.2407 17.3636 34.2967 17.3236C34.3527 17.2836 34.4327 17.2636 34.5367 17.2636H35.2807C35.4567 17.2636 35.5447 17.3436 35.5447 17.5036C35.5447 17.5516 35.5287 17.5956 35.4967 17.6356L29.5687 25.4356C29.5127 25.5076 29.4567 25.5636 29.4007 25.6036C29.3527 25.6436 29.2727 25.6636 29.1607 25.6636H28.4167ZM34.3207 25.7236C33.7767 25.7236 33.3447 25.5796 33.0247 25.2916C32.7127 25.0036 32.5407 24.6196 32.5087 24.1396C32.4927 23.9316 32.4847 23.7476 32.4847 23.5876C32.4927 23.4276 32.5007 23.2356 32.5087 23.0116C32.5327 22.5316 32.6967 22.1436 33.0007 21.8476C33.3127 21.5516 33.7527 21.4036 34.3207 21.4036C34.8887 21.4036 35.3247 21.5516 35.6287 21.8476C35.9407 22.1436 36.1087 22.5316 36.1327 23.0116C36.1487 23.2356 36.1567 23.4276 36.1567 23.5876C36.1567 23.7476 36.1487 23.9316 36.1327 24.1396C36.1087 24.6196 35.9327 25.0036 35.6047 25.2916C35.2847 25.5796 34.8567 25.7236 34.3207 25.7236ZM34.3207 24.7396C34.4727 24.7396 34.5927 24.7076 34.6807 24.6436C34.7687 24.5796 34.8327 24.4956 34.8727 24.3916C34.9207 24.2876 34.9487 24.1796 34.9567 24.0676C34.9727 23.8836 34.9807 23.7196 34.9807 23.5756C34.9807 23.4236 34.9727 23.2556 34.9567 23.0716C34.9487 22.9036 34.8967 22.7516 34.8007 22.6156C34.7047 22.4796 34.5447 22.4116 34.3207 22.4116C34.0967 22.4116 33.9367 22.4796 33.8407 22.6156C33.7527 22.7516 33.7007 22.9036 33.6847 23.0716C33.6767 23.2556 33.6727 23.4236 33.6727 23.5756C33.6727 23.7196 33.6767 23.8836 33.6847 24.0676C33.7007 24.1796 33.7247 24.2876 33.7567 24.3916C33.7967 24.4956 33.8607 24.5796 33.9487 24.6436C34.0447 24.7076 34.1687 24.7396 34.3207 24.7396ZM29.3887 21.4996C28.8447 21.4996 28.4127 21.3596 28.0927 21.0796C27.7807 20.7916 27.6087 20.4076 27.5767 19.9276C27.5607 19.7196 27.5527 19.5396 27.5527 19.3876C27.5607 19.2276 27.5687 19.0356 27.5767 18.8116C27.6007 18.3236 27.7647 17.9356 28.0687 17.6476C28.3807 17.3516 28.8207 17.2036 29.3887 17.2036C29.9647 17.2036 30.4047 17.3516 30.7087 17.6476C31.0127 17.9356 31.1767 18.3236 31.2007 18.8116C31.2167 19.0356 31.2247 19.2276 31.2247 19.3876C31.2247 19.5396 31.2167 19.7196 31.2007 19.9276C31.1767 20.4076 31.0047 20.7916 30.6847 21.0796C30.3647 21.3596 29.9327 21.4996 29.3887 21.4996ZM29.3887 20.5276C29.5407 20.5276 29.6607 20.4956 29.7487 20.4316C29.8367 20.3676 29.9007 20.2836 29.9407 20.1796C29.9887 20.0756 30.0167 19.9716 30.0247 19.8676C30.0407 19.6756 30.0487 19.5076 30.0487 19.3636C30.0487 19.2116 30.0407 19.0476 30.0247 18.8716C30.0167 18.7036 29.9647 18.5516 29.8687 18.4156C29.7727 18.2716 29.6127 18.1996 29.3887 18.1996C29.1647 18.1996 29.0047 18.2716 28.9087 18.4156C28.8207 18.5516 28.7687 18.7036 28.7527 18.8716C28.7447 19.0476 28.7407 19.2116 28.7407 19.3636C28.7407 19.5076 28.7447 19.6756 28.7527 19.8676C28.7687 19.9716 28.7967 20.0756 28.8367 20.1796C28.8767 20.2836 28.9407 20.3676 29.0287 20.4316C29.1167 20.4956 29.2367 20.5276 29.3887 20.5276Z" fill="white"/>
</svg>
