<svg width="36" height="41" viewBox="0 0 36 41" fill="none" xmlns="http://www.w3.org/2000/svg">
<path d="M0.75 40.25V0.75H35.25V29.6893L24.6893 40.25H0.75Z" stroke="#507E9B" stroke-width="1.5"/>
<path d="M7.209 24V14.822H10.576C12.253 14.822 13.449 15.953 13.449 17.695C13.449 19.437 12.253 20.607 10.576 20.607H8.496V24H7.209ZM8.496 19.489H10.368C11.46 19.489 12.149 18.8 12.149 17.695C12.149 16.603 11.46 15.94 10.381 15.94H8.496V19.489ZM14.8328 24V14.822H17.8878C20.6828 14.822 22.5288 16.499 22.5288 19.398C22.5288 22.31 20.6828 24 17.8878 24H14.8328ZM16.1198 22.882H17.7968C19.8508 22.882 21.2028 21.673 21.2028 19.398C21.2028 17.149 19.8378 15.94 17.7968 15.94H16.1198V22.882ZM24.1577 24V14.822H29.2147V15.94H25.4447V18.969H28.6557V20.087H25.4447V24H24.1577Z" fill="#507E9B"/>
</svg>
