<svg width="88" height="82" viewBox="0 0 88 82" fill="none" xmlns="http://www.w3.org/2000/svg">
<path d="M31.5224 17.1511C36.0743 12.0959 41.0097 8.06148 45.9918 5.1889L52.2558 2.21494C60.4768 -0.917131 68.4039 -0.760819 74.3956 3.30571C74.5675 3.43454 74.7122 3.57086 74.8842 3.69969C74.8842 3.69969 76.0076 4.59339 76.7 5.25603C77.3923 5.91867 78.4299 7.09328 78.4299 7.09328C80.3327 9.46624 81.6899 12.347 82.5429 15.6116L83.4177 21.1718C83.8372 26.9408 82.9057 33.4587 80.5584 40.2087L78.6694 45.0292C78.2061 46.0971 77.7073 47.1442 77.1778 48.2115C78.4019 49.6473 79.5272 51.0491 80.5379 52.4268L85.2475 60.1965C88.2131 66.5403 88.4523 72.0331 85.7104 76.0518C82.527 80.7193 76.0434 82.4023 67.3524 81.079C62.2719 80.3158 56.4262 78.518 50.0537 75.6956C44.0664 73.0601 37.9749 69.6612 31.9732 65.5793C25.9715 61.4974 20.5812 57.0938 15.9365 52.4894C11.9931 48.5885 8.78734 44.7763 6.32859 41.1344L3.59267 36.6001C0.0362335 29.7216 -0.469863 23.7359 2.48112 19.4168C6.85216 13.0126 17.3776 12.2318 31.5224 17.1511Z" fill="#32691A"/>
</svg>
