<svg width="132" height="60" viewBox="0 0 132 60" fill="none" xmlns="http://www.w3.org/2000/svg">
<path d="M12.4928 41.0658H8.45868L7.70577 23.7769L4.42459 41.0658H0.576416L4.89865 20.3749H10.9684L11.6097 34.866L18.6647 20.3749H24.7995L20.468 41.0658H16.5826L20.6632 23.8977L12.4928 41.0658Z" fill="white"/>
<path d="M30.0698 30.33L26.1194 29.9861C26.5655 28.6476 27.3556 27.6065 28.4803 26.8536C29.6051 26.1007 31.1016 25.7196 32.9513 25.7196C34.8847 25.7196 36.3068 26.11 37.227 26.8908C38.1566 27.6623 38.612 28.6104 38.612 29.7351C38.612 30.1906 38.5748 30.6646 38.4912 31.1758C38.4168 31.6871 38.1287 33.0163 37.6546 35.1913C37.2642 36.976 37.069 38.2308 37.069 38.9466C37.069 39.5879 37.1806 40.2943 37.4037 41.0844H33.4625C33.3045 40.536 33.2023 39.969 33.1651 39.3834C32.5702 40.0434 31.8916 40.5453 31.1202 40.9078C30.3487 41.261 29.5772 41.4376 28.7871 41.4376C27.5415 41.4376 26.5191 41.0287 25.7104 40.22C24.9017 39.4113 24.4927 38.361 24.4927 37.0782C24.4927 35.6468 24.9389 34.5035 25.8312 33.6483C26.7236 32.7932 28.3037 32.2727 30.5996 32.0961C32.533 31.938 33.8157 31.7428 34.4664 31.5198C34.6337 30.9528 34.7267 30.5066 34.7267 30.1627C34.7267 29.7258 34.5501 29.3633 34.2061 29.0751C33.8529 28.7777 33.3417 28.6383 32.6538 28.6383C31.9288 28.6383 31.3618 28.787 30.9343 29.0844C30.5067 29.354 30.2185 29.7723 30.0698 30.33ZM33.918 34.0759C33.6763 34.141 33.351 34.206 32.942 34.2618C30.9064 34.5035 29.5772 34.866 28.9637 35.3308C28.5268 35.6654 28.3037 36.1301 28.3037 36.7064C28.3037 37.1805 28.471 37.5709 28.815 37.8962C29.1496 38.2215 29.605 38.3796 30.1535 38.3796C30.7669 38.3796 31.3432 38.2308 31.8824 37.9334C32.4215 37.6359 32.8305 37.2548 33.1 36.7901C33.3696 36.3253 33.602 35.6003 33.8157 34.6057L33.918 34.0759Z" fill="white"/>
<path d="M43.3246 26.0728H47.1635L46.7731 28.0248C47.7305 27.1975 48.6321 26.6027 49.4594 26.2494C50.2959 25.8962 51.1696 25.7103 52.0899 25.7103C53.3261 25.7103 54.2928 26.0635 55.0085 26.77C55.715 27.4764 56.0775 28.4152 56.0775 29.5864C56.0775 30.1162 55.9195 31.1108 55.6127 32.5794L53.8466 41.0659H49.794L51.5693 32.5515C51.8296 31.2781 51.969 30.5252 51.969 30.2742C51.969 29.7537 51.811 29.3447 51.5136 29.0473C51.2068 28.7498 50.7793 28.6011 50.2401 28.6011C49.6453 28.6011 48.9853 28.8521 48.2603 29.354C47.5353 29.8559 46.9683 30.5159 46.55 31.3339C46.2525 31.9195 45.9179 33.1092 45.5368 34.9125L44.2541 41.0659H40.2014L43.3246 26.0728Z" fill="white"/>
<path d="M60.6322 26.0728H64.6848L61.5524 41.0658H57.4904L60.6322 26.0728Z" fill="white"/>
<path d="M68.2355 26.0728H72.0743L71.749 27.6158C72.567 26.9373 73.3385 26.4539 74.0542 26.1658C74.7699 25.8683 75.5321 25.7196 76.3501 25.7196C77.921 25.7196 79.1851 26.2587 80.1425 27.3463C81.0999 28.4245 81.574 30.0418 81.574 32.189C81.574 34.8939 80.7467 37.1712 79.1015 39.0302C77.6886 40.6197 76.0155 41.4191 74.0914 41.4191C72.1022 41.4191 70.6057 40.6104 69.5832 39.0023L67.9566 46.7823H63.9039L68.2355 26.0728ZM70.6801 34.6708C70.6801 35.842 70.9682 36.7436 71.5352 37.3943C72.1022 38.0356 72.7808 38.361 73.5523 38.361C74.2215 38.361 74.8629 38.1193 75.4857 37.6359C76.1084 37.1526 76.6197 36.3439 77.0286 35.2192C77.4376 34.0945 77.6421 33.0535 77.6421 32.0961C77.6421 30.9806 77.3726 30.1162 76.8334 29.5213C76.2943 28.9171 75.6158 28.6197 74.7885 28.6197C74.017 28.6197 73.3106 28.8985 72.6785 29.4469C72.0465 30.0047 71.5538 30.804 71.2006 31.873C70.8567 32.9419 70.6801 33.8714 70.6801 34.6708Z" fill="white"/>
<path d="M85.6917 26.0728H89.7444L87.8946 34.9496C87.6623 36.0185 87.5507 36.6785 87.5507 36.9388C87.5507 37.3756 87.718 37.7474 88.0341 38.0542C88.3501 38.3609 88.7591 38.5189 89.261 38.5189C89.6235 38.5189 89.9674 38.4539 90.3207 38.3144C90.6646 38.175 91.0271 37.9705 91.3896 37.6917C91.7521 37.4128 92.0867 37.0968 92.3749 36.7343C92.663 36.3718 92.9326 35.907 93.1929 35.3214C93.3695 34.8845 93.5647 34.1874 93.7784 33.2021L95.275 26.0635H99.3276L96.1952 41.0565H92.4121L92.8304 39.0209C91.1758 40.6103 89.3726 41.4097 87.4299 41.4097C86.1936 41.4097 85.2269 41.0565 84.5205 40.3501C83.8141 39.6436 83.4609 38.7048 83.4609 37.5151C83.4609 37.0038 83.6189 35.9721 83.9442 34.4198L85.6917 26.0728Z" fill="white"/>
<path d="M99.9225 41.0658L104.263 20.3749H108.297L103.975 41.0658H99.9225Z" fill="white"/>
<path d="M113.41 30.33L109.46 29.9861C109.915 28.6476 110.705 27.6065 111.82 26.8536C112.945 26.1007 114.432 25.7196 116.291 25.7196C118.225 25.7196 119.647 26.11 120.567 26.8908C121.487 27.6623 121.952 28.6104 121.952 29.7351C121.952 30.1906 121.915 30.6646 121.831 31.1758C121.748 31.6871 121.469 33.0163 120.985 35.1913C120.595 36.976 120.4 38.2308 120.4 38.9466C120.4 39.5879 120.511 40.2943 120.734 41.0844H116.793C116.626 40.536 116.533 39.969 116.496 39.3834C115.901 40.0434 115.222 40.5453 114.451 40.9078C113.68 41.261 112.899 41.4376 112.118 41.4376C110.872 41.4376 109.85 41.0287 109.041 40.22C108.233 39.4113 107.833 38.361 107.833 37.0782C107.833 35.6468 108.279 34.5035 109.162 33.6483C110.054 32.7932 111.644 32.2727 113.93 32.0961C115.864 31.938 117.147 31.7428 117.797 31.5198C117.965 30.9528 118.048 30.5066 118.048 30.1627C118.048 29.7258 117.872 29.3633 117.518 29.0751C117.174 28.7777 116.654 28.6383 115.966 28.6383C115.241 28.6383 114.674 28.787 114.247 29.0844C113.838 29.354 113.559 29.7723 113.41 30.33ZM117.258 34.0759C117.016 34.141 116.691 34.206 116.282 34.2618C114.247 34.5035 112.927 34.866 112.304 35.3308C111.858 35.6654 111.644 36.1301 111.644 36.7064C111.644 37.1805 111.811 37.5709 112.155 37.8962C112.49 38.2215 112.945 38.3796 113.494 38.3796C114.107 38.3796 114.683 38.2308 115.223 37.9334C115.771 37.6359 116.171 37.2548 116.44 36.7901C116.71 36.3253 116.942 35.6003 117.147 34.6057L117.258 34.0759Z" fill="white"/>
<path d="M56.4216 54.0697L58.355 53.9675C58.3829 54.581 58.4851 54.9993 58.671 55.2223C58.9685 55.5755 59.5169 55.7429 60.3163 55.7429C60.9855 55.7429 61.4688 55.622 61.7663 55.3896C62.0637 55.1573 62.2125 54.8691 62.2125 54.5252C62.2125 54.2278 62.0916 53.9861 61.85 53.7816C61.6733 53.6329 61.2086 53.3912 60.4464 53.0659C59.6749 52.7312 59.1172 52.4524 58.764 52.2386C58.4108 52.0062 58.1319 51.7274 57.9274 51.3742C57.7229 51.0209 57.6207 50.6027 57.6207 50.1193C57.6207 49.2828 57.9181 48.5949 58.5223 48.0465C59.1265 47.4981 60.0002 47.2192 61.1435 47.2192C62.3054 47.2192 63.1977 47.4888 63.8391 48.0372C64.4712 48.5856 64.8244 49.3106 64.8894 50.2123L62.9375 50.3052C62.8817 49.8312 62.7144 49.4687 62.4262 49.2177C62.1381 48.9667 61.7012 48.8366 61.1342 48.8366C60.5765 48.8366 60.1675 48.9388 59.9259 49.134C59.6935 49.3292 59.5633 49.5802 59.5633 49.8869C59.5633 50.1751 59.6749 50.4075 59.8887 50.5934C60.1118 50.7793 60.5951 51.0395 61.3573 51.3649C62.4913 51.8575 63.2163 52.2572 63.5324 52.5639C63.9971 53.0101 64.2295 53.5957 64.2295 54.3021C64.2295 55.1759 63.8856 55.9195 63.1885 56.5422C62.5006 57.1557 61.5432 57.4718 60.307 57.4718C59.4518 57.4718 58.7175 57.323 58.0947 57.0442C57.472 56.756 57.0351 56.3656 56.7748 55.8544C56.5238 55.3153 56.403 54.7297 56.4216 54.0697Z" fill="#C0C2C1"/>
<path d="M66.7576 50.1007H68.5887L68.4307 50.835C68.8211 50.5097 69.1929 50.2773 69.5275 50.1379C69.8714 49.9984 70.234 49.9241 70.6244 49.9241C71.3773 49.9241 71.9814 50.1843 72.4369 50.7049C72.8924 51.2161 73.1247 51.9876 73.1247 53.0193C73.1247 54.3114 72.7344 55.3989 71.9443 56.2912C71.2657 57.0441 70.4663 57.4345 69.5461 57.4345C68.598 57.4345 67.8823 57.0441 67.3896 56.2819L66.6089 60H64.6755L66.7576 50.1007ZM67.9195 54.2184C67.9195 54.7761 68.0496 55.213 68.3285 55.5104C68.598 55.8265 68.9234 55.9752 69.2859 55.9752C69.6112 55.9752 69.9179 55.8636 70.2154 55.622C70.5128 55.3896 70.7545 54.9992 70.959 54.4694C71.1542 53.9303 71.2471 53.4283 71.2471 52.9729C71.2471 52.4338 71.117 52.0248 70.866 51.7366C70.6151 51.4485 70.2804 51.309 69.89 51.309C69.5182 51.309 69.1836 51.4392 68.8769 51.7087C68.5794 51.969 68.3378 52.3594 68.1704 52.8706C68.0031 53.3819 67.9195 53.828 67.9195 54.2184Z" fill="#C0C2C1"/>
<path d="M80.7373 54.2927H75.8759C75.8759 54.3671 75.8759 54.4322 75.8759 54.4694C75.8759 54.9434 76.0061 55.3338 76.2849 55.6219C76.5545 55.9194 76.8891 56.0588 77.2795 56.0588C77.9209 56.0588 78.4228 55.7242 78.7853 55.0642L80.5235 55.3524C80.1889 56.0495 79.7334 56.57 79.1664 56.9233C78.5994 57.2672 77.9673 57.4438 77.2702 57.4438C76.3128 57.4438 75.5227 57.1371 74.9185 56.5329C74.3144 55.9194 74.0169 55.12 74.0169 54.1161C74.0169 53.1309 74.2865 52.2571 74.8349 51.4949C75.5785 50.4632 76.6381 49.9426 78.0138 49.9426C78.8876 49.9426 79.5847 50.2122 80.1052 50.7606C80.6257 51.309 80.8767 52.0619 80.8767 53.0379C80.8674 53.4934 80.8302 53.9209 80.7373 54.2927ZM79.1106 53.103C79.1106 53.0193 79.1199 52.9542 79.1199 52.9078C79.1199 52.378 78.9991 51.9783 78.7574 51.7087C78.5157 51.4391 78.1997 51.309 77.8 51.309C77.4003 51.309 77.0378 51.467 76.7218 51.7645C76.4058 52.0712 76.1827 52.5081 76.0711 53.103H79.1106Z" fill="#C0C2C1"/>
<path d="M86.3051 54.5716L88.1827 54.8783C87.876 55.7149 87.4112 56.347 86.807 56.7838C86.2028 57.2207 85.4964 57.4438 84.697 57.4438C83.7768 57.4438 83.0611 57.1742 82.522 56.6258C81.9829 56.0774 81.7226 55.3338 81.7226 54.3764C81.7226 53.5956 81.8806 52.8613 82.2059 52.1735C82.5313 51.4856 83.0239 50.9372 83.6653 50.5375C84.3159 50.1378 85.0317 49.9426 85.8125 49.9426C86.6583 49.9426 87.3369 50.1657 87.8295 50.6026C88.3314 51.0395 88.6196 51.6157 88.6846 52.3408L86.8349 52.536C86.7884 52.1363 86.6676 51.8481 86.4631 51.6529C86.2679 51.467 85.9983 51.3741 85.673 51.3741C85.3012 51.3741 84.948 51.5135 84.632 51.7924C84.3066 52.0712 84.0557 52.4895 83.8791 53.0472C83.7025 53.6049 83.6188 54.1254 83.6188 54.6088C83.6188 55.0364 83.7211 55.3617 83.9255 55.5848C84.13 55.8171 84.3903 55.9287 84.7063 55.9287C85.0131 55.9287 85.3105 55.8171 85.608 55.5941C85.924 55.3617 86.1471 55.0178 86.3051 54.5716Z" fill="#C0C2C1"/>
<path d="M90.6366 50.1007H92.5793L91.0828 57.2672H89.1401L90.6366 50.1007ZM91.2036 47.3772H93.137L92.7745 49.134H90.8411L91.2036 47.3772Z" fill="#C0C2C1"/>
<path d="M95.7117 52.1363L93.8248 51.9783C94.0386 51.3369 94.4197 50.835 94.9588 50.4725C95.4979 50.11 96.2043 49.9333 97.0967 49.9333C98.0169 49.9333 98.7047 50.1193 99.1416 50.4911C99.5878 50.8629 99.8015 51.309 99.8015 51.8481C99.8015 52.0619 99.7829 52.2943 99.7458 52.536C99.7086 52.7777 99.5692 53.419 99.3461 54.4508C99.1602 55.3059 99.0579 55.9008 99.0579 56.2447C99.0579 56.5515 99.1137 56.8861 99.2252 57.2672H97.3383C97.264 57.0069 97.2175 56.7374 97.1989 56.4585C96.9201 56.7746 96.5947 57.0162 96.2229 57.1835C95.8511 57.3508 95.4886 57.4345 95.1075 57.4345C94.5126 57.4345 94.02 57.2393 93.6389 56.8489C93.2485 56.4585 93.0533 55.9566 93.0533 55.3524C93.0533 54.6646 93.2671 54.1162 93.6946 53.7072C94.1129 53.2982 94.8751 53.0472 95.972 52.9636C96.8922 52.8892 97.5056 52.7962 97.8217 52.6847C97.9053 52.4151 97.9425 52.2014 97.9425 52.034C97.9425 51.8295 97.8589 51.6529 97.6916 51.5135C97.5242 51.3741 97.2733 51.2997 96.9479 51.2997C96.604 51.2997 96.3345 51.3741 96.13 51.5135C95.9162 51.6715 95.786 51.876 95.7117 52.1363ZM97.5521 53.9302C97.4313 53.9581 97.2733 53.986 97.0874 54.0232C96.1114 54.1347 95.4793 54.3113 95.1819 54.5344C94.9681 54.6924 94.8658 54.9155 94.8658 55.1944C94.8658 55.4175 94.9495 55.6034 95.1075 55.7614C95.2748 55.9194 95.4793 55.9938 95.7489 55.9938C96.037 55.9938 96.3159 55.9194 96.5761 55.78C96.8364 55.6313 97.0316 55.4546 97.1617 55.2316C97.2919 55.0085 97.4034 54.6553 97.4963 54.1905L97.5521 53.9302Z" fill="#C0C2C1"/>
<path d="M100.647 57.2765L102.729 47.3772H104.654L102.59 57.2765H100.647Z" fill="#C0C2C1"/>
<path d="M106.002 50.1007H107.944L106.448 57.2672H104.514L106.002 50.1007ZM106.569 47.3772H108.502L108.139 49.134H106.197L106.569 47.3772Z" fill="#C0C2C1"/>
<path d="M108.093 55.2687L109.971 54.9713C110.138 55.371 110.342 55.6498 110.593 55.8171C110.835 55.9845 111.17 56.0588 111.607 56.0588C112.043 56.0588 112.406 55.9659 112.666 55.7614C112.852 55.6219 112.945 55.4639 112.945 55.2687C112.945 55.1386 112.899 55.0271 112.806 54.9155C112.713 54.8133 112.434 54.6924 112.006 54.553C110.835 54.1626 110.11 53.8559 109.831 53.6328C109.394 53.2796 109.18 52.8241 109.18 52.2571C109.18 51.6901 109.394 51.2068 109.813 50.7978C110.398 50.2308 111.272 49.9426 112.434 49.9426C113.363 49.9426 114.051 50.1099 114.525 50.4446C114.999 50.7792 115.297 51.2347 115.427 51.8109L113.633 52.1177C113.54 51.8574 113.382 51.6622 113.177 51.5321C112.889 51.3555 112.545 51.2625 112.136 51.2625C111.737 51.2625 111.439 51.3276 111.263 51.467C111.086 51.5972 110.993 51.7552 110.993 51.9318C110.993 52.1084 111.086 52.2571 111.263 52.378C111.374 52.443 111.737 52.5731 112.35 52.759C113.298 53.0286 113.93 53.2982 114.246 53.5677C114.692 53.9395 114.925 54.395 114.925 54.9155C114.925 55.5941 114.637 56.1889 114.06 56.6816C113.493 57.1835 112.685 57.4345 111.644 57.4345C110.612 57.4345 109.803 57.2393 109.246 56.8675C108.679 56.4864 108.297 55.9566 108.093 55.2687Z" fill="#C0C2C1"/>
<path d="M116.523 51.5414L116.821 50.1007H117.769L118.001 48.9574L120.223 47.6189L119.702 50.1007H120.883L120.585 51.5414H119.396L118.773 54.5438C118.661 55.0922 118.606 55.3989 118.606 55.4826C118.606 55.6313 118.652 55.7521 118.745 55.8265C118.838 55.9101 119.015 55.9566 119.256 55.9566C119.34 55.9566 119.554 55.938 119.898 55.9101L119.591 57.3509C119.266 57.416 118.922 57.4531 118.568 57.4531C117.881 57.4531 117.388 57.323 117.072 57.0534C116.765 56.7932 116.607 56.4214 116.607 55.9566C116.607 55.7335 116.691 55.2223 116.858 54.4322L117.453 51.5507H116.523V51.5414Z" fill="#C0C2C1"/>
<path d="M0.455462 43.6592L0 45.3416H62.426L62.6398 43.6592H0.455462Z" fill="#E83B3C"/>
<path d="M120.13 43.6592H70.8844L70.6892 45.3416H119.674L120.13 43.6592Z" fill="#E83B3C"/>
<path d="M64.5266 14.7234L60.5483 13.7196L62.0542 16.6661L57.8063 18.7947L62.0077 19.0085L60.7714 22.4756L64.3779 20.0124L67.0363 22.3362L67.2966 18.9713L71.9627 18.2928L68.6351 16.6568L71.6932 13.4965L67.3524 14.7699L66.6366 11.6282L64.5266 14.7234Z" fill="#E83B3C"/>
<path d="M78.869 4.56385L75.3461 3.67152L76.6754 6.28345L72.9108 8.16107L76.6382 8.35626L75.5413 11.4329L78.7389 9.24859L81.0905 11.3028L81.3229 8.31908L85.4592 7.7242L82.5127 6.27416L85.2176 3.47633L81.3694 4.60104L80.7466 1.8125L78.869 4.56385Z" fill="#E83B3C"/>
<path d="M95.619 2.25871L92.7282 1.5244L93.8158 3.65298L90.7391 5.20527L93.7879 5.36328L92.8862 7.87297L95.5075 6.0976L97.4316 7.77072L97.6175 5.3354L101.01 4.84276L98.5934 3.65298L100.815 1.36638L97.6639 2.2866L97.1527 0L95.619 2.25871Z" fill="#E83B3C"/>
<path d="M111.151 6.10685L108.753 5.50266L109.664 7.28732L107.089 8.57005L109.627 8.70018L108.883 10.7916L111.067 9.31366L112.666 10.7079L112.824 8.67229L115.65 8.26331L113.633 7.27803L115.482 5.37253L112.852 6.13473L112.424 4.23853L111.151 6.10685Z" fill="#E83B3C"/>
<path d="M123.095 14.8908L120.92 14.3331L121.738 15.9412L119.415 17.1124L121.72 17.2239L121.032 19.1294L123.012 17.7816L124.462 19.0457L124.611 17.2053L127.167 16.8335L125.336 15.9412L127.009 14.2123L124.638 14.9094L124.248 13.1898L123.095 14.8908Z" fill="#E83B3C"/>
<path d="M129.118 28.1364L127.696 27.7739L128.235 28.8335L126.711 29.5957L128.217 29.6701L127.78 30.9156L129.063 30.0326L130.02 30.8599L130.113 29.6608L131.777 29.4098L130.587 28.8242L131.684 27.6995L130.131 28.155L129.871 27.0303L129.118 28.1364Z" fill="#E83B3C"/>
<path d="M126.469 41.7629L125.41 41.4934L125.81 42.2742L124.685 42.8412L125.8 42.8969L125.475 43.8172L126.432 43.1665L127.139 43.7893L127.213 42.8876L128.449 42.711L127.557 42.2742L128.375 41.4376L127.222 41.7722L127.036 40.9357L126.469 41.7629Z" fill="#E83B3C"/>
</svg>
