<svg width="182" height="63" viewBox="0 0 182 63" fill="none" xmlns="http://www.w3.org/2000/svg">
<path d="M39.3366 11.0601L22.3129 0.890565C21.8299 0.601806 21.2261 0.601806 20.7431 0.890565L3.72205 11.0601C3.25741 11.3384 2.97656 11.8372 2.97656 12.3753V38.2429H40.0821V12.3753C40.0821 11.8372 39.7986 11.3384 39.3366 11.0601ZM17.236 37.5708H10.8413V20.0064H17.236V37.5708ZM32.2147 37.5708H25.8227V20.0064H32.2147V37.5708Z" fill="#B3C7AA"/>
<path d="M39.6793 10.4826L22.6583 0.313041C21.96 -0.104347 21.0937 -0.104347 20.3955 0.313041L3.37446 10.4826C2.71294 10.879 2.30078 11.6035 2.30078 12.3753V38.9175H40.7556V12.3753C40.7556 11.6035 40.3435 10.879 39.6793 10.4826ZM3.64742 12.3753C3.64742 12.076 3.80757 11.7925 4.06483 11.6377L21.0859 1.46808C21.3563 1.30533 21.6949 1.30533 21.9653 1.46808L38.9863 11.6377C39.2436 11.7925 39.4037 12.0734 39.4037 12.3753V37.5682H33.5577V18.6571H9.49086V37.5682H3.64485V12.3753H3.64742ZM32.2136 37.5708H25.8216V20.0064H32.2136V37.5708ZM17.2348 37.5708H10.8402V20.0064H17.2348V37.5708Z" fill="#32691A"/>
<path d="M32.2124 20.0064H25.8203V37.5708H32.2124V20.0064Z" fill="#7A9D6A"/>
<path d="M17.2384 20.0064H10.8438V37.5708H17.2384V20.0064Z" fill="#7A9D6A"/>
<path d="M32.2284 14.1183C31.3096 12.832 29.2699 13.0263 26.9782 14.0186C25.0199 11.4775 21.2188 8.79467 19.2316 10.7057C17.3468 12.517 18.2709 17.0401 19.3156 19.6809C17.5752 21.6707 16.659 23.6553 17.5279 24.8812C20.2213 28.677 35.3969 18.5547 32.2284 14.1183ZM31.6483 16.8484C30.1047 20.2295 23.7704 24.6607 19.9614 25.0229C19.0242 25.1122 18.3916 24.9337 18.0792 24.4927C17.4965 23.6736 18.1501 22.0408 19.8249 20.1272L20.0953 19.8174L20.0795 19.7807C22.1481 17.0453 25.5318 15.381 26.763 14.8402L26.7682 14.8455L27.2486 14.6355C28.2882 14.184 30.7977 13.2704 31.6824 14.5095C32.0971 15.0949 32.0867 15.8824 31.6483 16.8484Z" fill="#F9A262"/>
<path d="M32.7788 13.7272C31.797 12.3543 29.8229 12.1732 27.19 13.2048C25.6779 11.4067 23.2759 9.55072 21.189 9.39584C20.2387 9.32496 19.4013 9.6111 18.7687 10.2201C16.6371 12.2703 17.569 16.8747 18.5481 19.547C16.5846 21.9017 16.0281 23.9257 16.9836 25.2697C17.359 25.7973 18.0993 26.388 19.5378 26.388C19.7111 26.388 19.8975 26.3775 20.0917 26.3591C22.0605 26.1727 24.7775 24.9967 27.3579 23.2117C30.0224 21.3688 32.0332 19.253 32.8785 17.4023C33.6896 15.6173 33.2723 14.4176 32.7788 13.7272ZM19.9605 25.0203C19.0233 25.1096 18.3907 24.9311 18.0783 24.4901C17.4955 23.671 18.1492 22.0382 19.824 20.1246L20.0943 19.8148L20.0812 19.7781C22.1498 17.0427 25.5335 15.3784 26.7647 14.8376L26.7699 14.8429L27.2503 14.6329C28.2899 14.1814 30.7994 13.2705 31.6841 14.5069C32.1014 15.0923 32.091 15.8798 31.6526 16.8458C30.1064 20.2296 23.7721 24.6581 19.9605 25.0203ZM21.0866 10.7399C22.6118 10.8528 24.5308 12.2519 25.8853 13.7587C24.473 14.415 21.6169 15.9349 19.5457 18.3028C18.7739 15.8299 18.3224 12.5171 19.7006 11.1914C20.0208 10.8843 20.4172 10.732 20.9003 10.732C20.9606 10.732 21.0236 10.7346 21.0866 10.7399Z" fill="#32691A"/>
<path d="M31.6491 16.8484C30.1055 20.2295 23.7712 24.6607 19.9622 25.0229C19.025 25.1122 18.3924 24.9337 18.08 24.4927C17.4972 23.6737 18.1509 22.0408 19.8257 20.1272L20.0961 19.8174L20.0803 19.7807C22.1489 17.0453 25.5326 15.381 26.7637 14.8402L26.769 14.8455L27.2494 14.6355C28.2889 14.184 30.7985 13.2704 31.6831 14.5095C32.0979 15.0949 32.0874 15.8824 31.6491 16.8484Z" fill="#9C5A40"/>
<path d="M29.5499 17.0164C44.7753 17.0164 51.3748 54.8885 20.9868 54.8885C-6.84432 54.8885 -5.20889 25.3432 20.6009 32.36C20.6009 32.36 16.8235 17.0164 29.5499 17.0164Z" fill="#FFD066"/>
<path d="M41.2835 37.2978C37.4351 30.9268 15.4264 49.0083 24.4305 53.1008C33.4345 57.1907 43.8692 41.5793 41.2835 37.2978Z" fill="#F9A262"/>
<path d="M45.214 27.1808C45.1274 26.9025 45.046 26.6374 41.7121 25.0387C44.5236 21.8518 44.4737 21.5841 44.4107 21.2507C44.374 21.0538 44.2558 20.8779 44.0799 20.7782C43.7544 20.5944 43.5077 20.6732 42.7596 20.9908C42.2818 21.193 41.7122 21.4607 41.1583 21.7416C40.6621 21.991 40.0872 22.3007 39.5202 22.6394C39.4546 22.537 39.389 22.4346 39.3207 22.3322C36.7507 18.4707 33.283 16.3418 29.5502 16.3418C26.043 16.3418 23.3891 17.4601 21.6591 19.6678C18.7532 23.377 19.3254 29.0734 19.7297 31.4386C15.8787 30.512 12.3978 30.3571 9.36848 30.974C6.39952 31.5804 3.95558 32.9428 2.29653 34.909C1.04699 36.3922 0.272583 38.1904 0.0599509 40.1119C-0.150056 42.0177 0.193843 44.0076 1.0575 45.8635C2.34904 48.6434 4.70635 51.0008 7.8722 52.6861C10.2085 53.9277 12.8993 54.773 15.9076 55.2088C15.9181 56.8652 17.3409 59.6005 19.2598 61.6507H8.00345C7.63069 61.6507 7.32879 61.9526 7.32879 62.3254C7.32879 62.6981 7.63069 63 8.00345 63H35.0392C35.4119 63 35.7138 62.6981 35.7138 62.3254C35.7138 61.9526 35.4119 61.6507 35.0392 61.6507H31.8156C30.902 60.5508 29.2955 58.1961 28.8781 57.6081C28.0171 56.3927 28.5762 54.6969 29.9885 54.227C30.3744 54.0984 30.7524 53.9618 31.1226 53.8148C33.8317 52.7464 36.1443 51.1924 37.995 49.1921C41.2554 45.6718 43.0509 40.7498 43.0509 35.3343C43.0509 32.8326 42.6651 30.3151 41.9432 27.9735C42.5049 28.0602 43.0457 28.1258 43.5103 28.1547C43.6941 28.1652 43.8621 28.173 44.0169 28.173C44.5892 28.173 44.9515 28.0707 45.1457 27.7399C45.2508 27.5745 45.2744 27.3698 45.214 27.1808ZM30.1066 61.6533H21.2549C20.6091 60.9918 19.7271 59.7292 19.2966 59.2462C18.0182 57.8155 19.0367 55.5579 20.9556 55.5605C20.9688 55.5605 20.9819 55.5605 20.995 55.5605C22.8667 55.5605 24.6465 55.4188 26.3213 55.1353C25.959 57.2826 28.1851 59.7449 30.1066 61.6533ZM37.0132 48.2785C34.6165 50.8643 31.4691 52.6152 27.6128 53.5077C27.1613 53.6127 26.7019 53.7072 26.2294 53.7886C24.5992 54.0721 22.8509 54.2139 20.9897 54.2139C19.8478 54.2139 18.7401 54.1614 17.6717 54.059C17.1676 54.0117 16.6715 53.9513 16.1832 53.8805C9.44723 52.9092 4.40446 49.8536 2.28602 45.2991C1.08898 42.7239 1.04699 40.02 2.10227 37.7152C2.2729 38.6104 2.6562 39.3743 3.24946 39.9964C4.31525 41.1173 5.82988 41.5137 6.95079 41.6476C6.34177 42.4824 5.69075 43.7109 5.76951 45.076C5.84826 46.4226 6.59904 47.6065 8.00608 48.5935C8.81198 49.1606 9.88037 49.4493 11.1325 49.4493C11.4738 49.4493 11.8308 49.4283 12.201 49.3837C13.7576 49.1999 15.5007 48.6329 17.2358 47.7456C19.6929 46.4909 21.9532 44.6874 23.5939 42.674C25.4944 40.3403 26.5181 37.7992 26.5523 35.3264C26.5575 34.9536 26.2609 34.6491 25.8882 34.6439C25.8856 34.6439 25.8829 34.6439 25.8777 34.6439C25.5102 34.6439 25.2083 34.9405 25.203 35.308C25.1374 40.0778 20.8454 44.3882 16.6216 46.5486C13.3901 48.1998 10.3135 48.5699 8.78047 47.4937C7.73044 46.756 7.17133 45.9186 7.11621 45.0077C7.00858 43.2016 8.82509 41.5478 8.84084 41.5321C9.0561 41.3405 9.12439 41.0307 9.01151 40.7656C8.89863 40.5004 8.62823 40.335 8.33947 40.3587C8.31322 40.3613 5.62778 40.5529 4.22336 39.0698C4.01073 38.844 3.83485 38.5894 3.69834 38.3032C3.0867 37.0143 3.47255 35.4681 4.57771 34.5677C6.69877 32.8431 9.64937 31.9584 13.1722 31.9584C15.3878 31.9584 17.8265 32.3075 20.4306 33.0163C20.9268 33.1502 21.3835 32.7039 21.2627 32.2052C21.2444 32.129 19.4646 24.6659 22.7276 20.5026C24.1871 18.6414 26.4867 17.6963 29.5554 17.6963C33.2122 17.6963 36.2651 20.0038 38.3967 23.3823C38.1184 23.5844 37.8637 23.7891 37.6432 23.9939C36.8741 24.7106 36.6169 25.3852 36.8741 25.9942C37.05 26.4142 37.5435 26.9681 39.7985 27.543C40.0032 27.5955 40.2159 27.6454 40.4337 27.6926C41.2633 30.1156 41.7121 32.7564 41.7121 35.3395C41.7095 40.4138 40.0426 45.0103 37.0132 48.2785Z" fill="#32691A"/>
<path d="M31.4438 23.1906C29.9291 23.1906 28.6953 24.4244 28.6953 25.9391C28.6953 27.4538 29.9291 25.4115 31.4438 25.4115C32.9584 25.4115 34.1922 27.4538 34.1922 25.9391C34.1922 24.4244 32.9611 23.1906 31.4438 23.1906Z" fill="#32691A"/>
<path d="M63.8327 11.6335C67.119 10.4449 70.3483 9.93758 71.8133 15.1051C70.6932 15.6067 63.0974 13.6971 64.3059 16.7896C64.0522 18.246 71.2348 17.2085 71.8276 17.5049C70.3825 22.8092 66.8597 22.1651 63.7387 21.0449C62.0798 20.4492 61.0223 22.8007 62.6128 23.5617C66.5461 25.4457 74.4555 23.898 74.4555 16.4076C74.4555 8.15332 66.5461 7.44647 62.7838 9.11101C61.1991 9.80361 62.208 12.2235 63.8327 11.6335Z" fill="#32691A"/>
<path d="M100.958 24.0805C90.2359 27.5976 82.9136 15.581 82.9136 15.581C84.2532 14.3155 86.7529 11.3998 88.5372 9.72952C89.2326 9.07966 87.4142 8.11056 87.0009 8.41838C84.8831 9.99456 79.4193 16.1825 78.4103 16.8181V9.29913C78.416 8.24454 75.9248 8.25024 75.9305 9.29913C76.3353 9.78082 75.4403 22.3247 76.0759 24.0234C76.435 24.9811 78.1994 24.5593 78.4103 23.7869C78.6668 22.8491 78.3105 20.8483 78.4074 20.1272L81.1522 17.351C81.1522 17.351 89.6829 30.4764 100.024 27.1957C101.643 26.6827 101.956 25.6538 101.942 25.3801C101.879 24.1289 101.221 23.9949 100.958 24.0805Z" fill="#32691A"/>
<path d="M95.4607 8.4982C86.8074 8.28443 86.7304 22.4074 95.4265 22.1622C104.08 22.3732 104.157 8.25308 95.4607 8.4982ZM96.6236 19.2208C91.9036 20.7685 89.4495 12.7251 94.2664 11.4368C98.9836 9.88913 101.44 17.9325 96.6236 19.2208Z" fill="#32691A"/>
<path d="M112.644 9.47014L112.627 8.75187C112.31 7.39231 109.534 7.95951 110.167 9.53569C100.773 9.43593 101.129 23.6501 110.523 23.0515C110.261 24.1489 110.558 25.782 111.854 25.6509C112.63 25.5711 113.331 24.1033 113 22.986C122.415 23.0857 122.024 8.87159 112.644 9.47014ZM110.23 11.9128L110.461 20.6687C104.298 21.0906 104.082 11.813 110.23 11.9128ZM112.937 20.6031L112.707 11.8472C118.846 11.4311 119.108 20.6972 112.937 20.6031Z" fill="#32691A"/>
<path d="M132.846 8.58657H122.796C121.117 8.54382 121.303 22.2848 122.796 22.6781C123.928 22.9774 129.608 22.8349 132.501 22.9717C133.678 23.0287 133.695 21.6293 133.054 20.9937C132.39 20.3353 125.113 20.5775 124.56 20.2782C124.56 20.2782 124.56 17.9952 124.56 16.761C127.231 16.761 128.388 16.4789 131.105 16.7497C131.786 16.8181 132.347 16.228 132.213 15.5582C132.145 15.2134 131.92 14.82 131.566 14.8058C127.924 14.6519 127.827 14.9283 124.56 14.5749V10.9864H132.846C133.895 10.9864 133.889 8.58087 132.846 8.58657Z" fill="#32691A"/>
<path d="M140.747 8.58375C140.074 8.598 135.58 8.28163 135.58 8.97994C135.58 10.0944 135.277 21.2559 135.543 23.6102C135.662 24.6676 138.059 24.3398 138.059 23.4278V18.8759C144.746 19.3006 147 16.9064 147.476 13.6344C147.861 11.0121 145.478 8.47544 140.747 8.58375ZM141.22 16.476C140.433 16.5302 138.059 16.476 138.059 16.476V10.9836C146.143 9.36754 148.064 15.9972 141.22 16.476Z" fill="#32691A"/>
<path d="M164.427 11.0834C164.424 10.2711 164.424 9.70104 164.444 9.51292C164.453 9.45307 164.453 9.39607 164.444 9.33906C164.341 8.37853 162.412 8.62364 162.11 9.15094C160.833 11.3912 157.84 16.2794 157.068 16.7953L151.986 9.11103C151.513 8.72055 151.119 8.57519 150.791 8.61794H150.783C150.048 8.55239 149.409 8.92007 149.409 9.61838C149.409 9.61838 149.324 13.6657 149.409 15.8889V15.9487V17.3995V23.291C149.409 23.4449 149.503 23.5589 149.654 23.6415C150.321 23.9864 152.134 23.6586 152.134 22.986V19.4289C152.142 17.0575 152.134 13.908 152.134 13.6828C157.937 22.1195 156.184 22.0682 161.964 13.6828V21.6065V23.6358C161.944 24.5422 164.433 24.3712 164.49 23.7983C164.55 23.1855 164.564 21.7775 164.55 20.073C164.575 17.5563 164.458 13.3778 164.427 11.0834Z" fill="#32691A"/>
<path d="M181.329 23.0116C180.445 21.3899 175.224 5.2176 172.442 8.78325C172.009 10.0174 165.077 23.1798 166.491 23.6016C167.092 23.7812 167.921 24.0463 168.175 23.6016C168.888 22.3504 169.352 20.8454 169.857 20.0702H177.27C177.609 20.4863 178.721 24.2087 179.528 24.0263C180.203 24.0548 181.771 24.1603 181.329 23.0116ZM170.957 17.6931L173.576 11.9584L176.181 17.6931H170.957Z" fill="#32691A"/>
<path d="M79.9349 36.4106C79.9349 34.5009 79.4019 33.033 78.3359 32.007C77.27 30.9809 75.5227 30.5249 73.0972 30.6417L70.3353 30.7757L63.1926 31.2887L63.1613 31.4768C62.9475 32.7908 63.7256 34.0136 64.9854 34.3499L62.235 51.7192L61.5338 51.9558C60.4906 52.3092 59.721 53.2298 59.5585 54.3129L59.4531 55.0141L69.4916 54.5324V54.5295C69.7026 53.1187 68.8304 51.8247 67.4651 51.5197L66.9977 51.4171L67.8328 46.2581L69.5601 46.1755C71.6949 46.0729 73.5361 45.5912 75.0838 44.7304C76.6343 43.8696 77.8286 42.7239 78.6722 41.2902C79.5131 39.8565 79.9349 38.229 79.9349 36.4106ZM74.4425 39.7739C74.0605 40.6004 73.4763 41.2702 72.6896 41.7776C71.9029 42.2878 70.9054 42.5699 69.6912 42.6298L68.3772 42.6925L69.694 34.3071L71.7148 34.2102C72.949 34.1504 73.8098 34.3784 74.2915 34.8943C74.7732 35.4101 75.0154 36.1512 75.0154 37.1175C75.0154 38.0609 74.8244 38.9473 74.4425 39.7739Z" fill="#32691A"/>
<path d="M92.2798 35.7664C91.2481 35.3332 90.0567 35.1479 88.7085 35.2135C86.9556 35.299 85.445 35.698 84.1766 36.4077C82.9083 37.1203 81.8565 38.0466 81.0271 39.1867C80.1948 40.3268 79.5821 41.5866 79.1916 42.9633C78.7982 44.34 78.6016 45.7366 78.6016 47.1531C78.6016 48.906 78.8866 50.3055 79.4595 51.3572C80.0324 52.409 80.8361 53.1557 81.8679 53.6004C82.8997 54.045 84.1025 54.2331 85.4735 54.1675C87.2036 54.0849 88.6999 53.6859 89.9711 52.9733C91.2395 52.2608 92.2912 51.3401 93.1207 50.2114C93.9501 49.0827 94.5686 47.8286 94.9733 46.452C95.378 45.0753 95.5804 43.6787 95.5804 42.2621C95.5804 40.4893 95.2868 39.0699 94.7054 38.0096C94.1211 36.9464 93.3116 36.1997 92.2798 35.7664ZM90.6124 44.9243C90.4443 45.8534 90.1678 46.7541 89.7859 47.6263C89.404 48.4984 88.9109 49.2253 88.3038 49.8039C87.6967 50.3825 86.9556 50.6931 86.0806 50.7359C85.1144 50.7815 84.4132 50.4623 83.9743 49.7754C83.5353 49.0885 83.3159 48.1393 83.3159 46.928C83.3159 46.1869 83.3985 45.3518 83.5695 44.4226C83.7377 43.4934 84.0085 42.5984 84.379 41.7405C84.7495 40.8798 85.2397 40.1615 85.844 39.5829C86.4511 39.0043 87.1922 38.6936 88.0672 38.6509C89.0562 38.6024 89.7688 38.916 90.2077 39.5915C90.6467 40.267 90.8633 41.2104 90.8633 42.4217C90.8661 43.1599 90.7806 43.9951 90.6124 44.9243Z" fill="#32691A"/>
<path d="M119.627 34.1703L118.447 41.8745C118.245 43.0972 117.974 44.1604 117.638 45.0639C117.301 45.9674 116.914 46.717 116.475 47.3099C116.036 47.9027 115.588 48.3531 115.127 48.6552C114.665 48.9573 114.235 49.1198 113.83 49.1398C113.379 49.1626 113.032 49.0257 112.787 48.735C112.539 48.4443 112.388 48.031 112.331 47.4923C112.274 46.9565 112.302 46.3266 112.413 45.6026L114.197 34.4325L109.514 34.6577L108.3 42.3961C108.121 43.616 107.861 44.6734 107.525 45.5655C107.189 46.4577 106.807 47.2073 106.379 47.8115C105.952 48.4158 105.504 48.8633 105.031 49.1568C104.561 49.4504 104.099 49.6043 103.652 49.6271C103.178 49.6499 102.825 49.516 102.591 49.2224C102.355 48.9317 102.215 48.5155 102.169 47.9797C102.124 47.4438 102.158 46.8139 102.269 46.09L104.088 34.7831L97.0476 35.3588L97.022 35.5384C96.8253 36.8581 97.6205 38.0751 98.8888 38.3943L97.4865 47.4324C97.307 48.6979 97.3583 49.7867 97.6376 50.6931C97.9169 51.5995 98.4071 52.2949 99.1026 52.7795C99.798 53.264 100.63 53.4806 101.597 53.435C102.628 53.3866 103.68 53.036 104.746 52.389C105.784 51.7591 106.736 50.81 107.605 49.5502C107.648 49.7896 107.705 50.0205 107.779 50.2399C108.081 51.1463 108.577 51.8361 109.261 52.3092C109.945 52.7824 110.76 52.9961 111.704 52.9505C112.693 52.9021 113.724 52.5543 114.802 51.9073C115.879 51.2603 116.862 50.2827 117.749 48.9687C117.82 48.8633 117.88 48.7407 117.948 48.6324C117.609 50.6019 119.148 52.2978 121.129 52.141L123.863 51.9244L123.874 51.8446C124.099 50.4537 123.264 49.1597 121.924 48.8205L124.267 33.948L119.627 34.1703Z" fill="#32691A"/>
<path d="M142.977 33.0473L141.247 33.13C140.765 33.1528 140.312 33.3979 140.015 33.794C139.554 33.5831 139.092 33.4121 138.63 33.2895C137.618 33.0245 136.632 32.9133 135.666 32.9618C134.206 33.0331 132.853 33.4121 131.607 34.099C130.362 34.7888 129.267 35.7065 128.324 36.8495C127.38 37.9953 126.651 39.3121 126.135 40.7942C125.619 42.2792 125.359 43.8525 125.359 45.5142C125.359 47.1103 125.585 48.3901 126.032 49.3563C126.479 50.3226 127.081 51.0237 127.833 51.4598C128.586 51.8959 129.41 52.0926 130.31 52.047C131.342 51.9985 132.411 51.6251 133.511 50.9325C134.611 50.2399 135.606 49.2309 136.492 47.9084C136.558 47.8087 136.615 47.6975 136.678 47.592L135.931 51.5995C135.931 51.5995 139.616 51.4826 139.978 51.5681L142.977 33.0473ZM137.182 40.7714C136.98 41.9486 136.698 42.9889 136.338 43.8953C135.979 44.7988 135.569 45.5712 135.11 46.2125C134.648 46.851 134.167 47.3355 133.662 47.6633C133.158 47.9911 132.667 48.1649 132.197 48.1877C131.567 48.2191 131.063 47.9569 130.681 47.4011C130.299 46.8453 130.108 45.9646 130.108 44.7504C130.108 43.7186 130.236 42.7181 130.496 41.7491C130.752 40.7828 131.128 39.9106 131.624 39.1354C132.117 38.3601 132.696 37.7359 133.36 37.2656C134.021 36.7954 134.759 36.5417 135.566 36.5018C136.059 36.479 136.564 36.5502 137.082 36.7155C137.308 36.7896 137.538 36.8866 137.775 37.0063L137.182 40.7714Z" fill="#32691A"/>
<path d="M177.509 46.0957L177.486 46.09L179.712 31.8787C178.658 31.5937 177.6 31.3856 176.546 31.2573C175.491 31.1291 174.491 31.0863 173.547 31.1319C171.931 31.2089 170.483 31.5395 169.204 32.1153C167.924 32.6938 166.906 33.4948 166.154 34.518C165.401 35.5441 165.025 36.7725 165.025 38.2119C165.025 39.4689 165.316 40.495 165.9 41.2845C166.291 41.8146 166.772 42.2336 167.331 42.5642C166.08 45.9845 163.717 46.7598 161.377 46.9393L160.602 50.8271C167.853 50.8271 170.381 44.1034 170.629 43.4307C170.879 43.4393 171.13 43.4393 171.39 43.4279C171.794 43.4079 172.199 43.3623 172.601 43.2853C172.846 43.2397 173.103 43.1742 173.354 43.1172L172.299 49.7525L179.373 49.2081L179.39 49.1055C179.616 47.7402 178.817 46.4634 177.509 46.0957ZM173.887 39.7938C173.356 40.0047 172.806 40.1273 172.233 40.1558C171.47 40.1928 170.825 40.0332 170.298 39.6769C169.771 39.3207 169.506 38.7278 169.506 37.8955C169.506 37.2428 169.674 36.6814 170.01 36.2025C170.347 35.7265 170.797 35.3446 171.358 35.0596C171.92 34.7745 172.55 34.6149 173.245 34.5807C173.627 34.5636 174.015 34.5893 174.408 34.6605C174.502 34.6776 174.599 34.7061 174.693 34.7289L173.887 39.7938Z" fill="#32691A"/>
<path d="M158.751 50.7729L161.675 32.1124H161.678V32.1096L147.361 32.7993C147.148 34.2045 147.986 35.5042 149.334 35.8576L149.354 35.8633C149.1 37.1887 148.858 38.4343 148.624 39.5915C148.322 41.0992 147.974 42.4132 147.581 43.5333C147.187 44.6535 146.7 45.5313 146.116 46.1641C145.705 46.6087 144.366 47.7802 142.43 48.182L141.547 51.8589C143.895 51.9045 146.808 51.343 148.707 49.2395C149.804 48.0225 150.519 46.07 151.183 43.6473C151.768 41.5097 152.329 38.9843 152.871 36.0714L156.516 35.8975L154.256 50.8926C154.256 50.8869 156.428 50.7957 158.751 50.7729Z" fill="#32691A"/>
</svg>
