<svg width="87" height="56" viewBox="0 0 87 56" fill="none" xmlns="http://www.w3.org/2000/svg">
<path d="M22.8767 24.5429H18.3372V37.017H22.8767V24.5429Z" fill="#7A9D6A"/>
<path d="M22.8883 20.3614C22.2358 19.4479 20.7872 19.5859 19.1597 20.2906C17.7689 18.4859 15.0694 16.5806 13.6581 17.9378C12.3195 19.2242 12.9758 22.4364 13.7178 24.3119C12.4817 25.725 11.8311 27.1344 12.4481 28.0051C14.3609 30.7009 25.1385 23.5121 22.8883 20.3614ZM22.4763 22.3003C21.3801 24.7015 16.8815 27.8485 14.1764 28.1058C13.5108 28.1692 13.0615 28.0424 12.8397 27.7292C12.4258 27.1475 12.89 25.9879 14.0794 24.6288L14.2714 24.4088L14.2603 24.3827C15.7293 22.4401 18.1324 21.2581 19.0068 20.8741L19.0105 20.8778L19.3517 20.7287C20.09 20.408 21.8722 19.7592 22.5005 20.6392C22.7951 21.0549 22.7876 21.6142 22.4763 22.3003Z" fill="#F9A262"/>
<path d="M23.2792 20.0836C22.5819 19.1086 21.1799 18.98 19.31 19.7126C18.2362 18.4356 16.5303 17.1175 15.0482 17.0075C14.3733 16.9572 13.7786 17.1604 13.3293 17.5929C11.8155 19.0489 12.4773 22.3189 13.1727 24.2168C11.7782 25.8891 11.383 27.3265 12.0616 28.281C12.3282 28.6557 12.8539 29.0752 13.8755 29.0752C13.9986 29.0752 14.131 29.0677 14.2689 29.0547C15.6672 28.9223 17.5967 28.0871 19.4293 26.8194C21.3216 25.5106 22.7497 24.008 23.35 22.6937C23.9261 21.4259 23.6297 20.5739 23.2792 20.0836ZM14.1757 28.1039C13.5102 28.1673 13.0609 28.0405 12.839 27.7273C12.4251 27.1456 12.8893 25.986 14.0788 24.627L14.2708 24.407L14.2615 24.3809C15.7305 22.4383 18.1336 21.2563 19.008 20.8722L19.0117 20.876L19.3529 20.7268C20.0912 20.4061 21.8734 19.7592 22.5017 20.6373C22.7981 21.0531 22.7907 21.6124 22.4794 22.2984C21.3813 24.7015 16.8827 27.8466 14.1757 28.1039ZM14.9755 17.962C16.0587 18.0422 17.4215 19.0359 18.3835 20.106C17.3805 20.5721 15.3521 21.6515 13.8811 23.3331C13.333 21.577 13.0124 19.2242 13.9912 18.2827C14.2186 18.0646 14.5001 17.9564 14.8432 17.9564C14.886 17.9564 14.9308 17.9583 14.9755 17.962Z" fill="#32691A"/>
<path d="M22.4769 22.3003C21.3807 24.7015 16.8821 27.8485 14.177 28.1058C13.5114 28.1691 13.0621 28.0424 12.8403 27.7292C12.4264 27.1475 12.8906 25.9879 14.08 24.6288L14.272 24.4088L14.2609 24.3827C15.7299 22.4401 18.133 21.2581 19.0074 20.8741L19.0111 20.8778L19.3523 20.7287C20.0906 20.408 21.8728 19.7592 22.5011 20.6392C22.7957 21.0549 22.7882 21.6142 22.4769 22.3003Z" fill="#9C5A40"/>
<path d="M20.9861 22.4196C31.7991 22.4196 36.486 49.316 14.9047 49.316C-4.86073 49.316 -3.69926 28.3331 14.6306 33.3164C14.6306 33.3164 11.9479 22.4196 20.9861 22.4196Z" fill="#FFD066"/>
<path d="M29.3192 36.8233C26.5862 32.2986 10.9558 45.14 17.3504 48.0464C23.7449 50.951 31.1556 39.864 29.3192 36.8233Z" fill="#F9A262"/>
<path d="M32.1106 29.6383C32.0491 29.4407 31.9913 29.2523 29.6236 28.117C31.6203 25.8537 31.5848 25.6636 31.5401 25.4268C31.514 25.287 31.4301 25.1621 31.3052 25.0912C31.074 24.9607 30.8988 25.0166 30.3675 25.2422C30.0282 25.3858 29.6236 25.5759 29.2302 25.7754C28.8779 25.9525 28.4696 26.1725 28.0669 26.413C28.0203 26.3403 27.9737 26.2676 27.9252 26.1949C26.1001 23.4525 23.6373 21.9405 20.9863 21.9405C18.4955 21.9405 16.6107 22.7347 15.3821 24.3026C13.3183 26.9369 13.7247 30.9824 14.0118 32.6622C11.2769 32.0041 8.80483 31.8941 6.65342 32.3322C4.54488 32.7628 2.80922 33.7304 1.63097 35.1268C0.743561 36.1801 0.193586 37.4572 0.0425766 38.8219C-0.106568 40.1754 0.137666 41.5885 0.751024 42.9066C1.66826 44.8809 3.34241 46.555 5.59077 47.7519C7.25 48.6337 9.16094 49.234 11.2974 49.5435C11.3049 50.7199 12.3154 52.6625 13.6782 54.1185H5.68398C5.41925 54.1185 5.20484 54.3329 5.20484 54.5977C5.20484 54.8624 5.41925 55.0768 5.68398 55.0768H24.8845C25.1493 55.0768 25.3637 54.8624 25.3637 54.5977C25.3637 54.3329 25.1493 54.1185 24.8845 54.1185H22.5951C21.9464 53.3374 20.8054 51.6651 20.509 51.2475C19.8975 50.3843 20.2946 49.18 21.2976 48.8463C21.5716 48.7549 21.8401 48.658 22.103 48.5536C24.0269 47.7948 25.6694 46.6911 26.9837 45.2705C29.2992 42.7705 30.5744 39.2749 30.5744 35.4288C30.5744 33.6521 30.3004 31.8643 29.7877 30.2013C30.1866 30.2628 30.5707 30.3094 30.9007 30.3299C31.0312 30.3374 31.1505 30.343 31.2605 30.343C31.6669 30.343 31.9242 30.2703 32.0621 30.0354C32.1367 29.9179 32.1535 29.7725 32.1106 29.6383ZM21.3815 54.1204H15.095C14.6364 53.6506 14.01 52.7539 13.7043 52.4108C12.7963 51.3948 13.5197 49.7915 14.8825 49.7933C14.8918 49.7933 14.9011 49.7933 14.9105 49.7933C16.2397 49.7933 17.5037 49.6927 18.6931 49.4913C18.4359 51.0163 20.0168 52.765 21.3815 54.1204ZM26.2865 44.6217C24.5844 46.4581 22.349 47.7016 19.6104 48.3354C19.2897 48.41 18.9635 48.4771 18.6279 48.5349C17.4701 48.7363 16.2285 48.8369 14.9067 48.8369C14.0957 48.8369 13.309 48.7997 12.5503 48.7269C12.1923 48.6934 11.8399 48.6505 11.4932 48.6002C6.70934 47.9104 3.12801 45.7403 1.62351 42.5057C0.773383 40.6769 0.743563 38.7566 1.49302 37.1197C1.6142 37.7555 1.88641 38.298 2.30774 38.7398C3.06465 39.5359 4.14033 39.8174 4.93639 39.9125C4.50387 40.5053 4.04152 41.3778 4.09745 42.3473C4.15338 43.3037 4.68658 44.1445 5.68585 44.8454C6.25819 45.2481 7.01695 45.4532 7.90623 45.4532C8.14859 45.4532 8.40215 45.4383 8.66501 45.4066C9.77055 45.2761 11.0084 44.8734 12.2407 44.2433C13.9857 43.3521 15.591 42.0714 16.7562 40.6414C18.1059 38.9841 18.833 37.1794 18.8572 35.4232C18.8609 35.1585 18.6503 34.9422 18.3856 34.9385C18.3837 34.9385 18.3818 34.9385 18.3781 34.9385C18.1171 34.9385 17.9027 35.1492 17.899 35.4102C17.8523 38.7976 14.8042 41.8588 11.8045 43.3932C9.50956 44.5658 7.32457 44.8287 6.23581 44.0643C5.49009 43.5404 5.09302 42.9457 5.05387 42.2988C4.97743 41.0162 6.2675 39.8416 6.27869 39.8305C6.43156 39.6944 6.48006 39.4744 6.39989 39.2861C6.31973 39.0978 6.12769 38.9803 5.92262 38.9971C5.90398 38.999 3.9968 39.1351 2.99939 38.0817C2.84838 37.9214 2.72348 37.7406 2.62653 37.5374C2.19215 36.622 2.46617 35.5239 3.25105 34.8844C4.75741 33.6596 6.8529 33.0313 9.3548 33.0313C10.9283 33.0313 12.6603 33.2793 14.5096 33.7826C14.862 33.8777 15.1864 33.5608 15.1006 33.2066C15.0876 33.1525 13.8236 27.8523 16.1409 24.8955C17.1775 23.5737 18.8106 22.9025 20.99 22.9025C23.587 22.9025 25.7552 24.5412 27.269 26.9406C27.0714 27.0842 26.8905 27.2296 26.7339 27.375C26.1877 27.8839 26.005 28.3631 26.1877 28.7956C26.3126 29.0939 26.6631 29.4873 28.2645 29.8955C28.41 29.9328 28.5609 29.9682 28.7157 30.0018C29.3048 31.7226 29.6236 33.5981 29.6236 35.4325C29.6217 39.0363 28.4379 42.3007 26.2865 44.6217Z" fill="#32691A"/>
<path d="M22.3311 26.8044C21.2554 26.8044 20.3792 27.6807 20.3792 28.7564C20.3792 29.8321 21.2554 28.3816 22.3311 28.3816C23.4068 28.3816 24.283 29.8321 24.283 28.7564C24.283 27.6807 23.4086 26.8044 22.3311 26.8044Z" fill="#32691A"/>
<path d="M36.6826 25C36.463 25 36.2438 24.9295 36.0614 24.7885C35.6954 24.5065 35.568 24.013 35.752 23.591L40.4614 12.7692C39.0696 11.5396 37.9941 10.1005 37.3039 8.54371C36.229 8.7557 35.1248 8.86267 34.0092 8.86267C26.8355 8.86267 21 4.44047 21 -0.993927C21 -6.4287 26.8359 -10.851 34.0092 -10.851C34.6156 -10.851 35.221 -10.819 35.8209 -10.7554C35.8129 -10.8846 35.809 -11.0142 35.809 -11.1429C35.809 -16.6704 42.4991 -21 51.0382 -21C59.1117 -21 65.5312 -17.1305 66.2103 -12.0387C67.8089 -12.4588 69.4743 -12.6712 71.178 -12.6712C79.902 -12.6712 87 -7.02443 87 -0.0824776C87 6.85948 79.9028 12.5073 71.178 12.5073C69.099 12.5073 67.086 12.1942 65.183 11.575C62.2205 14.9436 57.4358 16.934 52.2208 16.934C50.8112 16.934 49.4104 16.7851 48.0485 16.4917L37.303 24.7889C37.12 24.9284 36.9003 24.9999 36.6817 24.9999L36.6826 25Z" fill="white"/>
</svg>
