<svg width="110" height="101" viewBox="0 0 110 101" fill="none" xmlns="http://www.w3.org/2000/svg">
<rect width="78.4499" height="43.4102" rx="21.7051" transform="matrix(0.870475 -0.492213 0.507828 0.861459 0 50.6747)" fill="#6A55BF"/>
<rect width="78.4499" height="43.4102" rx="21.7051" transform="matrix(0.870475 -0.492213 0.507828 0.861459 19.6665 49.8362)" fill="#6A55BF"/>
<path d="M44.4717 56.156C44.3117 56.156 44.1677 56.1 44.0397 55.988C43.9277 55.876 43.8717 55.732 43.8717 55.556V43.628L40.4157 46.292C40.2717 46.404 40.1197 46.444 39.9597 46.412C39.8157 46.38 39.6877 46.292 39.5757 46.148L38.3757 44.588C38.2797 44.444 38.2397 44.292 38.2557 44.132C38.2877 43.972 38.3757 43.844 38.5197 43.748L43.9917 39.524C44.0877 39.46 44.1757 39.42 44.2557 39.404C44.3517 39.372 44.4557 39.356 44.5677 39.356H47.1118C47.2717 39.356 47.4077 39.412 47.5197 39.524C47.6317 39.636 47.6877 39.78 47.6877 39.956V55.556C47.6877 55.732 47.6317 55.876 47.5197 55.988C47.4077 56.1 47.2717 56.156 47.1118 56.156H44.4717ZM51.0121 56.156C50.6601 56.156 50.4841 55.996 50.4841 55.676C50.4841 55.58 50.5161 55.492 50.5801 55.412L62.4361 39.812C62.5481 39.668 62.6601 39.556 62.7721 39.476C62.8841 39.396 63.0441 39.356 63.2521 39.356H64.7401C65.0921 39.356 65.2681 39.516 65.2681 39.836C65.2681 39.932 65.2361 40.02 65.1721 40.1L53.3161 55.7C53.2041 55.844 53.0921 55.956 52.9801 56.036C52.8841 56.116 52.7241 56.156 52.5001 56.156H51.0121ZM62.8201 56.276C61.7321 56.276 60.8681 55.988 60.2281 55.412C59.6041 54.836 59.2601 54.068 59.1961 53.108C59.1641 52.692 59.1481 52.324 59.1481 52.004C59.1641 51.684 59.1801 51.3 59.1961 50.852C59.2441 49.892 59.5721 49.116 60.1801 48.524C60.8041 47.932 61.6841 47.636 62.8201 47.636C63.9561 47.636 64.8281 47.932 65.4361 48.524C66.0601 49.116 66.3961 49.892 66.4441 50.852C66.4761 51.3 66.4921 51.684 66.4921 52.004C66.4921 52.324 66.4761 52.692 66.4441 53.108C66.3961 54.068 66.0441 54.836 65.3881 55.412C64.7481 55.988 63.8921 56.276 62.8201 56.276ZM62.8201 54.308C63.1241 54.308 63.3641 54.244 63.5401 54.116C63.7161 53.988 63.8441 53.82 63.9241 53.612C64.0201 53.404 64.0761 53.188 64.0921 52.964C64.1241 52.596 64.1401 52.268 64.1401 51.98C64.1401 51.676 64.1241 51.34 64.0921 50.972C64.0761 50.636 63.9721 50.332 63.7801 50.06C63.5881 49.788 63.2681 49.652 62.8201 49.652C62.3721 49.652 62.0521 49.788 61.8601 50.06C61.6841 50.332 61.5801 50.636 61.5481 50.972C61.5321 51.34 61.5241 51.676 61.5241 51.98C61.5241 52.268 61.5321 52.596 61.5481 52.964C61.5801 53.188 61.6281 53.404 61.6921 53.612C61.7721 53.82 61.9001 53.988 62.0761 54.116C62.2681 54.244 62.5161 54.308 62.8201 54.308ZM52.9561 47.828C51.8681 47.828 51.0041 47.548 50.3641 46.988C49.7401 46.412 49.3961 45.644 49.3321 44.684C49.3001 44.268 49.2841 43.908 49.2841 43.604C49.3001 43.284 49.3161 42.9 49.3321 42.452C49.3801 41.476 49.7081 40.7 50.3161 40.124C50.9401 39.532 51.8201 39.236 52.9561 39.236C54.1081 39.236 54.9881 39.532 55.5961 40.124C56.2041 40.7 56.5321 41.476 56.5801 42.452C56.6121 42.9 56.6281 43.284 56.6281 43.604C56.6281 43.908 56.6121 44.268 56.5801 44.684C56.5321 45.644 56.1881 46.412 55.5481 46.988C54.9081 47.548 54.0441 47.828 52.9561 47.828ZM52.9561 45.884C53.2601 45.884 53.5001 45.82 53.6761 45.692C53.8521 45.564 53.9801 45.396 54.0601 45.188C54.1561 44.98 54.2121 44.772 54.2281 44.564C54.2601 44.18 54.2761 43.844 54.2761 43.556C54.2761 43.252 54.2601 42.924 54.2281 42.572C54.2121 42.236 54.1081 41.932 53.9161 41.66C53.7241 41.372 53.4041 41.228 52.9561 41.228C52.5081 41.228 52.1881 41.372 51.9961 41.66C51.8201 41.932 51.7161 42.236 51.6841 42.572C51.6681 42.924 51.6601 43.252 51.6601 43.556C51.6601 43.844 51.6681 44.18 51.6841 44.564C51.7161 44.772 51.7721 44.98 51.8521 45.188C51.9321 45.396 52.0601 45.564 52.2361 45.692C52.4121 45.82 52.6521 45.884 52.9561 45.884Z" fill="white"/>
</svg>
