<svg width="110" height="101" viewBox="0 0 110 101" fill="none" xmlns="http://www.w3.org/2000/svg">
<rect width="78.4499" height="43.4102" rx="21.7051" transform="matrix(0.870475 -0.492213 0.507828 0.861459 0 50.6747)" fill="#EC6623"/>
<rect width="78.4499" height="43.4102" rx="21.7051" transform="matrix(0.870475 -0.492213 0.507828 0.861459 19.6664 49.8362)" fill="#EC6623"/>
<path d="M40.3151 56.156C40.1711 56.156 40.0511 56.108 39.9551 56.012C39.8591 55.9 39.8111 55.772 39.8111 55.628C39.8111 55.548 39.8191 55.484 39.8351 55.436C39.8671 55.388 39.8911 55.348 39.9071 55.316L43.3871 50.564C43.0991 50.628 42.8111 50.652 42.5231 50.636C41.7551 50.604 41.0271 50.452 40.3391 50.18C39.6511 49.892 39.0351 49.5 38.4911 49.004C37.9471 48.508 37.5231 47.924 37.2191 47.252C36.9151 46.58 36.7631 45.836 36.7631 45.02C36.7631 44.284 36.8991 43.564 37.1711 42.86C37.4591 42.156 37.8831 41.524 38.4431 40.964C39.0031 40.404 39.6991 39.956 40.5311 39.62C41.3631 39.284 42.3311 39.116 43.4351 39.116C44.5391 39.116 45.5071 39.268 46.3391 39.572C47.1871 39.876 47.8991 40.3 48.4751 40.844C49.0511 41.372 49.4831 41.988 49.7711 42.692C50.0591 43.38 50.2031 44.116 50.2031 44.9C50.2031 45.604 50.0831 46.26 49.8431 46.868C49.6031 47.476 49.3071 48.044 48.9551 48.572C48.6031 49.1 48.2511 49.612 47.8991 50.108L43.8671 55.676C43.8031 55.756 43.7071 55.86 43.5791 55.988C43.4511 56.1 43.2671 56.156 43.0271 56.156H40.3151ZM43.4591 47.804C43.9871 47.804 44.4671 47.692 44.8991 47.468C45.3311 47.244 45.6671 46.924 45.9071 46.508C46.1631 46.092 46.2911 45.596 46.2911 45.02C46.2911 44.428 46.1631 43.924 45.9071 43.508C45.6671 43.092 45.3311 42.772 44.8991 42.548C44.4671 42.324 43.9871 42.212 43.4591 42.212C42.9471 42.212 42.4751 42.324 42.0431 42.548C41.6111 42.772 41.2671 43.092 41.0111 43.508C40.7711 43.924 40.6511 44.428 40.6511 45.02C40.6511 45.596 40.7711 46.092 41.0111 46.508C41.2671 46.924 41.6111 47.244 42.0431 47.468C42.4751 47.692 42.9471 47.804 43.4591 47.804ZM52.8168 56.156C52.4648 56.156 52.2888 55.996 52.2888 55.676C52.2888 55.58 52.3208 55.492 52.3848 55.412L64.2408 39.812C64.3528 39.668 64.4648 39.556 64.5768 39.476C64.6888 39.396 64.8488 39.356 65.0568 39.356H66.5448C66.8968 39.356 67.0728 39.516 67.0728 39.836C67.0728 39.932 67.0408 40.02 66.9768 40.1L55.1208 55.7C55.0088 55.844 54.8968 55.956 54.7848 56.036C54.6888 56.116 54.5288 56.156 54.3048 56.156H52.8168ZM64.6248 56.276C63.5368 56.276 62.6728 55.988 62.0328 55.412C61.4088 54.836 61.0648 54.068 61.0008 53.108C60.9688 52.692 60.9528 52.324 60.9528 52.004C60.9688 51.684 60.9848 51.3 61.0008 50.852C61.0488 49.892 61.3768 49.116 61.9848 48.524C62.6088 47.932 63.4888 47.636 64.6248 47.636C65.7608 47.636 66.6328 47.932 67.2408 48.524C67.8648 49.116 68.2008 49.892 68.2488 50.852C68.2808 51.3 68.2968 51.684 68.2968 52.004C68.2968 52.324 68.2808 52.692 68.2488 53.108C68.2008 54.068 67.8488 54.836 67.1928 55.412C66.5528 55.988 65.6968 56.276 64.6248 56.276ZM64.6248 54.308C64.9288 54.308 65.1688 54.244 65.3448 54.116C65.5208 53.988 65.6488 53.82 65.7288 53.612C65.8248 53.404 65.8808 53.188 65.8968 52.964C65.9288 52.596 65.9448 52.268 65.9448 51.98C65.9448 51.676 65.9288 51.34 65.8968 50.972C65.8808 50.636 65.7768 50.332 65.5848 50.06C65.3928 49.788 65.0728 49.652 64.6248 49.652C64.1768 49.652 63.8568 49.788 63.6648 50.06C63.4888 50.332 63.3848 50.636 63.3528 50.972C63.3368 51.34 63.3288 51.676 63.3288 51.98C63.3288 52.268 63.3368 52.596 63.3528 52.964C63.3848 53.188 63.4328 53.404 63.4968 53.612C63.5768 53.82 63.7048 53.988 63.8808 54.116C64.0728 54.244 64.3208 54.308 64.6248 54.308ZM54.7608 47.828C53.6728 47.828 52.8088 47.548 52.1688 46.988C51.5448 46.412 51.2008 45.644 51.1368 44.684C51.1048 44.268 51.0888 43.908 51.0888 43.604C51.1048 43.284 51.1208 42.9 51.1368 42.452C51.1848 41.476 51.5128 40.7 52.1208 40.124C52.7448 39.532 53.6248 39.236 54.7608 39.236C55.9128 39.236 56.7928 39.532 57.4008 40.124C58.0088 40.7 58.3368 41.476 58.3848 42.452C58.4168 42.9 58.4328 43.284 58.4328 43.604C58.4328 43.908 58.4168 44.268 58.3848 44.684C58.3368 45.644 57.9928 46.412 57.3528 46.988C56.7128 47.548 55.8488 47.828 54.7608 47.828ZM54.7608 45.884C55.0648 45.884 55.3048 45.82 55.4808 45.692C55.6568 45.564 55.7848 45.396 55.8648 45.188C55.9608 44.98 56.0168 44.772 56.0328 44.564C56.0648 44.18 56.0808 43.844 56.0808 43.556C56.0808 43.252 56.0648 42.924 56.0328 42.572C56.0168 42.236 55.9128 41.932 55.7208 41.66C55.5288 41.372 55.2088 41.228 54.7608 41.228C54.3128 41.228 53.9928 41.372 53.8008 41.66C53.6248 41.932 53.5208 42.236 53.4888 42.572C53.4728 42.924 53.4648 43.252 53.4648 43.556C53.4648 43.844 53.4728 44.18 53.4888 44.564C53.5208 44.772 53.5768 44.98 53.6568 45.188C53.7368 45.396 53.8648 45.564 54.0408 45.692C54.2168 45.82 54.4568 45.884 54.7608 45.884Z" fill="white"/>
</svg>
