<svg width="110" height="101" viewBox="0 0 110 101" fill="none" xmlns="http://www.w3.org/2000/svg">
<rect width="78.4499" height="43.4102" rx="21.7051" transform="matrix(0.870475 -0.492213 0.507828 0.861459 0 50.6747)" fill="#11936C"/>
<rect width="78.4499" height="43.4102" rx="21.7051" transform="matrix(0.870475 -0.492213 0.507828 0.861459 19.6664 49.8362)" fill="#11936C"/>
<path d="M45.47 56.156C45.31 56.156 45.174 56.1 45.062 55.988C44.95 55.876 44.894 55.732 44.894 55.556V52.676H37.334C37.174 52.676 37.038 52.62 36.926 52.508C36.814 52.396 36.758 52.252 36.758 52.076V50.132C36.758 50.02 36.782 49.9 36.83 49.772C36.878 49.644 36.942 49.524 37.022 49.412L44.054 39.764C44.262 39.492 44.558 39.356 44.942 39.356H47.99C48.15 39.356 48.286 39.412 48.398 39.524C48.51 39.636 48.566 39.78 48.566 39.956V49.484H50.702C50.894 49.484 51.038 49.54 51.134 49.652C51.246 49.764 51.302 49.9 51.302 50.06V52.076C51.302 52.252 51.246 52.396 51.134 52.508C51.022 52.62 50.886 52.676 50.726 52.676H48.566V55.556C48.566 55.732 48.51 55.876 48.398 55.988C48.286 56.1 48.15 56.156 47.99 56.156H45.47ZM40.478 49.604H44.966V43.292L40.478 49.604ZM53.7738 56.156C53.4218 56.156 53.2458 55.996 53.2458 55.676C53.2458 55.58 53.2778 55.492 53.3418 55.412L65.1978 39.812C65.3098 39.668 65.4218 39.556 65.5338 39.476C65.6458 39.396 65.8058 39.356 66.0138 39.356H67.5018C67.8538 39.356 68.0298 39.516 68.0298 39.836C68.0298 39.932 67.9978 40.02 67.9338 40.1L56.0778 55.7C55.9658 55.844 55.8538 55.956 55.7418 56.036C55.6458 56.116 55.4858 56.156 55.2618 56.156H53.7738ZM65.5818 56.276C64.4938 56.276 63.6298 55.988 62.9898 55.412C62.3658 54.836 62.0218 54.068 61.9578 53.108C61.9258 52.692 61.9098 52.324 61.9098 52.004C61.9258 51.684 61.9418 51.3 61.9578 50.852C62.0058 49.892 62.3338 49.116 62.9418 48.524C63.5658 47.932 64.4458 47.636 65.5818 47.636C66.7178 47.636 67.5898 47.932 68.1978 48.524C68.8218 49.116 69.1578 49.892 69.2058 50.852C69.2378 51.3 69.2538 51.684 69.2538 52.004C69.2538 52.324 69.2378 52.692 69.2058 53.108C69.1578 54.068 68.8058 54.836 68.1498 55.412C67.5098 55.988 66.6538 56.276 65.5818 56.276ZM65.5818 54.308C65.8858 54.308 66.1258 54.244 66.3018 54.116C66.4778 53.988 66.6058 53.82 66.6858 53.612C66.7818 53.404 66.8378 53.188 66.8538 52.964C66.8858 52.596 66.9018 52.268 66.9018 51.98C66.9018 51.676 66.8858 51.34 66.8538 50.972C66.8378 50.636 66.7338 50.332 66.5418 50.06C66.3498 49.788 66.0298 49.652 65.5818 49.652C65.1338 49.652 64.8138 49.788 64.6218 50.06C64.4458 50.332 64.3418 50.636 64.3098 50.972C64.2938 51.34 64.2858 51.676 64.2858 51.98C64.2858 52.268 64.2938 52.596 64.3098 52.964C64.3418 53.188 64.3898 53.404 64.4538 53.612C64.5338 53.82 64.6618 53.988 64.8378 54.116C65.0298 54.244 65.2778 54.308 65.5818 54.308ZM55.7178 47.828C54.6298 47.828 53.7658 47.548 53.1258 46.988C52.5018 46.412 52.1578 45.644 52.0938 44.684C52.0618 44.268 52.0458 43.908 52.0458 43.604C52.0618 43.284 52.0778 42.9 52.0938 42.452C52.1418 41.476 52.4698 40.7 53.0778 40.124C53.7018 39.532 54.5818 39.236 55.7178 39.236C56.8698 39.236 57.7498 39.532 58.3578 40.124C58.9658 40.7 59.2938 41.476 59.3418 42.452C59.3738 42.9 59.3898 43.284 59.3898 43.604C59.3898 43.908 59.3738 44.268 59.3418 44.684C59.2938 45.644 58.9498 46.412 58.3098 46.988C57.6698 47.548 56.8058 47.828 55.7178 47.828ZM55.7178 45.884C56.0218 45.884 56.2618 45.82 56.4378 45.692C56.6138 45.564 56.7418 45.396 56.8218 45.188C56.9178 44.98 56.9738 44.772 56.9898 44.564C57.0218 44.18 57.0378 43.844 57.0378 43.556C57.0378 43.252 57.0218 42.924 56.9898 42.572C56.9738 42.236 56.8698 41.932 56.6778 41.66C56.4858 41.372 56.1658 41.228 55.7178 41.228C55.2698 41.228 54.9498 41.372 54.7578 41.66C54.5818 41.932 54.4778 42.236 54.4458 42.572C54.4298 42.924 54.4218 43.252 54.4218 43.556C54.4218 43.844 54.4298 44.18 54.4458 44.564C54.4778 44.772 54.5338 44.98 54.6138 45.188C54.6938 45.396 54.8218 45.564 54.9978 45.692C55.1738 45.82 55.4138 45.884 55.7178 45.884Z" fill="white"/>
</svg>
