<svg width="110" height="101" viewBox="0 0 110 101" fill="none" xmlns="http://www.w3.org/2000/svg">
<rect width="78.4499" height="43.4102" rx="21.7051" transform="matrix(0.870475 -0.492213 0.507828 0.861459 0 50.6747)" fill="#92DC64"/>
<rect width="78.4499" height="43.4102" rx="21.7051" transform="matrix(0.870475 -0.492213 0.507828 0.861459 19.6664 49.8362)" fill="#92DC64"/>
<path d="M43.4959 56.42C42.0559 56.42 40.8479 56.188 39.8719 55.724C38.8959 55.26 38.1519 54.652 37.6399 53.9C37.1439 53.148 36.8799 52.348 36.8479 51.5C36.8479 51.356 36.8959 51.236 36.9919 51.14C37.0879 51.044 37.2079 50.996 37.3519 50.996H40.0639C40.2559 50.996 40.4079 51.044 40.5199 51.14C40.6479 51.22 40.7439 51.332 40.8079 51.476C40.9679 51.908 41.1759 52.26 41.4319 52.532C41.7039 52.804 42.0159 53.004 42.3679 53.132C42.7199 53.26 43.0959 53.324 43.4959 53.324C44.0079 53.324 44.4799 53.22 44.9119 53.012C45.3439 52.788 45.6879 52.468 45.9439 52.052C46.1999 51.636 46.3279 51.124 46.3279 50.516C46.3279 49.988 46.2079 49.524 45.9679 49.124C45.7279 48.724 45.3919 48.412 44.9599 48.188C44.5279 47.964 44.0399 47.852 43.4959 47.852C43.0799 47.852 42.7359 47.9 42.4639 47.996C42.2079 48.092 41.9919 48.212 41.8159 48.356C41.6399 48.484 41.4799 48.604 41.3359 48.716C41.1919 48.812 41.0319 48.86 40.8559 48.86H38.1919C38.0479 48.86 37.9199 48.812 37.8079 48.716C37.7119 48.604 37.6639 48.476 37.6639 48.332L38.5039 40.052C38.5359 39.828 38.6159 39.66 38.7439 39.548C38.8879 39.42 39.0559 39.356 39.2479 39.356H48.5599C48.7359 39.356 48.8799 39.412 48.9919 39.524C49.1039 39.636 49.1599 39.78 49.1599 39.956V41.876C49.1599 42.036 49.1039 42.172 48.9919 42.284C48.8799 42.396 48.7359 42.452 48.5599 42.452H41.6239L41.2639 45.98C41.5839 45.772 41.9759 45.588 42.4399 45.428C42.9199 45.252 43.5839 45.164 44.4319 45.164C45.1999 45.164 45.9279 45.292 46.6159 45.548C47.3199 45.788 47.9439 46.148 48.4879 46.628C49.0319 47.108 49.4559 47.684 49.7599 48.356C50.0799 49.012 50.2399 49.764 50.2399 50.612C50.2399 51.764 49.9679 52.78 49.4239 53.66C48.8799 54.524 48.1039 55.204 47.0959 55.7C46.0879 56.18 44.8879 56.42 43.4959 56.42ZM52.852 56.156C52.5 56.156 52.324 55.996 52.324 55.676C52.324 55.58 52.356 55.492 52.42 55.412L64.276 39.812C64.388 39.668 64.5 39.556 64.612 39.476C64.724 39.396 64.884 39.356 65.092 39.356H66.58C66.932 39.356 67.108 39.516 67.108 39.836C67.108 39.932 67.076 40.02 67.012 40.1L55.156 55.7C55.044 55.844 54.932 55.956 54.82 56.036C54.724 56.116 54.564 56.156 54.34 56.156H52.852ZM64.66 56.276C63.572 56.276 62.708 55.988 62.068 55.412C61.444 54.836 61.1 54.068 61.036 53.108C61.004 52.692 60.988 52.324 60.988 52.004C61.004 51.684 61.02 51.3 61.036 50.852C61.084 49.892 61.412 49.116 62.02 48.524C62.644 47.932 63.524 47.636 64.66 47.636C65.796 47.636 66.668 47.932 67.276 48.524C67.9 49.116 68.236 49.892 68.284 50.852C68.316 51.3 68.332 51.684 68.332 52.004C68.332 52.324 68.316 52.692 68.284 53.108C68.236 54.068 67.884 54.836 67.228 55.412C66.588 55.988 65.732 56.276 64.66 56.276ZM64.66 54.308C64.964 54.308 65.204 54.244 65.38 54.116C65.556 53.988 65.684 53.82 65.764 53.612C65.86 53.404 65.916 53.188 65.932 52.964C65.964 52.596 65.98 52.268 65.98 51.98C65.98 51.676 65.964 51.34 65.932 50.972C65.916 50.636 65.812 50.332 65.62 50.06C65.428 49.788 65.108 49.652 64.66 49.652C64.212 49.652 63.892 49.788 63.7 50.06C63.524 50.332 63.42 50.636 63.388 50.972C63.372 51.34 63.364 51.676 63.364 51.98C63.364 52.268 63.372 52.596 63.388 52.964C63.42 53.188 63.468 53.404 63.532 53.612C63.612 53.82 63.74 53.988 63.916 54.116C64.108 54.244 64.356 54.308 64.66 54.308ZM54.796 47.828C53.708 47.828 52.844 47.548 52.204 46.988C51.58 46.412 51.236 45.644 51.172 44.684C51.14 44.268 51.124 43.908 51.124 43.604C51.14 43.284 51.156 42.9 51.172 42.452C51.22 41.476 51.548 40.7 52.156 40.124C52.78 39.532 53.66 39.236 54.796 39.236C55.948 39.236 56.828 39.532 57.436 40.124C58.044 40.7 58.372 41.476 58.42 42.452C58.452 42.9 58.468 43.284 58.468 43.604C58.468 43.908 58.452 44.268 58.42 44.684C58.372 45.644 58.028 46.412 57.388 46.988C56.748 47.548 55.884 47.828 54.796 47.828ZM54.796 45.884C55.1 45.884 55.34 45.82 55.516 45.692C55.692 45.564 55.82 45.396 55.9 45.188C55.996 44.98 56.052 44.772 56.068 44.564C56.1 44.18 56.116 43.844 56.116 43.556C56.116 43.252 56.1 42.924 56.068 42.572C56.052 42.236 55.948 41.932 55.756 41.66C55.564 41.372 55.244 41.228 54.796 41.228C54.348 41.228 54.028 41.372 53.836 41.66C53.66 41.932 53.556 42.236 53.524 42.572C53.508 42.924 53.5 43.252 53.5 43.556C53.5 43.844 53.508 44.18 53.524 44.564C53.556 44.772 53.612 44.98 53.692 45.188C53.772 45.396 53.9 45.564 54.076 45.692C54.252 45.82 54.492 45.884 54.796 45.884Z" fill="white"/>
</svg>
