<svg width="110" height="101" viewBox="0 0 110 101" fill="none" xmlns="http://www.w3.org/2000/svg">
<rect width="78.4499" height="43.4102" rx="21.7051" transform="matrix(0.870475 -0.492213 0.507828 0.861459 0 50.6747)" fill="#558CBF"/>
<rect width="78.4499" height="43.4102" rx="21.7051" transform="matrix(0.870475 -0.492213 0.507828 0.861459 19.6665 49.8362)" fill="#558CBF"/>
<path d="M37.5925 56.156C37.4165 56.156 37.2725 56.1 37.1605 55.988C37.0485 55.876 36.9925 55.732 36.9925 55.556V54.116C36.9925 53.988 37.0245 53.82 37.0885 53.612C37.1685 53.388 37.3365 53.172 37.5925 52.964L40.7605 49.82C41.9285 48.924 42.8725 48.164 43.5925 47.54C44.3285 46.916 44.8725 46.348 45.2245 45.836C45.5765 45.324 45.7525 44.828 45.7525 44.348C45.7525 43.724 45.5765 43.212 45.2245 42.812C44.8885 42.396 44.3365 42.188 43.5685 42.188C43.0565 42.188 42.6245 42.3 42.2725 42.524C41.9365 42.732 41.6725 43.012 41.4805 43.364C41.2885 43.716 41.1605 44.1 41.0965 44.516C41.0485 44.724 40.9445 44.868 40.7845 44.948C40.6405 45.028 40.4885 45.068 40.3285 45.068H37.7845C37.6245 45.068 37.4965 45.02 37.4005 44.924C37.3045 44.812 37.2565 44.692 37.2565 44.564C37.2725 43.828 37.4245 43.132 37.7125 42.476C38.0165 41.82 38.4405 41.236 38.9845 40.724C39.5285 40.212 40.1845 39.812 40.9525 39.524C41.7205 39.22 42.5925 39.068 43.5685 39.068C44.9125 39.068 46.0405 39.292 46.9525 39.74C47.8645 40.172 48.5525 40.772 49.0165 41.54C49.4805 42.308 49.7125 43.196 49.7125 44.204C49.7125 44.972 49.5525 45.684 49.2325 46.34C48.9285 46.996 48.4805 47.628 47.8885 48.236C47.2965 48.828 46.5925 49.444 45.7765 50.084L42.9445 52.916H49.4725C49.6485 52.916 49.7925 52.972 49.9045 53.084C50.0165 53.196 50.0725 53.34 50.0725 53.516V55.556C50.0725 55.732 50.0165 55.876 49.9045 55.988C49.7925 56.1 49.6485 56.156 49.4725 56.156H37.5925ZM52.8754 56.156C52.5234 56.156 52.3474 55.996 52.3474 55.676C52.3474 55.58 52.3794 55.492 52.4434 55.412L64.2994 39.812C64.4114 39.668 64.5234 39.556 64.6354 39.476C64.7474 39.396 64.9074 39.356 65.1154 39.356H66.6034C66.9554 39.356 67.1314 39.516 67.1314 39.836C67.1314 39.932 67.0994 40.02 67.0354 40.1L55.1794 55.7C55.0674 55.844 54.9554 55.956 54.8434 56.036C54.7474 56.116 54.5874 56.156 54.3634 56.156H52.8754ZM64.6834 56.276C63.5954 56.276 62.7314 55.988 62.0914 55.412C61.4674 54.836 61.1234 54.068 61.0594 53.108C61.0274 52.692 61.0114 52.324 61.0114 52.004C61.0274 51.684 61.0434 51.3 61.0594 50.852C61.1074 49.892 61.4354 49.116 62.0434 48.524C62.6674 47.932 63.5474 47.636 64.6834 47.636C65.8194 47.636 66.6914 47.932 67.2994 48.524C67.9234 49.116 68.2594 49.892 68.3074 50.852C68.3394 51.3 68.3554 51.684 68.3554 52.004C68.3554 52.324 68.3394 52.692 68.3074 53.108C68.2594 54.068 67.9074 54.836 67.2514 55.412C66.6114 55.988 65.7554 56.276 64.6834 56.276ZM64.6834 54.308C64.9874 54.308 65.2274 54.244 65.4034 54.116C65.5794 53.988 65.7074 53.82 65.7874 53.612C65.8834 53.404 65.9394 53.188 65.9554 52.964C65.9874 52.596 66.0034 52.268 66.0034 51.98C66.0034 51.676 65.9874 51.34 65.9554 50.972C65.9394 50.636 65.8354 50.332 65.6434 50.06C65.4514 49.788 65.1314 49.652 64.6834 49.652C64.2354 49.652 63.9154 49.788 63.7234 50.06C63.5474 50.332 63.4434 50.636 63.4114 50.972C63.3954 51.34 63.3874 51.676 63.3874 51.98C63.3874 52.268 63.3954 52.596 63.4114 52.964C63.4434 53.188 63.4914 53.404 63.5554 53.612C63.6354 53.82 63.7634 53.988 63.9394 54.116C64.1314 54.244 64.3794 54.308 64.6834 54.308ZM54.8194 47.828C53.7314 47.828 52.8674 47.548 52.2274 46.988C51.6034 46.412 51.2594 45.644 51.1954 44.684C51.1634 44.268 51.1474 43.908 51.1474 43.604C51.1634 43.284 51.1794 42.9 51.1954 42.452C51.2434 41.476 51.5714 40.7 52.1794 40.124C52.8034 39.532 53.6834 39.236 54.8194 39.236C55.9714 39.236 56.8514 39.532 57.4594 40.124C58.0674 40.7 58.3954 41.476 58.4434 42.452C58.4754 42.9 58.4914 43.284 58.4914 43.604C58.4914 43.908 58.4754 44.268 58.4434 44.684C58.3954 45.644 58.0514 46.412 57.4114 46.988C56.7714 47.548 55.9074 47.828 54.8194 47.828ZM54.8194 45.884C55.1234 45.884 55.3634 45.82 55.5394 45.692C55.7154 45.564 55.8434 45.396 55.9234 45.188C56.0194 44.98 56.0754 44.772 56.0914 44.564C56.1234 44.18 56.1394 43.844 56.1394 43.556C56.1394 43.252 56.1234 42.924 56.0914 42.572C56.0754 42.236 55.9714 41.932 55.7794 41.66C55.5874 41.372 55.2674 41.228 54.8194 41.228C54.3714 41.228 54.0514 41.372 53.8594 41.66C53.6834 41.932 53.5794 42.236 53.5474 42.572C53.5314 42.924 53.5234 43.252 53.5234 43.556C53.5234 43.844 53.5314 44.18 53.5474 44.564C53.5794 44.772 53.6354 44.98 53.7154 45.188C53.7954 45.396 53.9234 45.564 54.0994 45.692C54.2754 45.82 54.5154 45.884 54.8194 45.884Z" fill="white"/>
</svg>
