<svg width="110" height="101" viewBox="0 0 110 101" fill="none" xmlns="http://www.w3.org/2000/svg">
<rect width="78.4499" height="43.4102" rx="21.7051" transform="matrix(0.870475 -0.492213 0.507828 0.861459 0 50.6747)" fill="#55B9BF"/>
<rect width="78.4499" height="43.4102" rx="21.7051" transform="matrix(0.870475 -0.492213 0.507828 0.861459 19.6665 49.8362)" fill="#55B9BF"/>
<path d="M43.4753 56.396C42.2913 56.396 41.2753 56.252 40.4273 55.964C39.5793 55.676 38.8833 55.308 38.3393 54.86C37.7953 54.412 37.3873 53.924 37.1153 53.396C36.8433 52.852 36.6993 52.332 36.6833 51.836C36.6833 51.692 36.7313 51.572 36.8273 51.476C36.9233 51.38 37.0433 51.332 37.1873 51.332H39.8273C40.0033 51.332 40.1473 51.372 40.2593 51.452C40.3713 51.516 40.4753 51.636 40.5713 51.812C40.6993 52.18 40.9073 52.476 41.1953 52.7C41.4833 52.924 41.8193 53.084 42.2033 53.18C42.6033 53.26 43.0273 53.3 43.4753 53.3C44.3713 53.3 45.0753 53.092 45.5873 52.676C46.0993 52.26 46.3553 51.676 46.3553 50.924C46.3553 50.156 46.1153 49.604 45.6353 49.268C45.1553 48.932 44.4753 48.764 43.5953 48.764H41.0273C40.8673 48.764 40.7313 48.708 40.6193 48.596C40.5073 48.484 40.4513 48.348 40.4513 48.188V47.012C40.4513 46.82 40.4833 46.66 40.5473 46.532C40.6273 46.404 40.7073 46.308 40.7873 46.244L44.9153 42.452H38.1473C37.9713 42.452 37.8273 42.396 37.7153 42.284C37.6033 42.172 37.5473 42.036 37.5473 41.876V39.956C37.5473 39.78 37.6033 39.636 37.7153 39.524C37.8273 39.412 37.9713 39.356 38.1473 39.356H48.8033C48.9793 39.356 49.1233 39.412 49.2353 39.524C49.3473 39.636 49.4033 39.78 49.4033 39.956V41.684C49.4033 41.86 49.3713 42.012 49.3073 42.14C49.2433 42.252 49.1633 42.34 49.0673 42.404L45.1553 46.268L45.3953 46.292C46.3393 46.388 47.1793 46.62 47.9153 46.988C48.6513 47.356 49.2273 47.884 49.6433 48.572C50.0753 49.244 50.2913 50.1 50.2913 51.14C50.2913 52.228 49.9953 53.164 49.4033 53.948C48.8113 54.732 48.0033 55.34 46.9793 55.772C45.9553 56.188 44.7873 56.396 43.4753 56.396ZM52.9926 56.156C52.6406 56.156 52.4646 55.996 52.4646 55.676C52.4646 55.58 52.4966 55.492 52.5606 55.412L64.4166 39.812C64.5286 39.668 64.6406 39.556 64.7526 39.476C64.8646 39.396 65.0246 39.356 65.2326 39.356H66.7206C67.0726 39.356 67.2486 39.516 67.2486 39.836C67.2486 39.932 67.2166 40.02 67.1526 40.1L55.2966 55.7C55.1846 55.844 55.0726 55.956 54.9606 56.036C54.8646 56.116 54.7046 56.156 54.4806 56.156H52.9926ZM64.8006 56.276C63.7126 56.276 62.8486 55.988 62.2086 55.412C61.5846 54.836 61.2406 54.068 61.1766 53.108C61.1446 52.692 61.1286 52.324 61.1286 52.004C61.1446 51.684 61.1606 51.3 61.1766 50.852C61.2246 49.892 61.5526 49.116 62.1606 48.524C62.7846 47.932 63.6646 47.636 64.8006 47.636C65.9366 47.636 66.8086 47.932 67.4166 48.524C68.0406 49.116 68.3766 49.892 68.4246 50.852C68.4566 51.3 68.4726 51.684 68.4726 52.004C68.4726 52.324 68.4566 52.692 68.4246 53.108C68.3766 54.068 68.0246 54.836 67.3686 55.412C66.7286 55.988 65.8726 56.276 64.8006 56.276ZM64.8006 54.308C65.1046 54.308 65.3446 54.244 65.5206 54.116C65.6966 53.988 65.8246 53.82 65.9046 53.612C66.0006 53.404 66.0566 53.188 66.0726 52.964C66.1046 52.596 66.1206 52.268 66.1206 51.98C66.1206 51.676 66.1046 51.34 66.0726 50.972C66.0566 50.636 65.9526 50.332 65.7606 50.06C65.5686 49.788 65.2486 49.652 64.8006 49.652C64.3526 49.652 64.0326 49.788 63.8406 50.06C63.6646 50.332 63.5606 50.636 63.5286 50.972C63.5126 51.34 63.5046 51.676 63.5046 51.98C63.5046 52.268 63.5126 52.596 63.5286 52.964C63.5606 53.188 63.6086 53.404 63.6726 53.612C63.7526 53.82 63.8806 53.988 64.0566 54.116C64.2486 54.244 64.4966 54.308 64.8006 54.308ZM54.9366 47.828C53.8486 47.828 52.9846 47.548 52.3446 46.988C51.7206 46.412 51.3766 45.644 51.3126 44.684C51.2806 44.268 51.2646 43.908 51.2646 43.604C51.2806 43.284 51.2966 42.9 51.3126 42.452C51.3606 41.476 51.6886 40.7 52.2966 40.124C52.9206 39.532 53.8006 39.236 54.9366 39.236C56.0886 39.236 56.9686 39.532 57.5766 40.124C58.1846 40.7 58.5126 41.476 58.5606 42.452C58.5926 42.9 58.6086 43.284 58.6086 43.604C58.6086 43.908 58.5926 44.268 58.5606 44.684C58.5126 45.644 58.1686 46.412 57.5286 46.988C56.8886 47.548 56.0246 47.828 54.9366 47.828ZM54.9366 45.884C55.2406 45.884 55.4806 45.82 55.6566 45.692C55.8326 45.564 55.9606 45.396 56.0406 45.188C56.1366 44.98 56.1926 44.772 56.2086 44.564C56.2406 44.18 56.2566 43.844 56.2566 43.556C56.2566 43.252 56.2406 42.924 56.2086 42.572C56.1926 42.236 56.0886 41.932 55.8966 41.66C55.7046 41.372 55.3846 41.228 54.9366 41.228C54.4886 41.228 54.1686 41.372 53.9766 41.66C53.8006 41.932 53.6966 42.236 53.6646 42.572C53.6486 42.924 53.6406 43.252 53.6406 43.556C53.6406 43.844 53.6486 44.18 53.6646 44.564C53.6966 44.772 53.7526 44.98 53.8326 45.188C53.9126 45.396 54.0406 45.564 54.2166 45.692C54.3926 45.82 54.6326 45.884 54.9366 45.884Z" fill="white"/>
</svg>
