<svg width="110" height="101" viewBox="0 0 110 101" fill="none" xmlns="http://www.w3.org/2000/svg">
<rect width="78.4499" height="43.4102" rx="21.7051" transform="matrix(0.870475 -0.492213 0.507828 0.861459 0 50.6747)" fill="#E94C4D"/>
<rect width="78.4499" height="43.4102" rx="21.7051" transform="matrix(0.870475 -0.492213 0.507828 0.861459 19.6664 49.8362)" fill="#E94C4D"/>
<path d="M37.4361 56.156C37.2761 56.156 37.1321 56.1 37.0041 55.988C36.8921 55.876 36.8361 55.732 36.8361 55.556V43.628L33.3801 46.292C33.2361 46.404 33.0841 46.444 32.9241 46.412C32.7801 46.38 32.6521 46.292 32.5401 46.148L31.3401 44.588C31.2441 44.444 31.2041 44.292 31.2201 44.132C31.2521 43.972 31.3401 43.844 31.4841 43.748L36.9561 39.524C37.0521 39.46 37.1401 39.42 37.2201 39.404C37.3161 39.372 37.4201 39.356 37.5321 39.356H40.0761C40.2361 39.356 40.3721 39.412 40.4841 39.524C40.5961 39.636 40.6521 39.78 40.6521 39.956V55.556C40.6521 55.732 40.5961 55.876 40.4841 55.988C40.3721 56.1 40.2361 56.156 40.0761 56.156H37.4361ZM49.3285 56.396C48.1765 56.396 47.1845 56.236 46.3525 55.916C45.5365 55.58 44.8565 55.124 44.3125 54.548C43.7845 53.956 43.3845 53.276 43.1125 52.508C42.8565 51.724 42.7045 50.892 42.6565 50.012C42.6405 49.58 42.6245 49.1 42.6085 48.572C42.6085 48.028 42.6085 47.484 42.6085 46.94C42.6245 46.396 42.6405 45.9 42.6565 45.452C42.6885 44.572 42.8405 43.748 43.1125 42.98C43.4005 42.212 43.8165 41.54 44.3605 40.964C44.9045 40.388 45.5845 39.94 46.4005 39.62C47.2325 39.284 48.2085 39.116 49.3285 39.116C50.4485 39.116 51.4165 39.284 52.2325 39.62C53.0485 39.94 53.7285 40.388 54.2725 40.964C54.8165 41.54 55.2245 42.212 55.4965 42.98C55.7845 43.748 55.9525 44.572 56.0005 45.452C56.0165 45.9 56.0245 46.396 56.0245 46.94C56.0405 47.484 56.0405 48.028 56.0245 48.572C56.0245 49.1 56.0165 49.58 56.0005 50.012C55.9525 50.892 55.7925 51.724 55.5205 52.508C55.2485 53.276 54.8405 53.956 54.2965 54.548C53.7685 55.124 53.0885 55.58 52.2565 55.916C51.4405 56.236 50.4645 56.396 49.3285 56.396ZM49.3285 53.276C50.2565 53.276 50.9365 52.972 51.3685 52.364C51.8005 51.756 52.0325 50.932 52.0645 49.892C52.0805 49.428 52.0885 48.948 52.0885 48.452C52.1045 47.956 52.1045 47.46 52.0885 46.964C52.0885 46.468 52.0805 46.004 52.0645 45.572C52.0325 44.58 51.8005 43.772 51.3685 43.148C50.9365 42.524 50.2565 42.204 49.3285 42.188C48.3845 42.204 47.6965 42.524 47.2645 43.148C46.8485 43.772 46.6245 44.58 46.5925 45.572C46.5765 46.004 46.5605 46.468 46.5445 46.964C46.5445 47.46 46.5445 47.956 46.5445 48.452C46.5605 48.948 46.5765 49.428 46.5925 49.892C46.6245 50.932 46.8565 51.756 47.2885 52.364C47.7205 52.972 48.4005 53.276 49.3285 53.276ZM59.0477 56.156C58.6957 56.156 58.5197 55.996 58.5197 55.676C58.5197 55.58 58.5517 55.492 58.6157 55.412L70.4717 39.812C70.5837 39.668 70.6957 39.556 70.8077 39.476C70.9197 39.396 71.0798 39.356 71.2878 39.356H72.7757C73.1277 39.356 73.3038 39.516 73.3038 39.836C73.3038 39.932 73.2717 40.02 73.2077 40.1L61.3517 55.7C61.2397 55.844 61.1277 55.956 61.0157 56.036C60.9197 56.116 60.7597 56.156 60.5357 56.156H59.0477ZM70.8558 56.276C69.7677 56.276 68.9037 55.988 68.2637 55.412C67.6397 54.836 67.2957 54.068 67.2317 53.108C67.1997 52.692 67.1837 52.324 67.1837 52.004C67.1997 51.684 67.2157 51.3 67.2317 50.852C67.2797 49.892 67.6077 49.116 68.2157 48.524C68.8397 47.932 69.7197 47.636 70.8558 47.636C71.9917 47.636 72.8637 47.932 73.4717 48.524C74.0957 49.116 74.4317 49.892 74.4797 50.852C74.5117 51.3 74.5278 51.684 74.5278 52.004C74.5278 52.324 74.5117 52.692 74.4797 53.108C74.4317 54.068 74.0798 54.836 73.4237 55.412C72.7837 55.988 71.9277 56.276 70.8558 56.276ZM70.8558 54.308C71.1597 54.308 71.3997 54.244 71.5757 54.116C71.7517 53.988 71.8798 53.82 71.9598 53.612C72.0557 53.404 72.1117 53.188 72.1277 52.964C72.1597 52.596 72.1758 52.268 72.1758 51.98C72.1758 51.676 72.1597 51.34 72.1277 50.972C72.1117 50.636 72.0077 50.332 71.8157 50.06C71.6237 49.788 71.3038 49.652 70.8558 49.652C70.4078 49.652 70.0877 49.788 69.8957 50.06C69.7197 50.332 69.6157 50.636 69.5837 50.972C69.5677 51.34 69.5597 51.676 69.5597 51.98C69.5597 52.268 69.5677 52.596 69.5837 52.964C69.6157 53.188 69.6638 53.404 69.7278 53.612C69.8078 53.82 69.9358 53.988 70.1117 54.116C70.3038 54.244 70.5518 54.308 70.8558 54.308ZM60.9917 47.828C59.9037 47.828 59.0397 47.548 58.3997 46.988C57.7757 46.412 57.4317 45.644 57.3677 44.684C57.3357 44.268 57.3197 43.908 57.3197 43.604C57.3357 43.284 57.3517 42.9 57.3677 42.452C57.4157 41.476 57.7437 40.7 58.3517 40.124C58.9757 39.532 59.8557 39.236 60.9917 39.236C62.1437 39.236 63.0237 39.532 63.6317 40.124C64.2397 40.7 64.5677 41.476 64.6157 42.452C64.6477 42.9 64.6637 43.284 64.6637 43.604C64.6637 43.908 64.6477 44.268 64.6157 44.684C64.5677 45.644 64.2237 46.412 63.5837 46.988C62.9437 47.548 62.0797 47.828 60.9917 47.828ZM60.9917 45.884C61.2957 45.884 61.5357 45.82 61.7117 45.692C61.8877 45.564 62.0157 45.396 62.0957 45.188C62.1917 44.98 62.2477 44.772 62.2637 44.564C62.2957 44.18 62.3117 43.844 62.3117 43.556C62.3117 43.252 62.2957 42.924 62.2637 42.572C62.2477 42.236 62.1437 41.932 61.9517 41.66C61.7597 41.372 61.4397 41.228 60.9917 41.228C60.5437 41.228 60.2237 41.372 60.0317 41.66C59.8557 41.932 59.7517 42.236 59.7197 42.572C59.7037 42.924 59.6957 43.252 59.6957 43.556C59.6957 43.844 59.7037 44.18 59.7197 44.564C59.7517 44.772 59.8077 44.98 59.8877 45.188C59.9677 45.396 60.0957 45.564 60.2717 45.692C60.4477 45.82 60.6877 45.884 60.9917 45.884Z" fill="white"/>
</svg>
