<svg width="110" height="101" viewBox="0 0 110 101" fill="none" xmlns="http://www.w3.org/2000/svg">
<rect width="78.4499" height="43.4102" rx="21.7051" transform="matrix(0.870475 -0.492213 0.507828 0.861459 0 50.6747)" fill="#F5A163"/>
<rect width="78.4499" height="43.4102" rx="21.7051" transform="matrix(0.870475 -0.492213 0.507828 0.861459 19.6664 49.8362)" fill="#F5A163"/>
<path d="M44.0657 56.396C42.9457 56.396 41.9537 56.268 41.0897 56.012C40.2417 55.74 39.5297 55.372 38.9537 54.908C38.3777 54.428 37.9457 53.876 37.6577 53.252C37.3697 52.612 37.2257 51.916 37.2257 51.164C37.2257 50.252 37.4497 49.46 37.8977 48.788C38.3457 48.116 38.9137 47.596 39.6017 47.228C39.0417 46.86 38.6017 46.396 38.2817 45.836C37.9777 45.26 37.8257 44.596 37.8257 43.844C37.8257 42.932 38.0577 42.124 38.5217 41.42C38.9857 40.716 39.6737 40.156 40.5857 39.74C41.5137 39.324 42.6737 39.116 44.0657 39.116C45.4418 39.116 46.5858 39.324 47.4977 39.74C48.4098 40.14 49.0978 40.692 49.5618 41.396C50.0258 42.1 50.2578 42.908 50.2578 43.82C50.2578 44.572 50.1058 45.236 49.8018 45.812C49.4978 46.388 49.0658 46.86 48.5057 47.228C49.2417 47.58 49.8257 48.1 50.2578 48.788C50.6898 49.476 50.9058 50.276 50.9058 51.188C50.9058 52.18 50.6498 53.068 50.1378 53.852C49.6258 54.636 48.8577 55.26 47.8337 55.724C46.8098 56.172 45.5538 56.396 44.0657 56.396ZM44.0657 53.636C44.6258 53.636 45.1378 53.54 45.6017 53.348C46.0658 53.14 46.4258 52.852 46.6818 52.484C46.9538 52.116 47.0898 51.684 47.0898 51.188C47.0898 50.676 46.9538 50.244 46.6818 49.892C46.4258 49.524 46.0658 49.244 45.6017 49.052C45.1378 48.844 44.6258 48.74 44.0657 48.74C43.4897 48.74 42.9697 48.844 42.5057 49.052C42.0577 49.244 41.6977 49.524 41.4257 49.892C41.1537 50.244 41.0177 50.676 41.0177 51.188C41.0177 51.684 41.1537 52.116 41.4257 52.484C41.6977 52.852 42.0577 53.14 42.5057 53.348C42.9697 53.54 43.4897 53.636 44.0657 53.636ZM44.0657 46.124C44.5617 46.108 45.0098 46.012 45.4098 45.836C45.8098 45.66 46.1298 45.42 46.3698 45.116C46.6098 44.796 46.7298 44.428 46.7298 44.012C46.7298 43.58 46.6098 43.212 46.3698 42.908C46.1458 42.588 45.8338 42.34 45.4337 42.164C45.0337 41.988 44.5777 41.9 44.0657 41.9C43.5538 41.9 43.0898 41.988 42.6737 42.164C42.2737 42.34 41.9617 42.588 41.7377 42.908C41.5137 43.212 41.4017 43.58 41.4017 44.012C41.4017 44.444 41.5137 44.82 41.7377 45.14C41.9617 45.444 42.2737 45.684 42.6737 45.86C43.0898 46.036 43.5538 46.124 44.0657 46.124ZM53.7621 56.156C53.4101 56.156 53.2341 55.996 53.2341 55.676C53.2341 55.58 53.2661 55.492 53.3301 55.412L65.1861 39.812C65.2981 39.668 65.4101 39.556 65.5221 39.476C65.6341 39.396 65.7941 39.356 66.0021 39.356H67.4901C67.8421 39.356 68.0181 39.516 68.0181 39.836C68.0181 39.932 67.9861 40.02 67.9221 40.1L56.0661 55.7C55.9541 55.844 55.8421 55.956 55.7301 56.036C55.6341 56.116 55.4741 56.156 55.2501 56.156H53.7621ZM65.5701 56.276C64.4821 56.276 63.6181 55.988 62.9781 55.412C62.3541 54.836 62.0101 54.068 61.9461 53.108C61.9141 52.692 61.8981 52.324 61.8981 52.004C61.9141 51.684 61.9301 51.3 61.9461 50.852C61.9941 49.892 62.3221 49.116 62.9301 48.524C63.5541 47.932 64.4341 47.636 65.5701 47.636C66.7061 47.636 67.5781 47.932 68.1861 48.524C68.8101 49.116 69.1461 49.892 69.1941 50.852C69.2261 51.3 69.2421 51.684 69.2421 52.004C69.2421 52.324 69.2261 52.692 69.1941 53.108C69.1461 54.068 68.7941 54.836 68.1381 55.412C67.4981 55.988 66.6421 56.276 65.5701 56.276ZM65.5701 54.308C65.8741 54.308 66.1141 54.244 66.2901 54.116C66.4661 53.988 66.5941 53.82 66.6741 53.612C66.7701 53.404 66.8261 53.188 66.8421 52.964C66.8741 52.596 66.8901 52.268 66.8901 51.98C66.8901 51.676 66.8741 51.34 66.8421 50.972C66.8261 50.636 66.7221 50.332 66.5301 50.06C66.3381 49.788 66.0181 49.652 65.5701 49.652C65.1221 49.652 64.8021 49.788 64.6101 50.06C64.4341 50.332 64.3301 50.636 64.2981 50.972C64.2821 51.34 64.2741 51.676 64.2741 51.98C64.2741 52.268 64.2821 52.596 64.2981 52.964C64.3301 53.188 64.3781 53.404 64.4421 53.612C64.5221 53.82 64.6501 53.988 64.8261 54.116C65.0181 54.244 65.2661 54.308 65.5701 54.308ZM55.7061 47.828C54.6181 47.828 53.7541 47.548 53.1141 46.988C52.4901 46.412 52.1461 45.644 52.0821 44.684C52.0501 44.268 52.0341 43.908 52.0341 43.604C52.0501 43.284 52.0661 42.9 52.0821 42.452C52.1301 41.476 52.4581 40.7 53.0661 40.124C53.6901 39.532 54.5701 39.236 55.7061 39.236C56.8581 39.236 57.7381 39.532 58.3461 40.124C58.9541 40.7 59.2821 41.476 59.3301 42.452C59.3621 42.9 59.3781 43.284 59.3781 43.604C59.3781 43.908 59.3621 44.268 59.3301 44.684C59.2821 45.644 58.9381 46.412 58.2981 46.988C57.6581 47.548 56.7941 47.828 55.7061 47.828ZM55.7061 45.884C56.0101 45.884 56.2501 45.82 56.4261 45.692C56.6021 45.564 56.7301 45.396 56.8101 45.188C56.9061 44.98 56.9621 44.772 56.9781 44.564C57.0101 44.18 57.0261 43.844 57.0261 43.556C57.0261 43.252 57.0101 42.924 56.9781 42.572C56.9621 42.236 56.8581 41.932 56.6661 41.66C56.4741 41.372 56.1541 41.228 55.7061 41.228C55.2581 41.228 54.9381 41.372 54.7461 41.66C54.5701 41.932 54.4661 42.236 54.4341 42.572C54.4181 42.924 54.4101 43.252 54.4101 43.556C54.4101 43.844 54.4181 44.18 54.4341 44.564C54.4661 44.772 54.5221 44.98 54.6021 45.188C54.6821 45.396 54.8101 45.564 54.9861 45.692C55.1621 45.82 55.4021 45.884 55.7061 45.884Z" fill="white"/>
</svg>
