<svg width="110" height="101" viewBox="0 0 110 101" fill="none" xmlns="http://www.w3.org/2000/svg">
<rect width="78.4499" height="43.4102" rx="21.7051" transform="matrix(0.870475 -0.492213 0.507828 0.861459 0 50.6747)" fill="#BDDC64"/>
<rect width="78.4499" height="43.4102" rx="21.7051" transform="matrix(0.870475 -0.492213 0.507828 0.861459 19.6664 49.8362)" fill="#BDDC64"/>
<path d="M43.7136 56.396C42.3056 56.396 41.0816 56.14 40.0416 55.628C39.0176 55.116 38.2176 54.412 37.6416 53.516C37.0816 52.604 36.8016 51.58 36.8016 50.444C36.8016 49.964 36.8736 49.484 37.0176 49.004C37.1616 48.524 37.3376 48.076 37.5456 47.66C37.7536 47.228 37.9616 46.844 38.1696 46.508C38.3936 46.172 38.5776 45.9 38.7216 45.692L43.0416 39.836C43.1216 39.756 43.2256 39.66 43.3536 39.548C43.4816 39.42 43.6576 39.356 43.8816 39.356H46.5696C46.7136 39.356 46.8336 39.412 46.9296 39.524C47.0256 39.62 47.0736 39.74 47.0736 39.884C47.0736 39.948 47.0656 40.012 47.0496 40.076C47.0336 40.124 47.0096 40.164 46.9776 40.196L43.6656 44.732C43.7936 44.7 43.9376 44.676 44.0976 44.66C44.2736 44.644 44.4256 44.636 44.5536 44.636C45.3216 44.668 46.0576 44.828 46.7616 45.116C47.4816 45.404 48.1216 45.804 48.6816 46.316C49.2416 46.812 49.6816 47.404 50.0016 48.092C50.3376 48.78 50.5056 49.548 50.5056 50.396C50.5056 51.468 50.2256 52.46 49.6656 53.372C49.1216 54.284 48.3376 55.02 47.3136 55.58C46.3056 56.124 45.1056 56.396 43.7136 56.396ZM43.6656 53.3C44.1936 53.3 44.6816 53.196 45.1296 52.988C45.5776 52.764 45.9376 52.436 46.2096 52.004C46.4816 51.572 46.6176 51.052 46.6176 50.444C46.6176 49.82 46.4816 49.3 46.2096 48.884C45.9376 48.452 45.5776 48.132 45.1296 47.924C44.6816 47.7 44.1936 47.588 43.6656 47.588C43.1376 47.588 42.6496 47.7 42.2016 47.924C41.7536 48.132 41.3936 48.452 41.1216 48.884C40.8496 49.3 40.7136 49.82 40.7136 50.444C40.7136 51.052 40.8496 51.572 41.1216 52.004C41.4096 52.436 41.7696 52.764 42.2016 52.988C42.6496 53.196 43.1376 53.3 43.6656 53.3ZM52.9223 56.156C52.5703 56.156 52.3943 55.996 52.3943 55.676C52.3943 55.58 52.4263 55.492 52.4903 55.412L64.3463 39.812C64.4583 39.668 64.5703 39.556 64.6823 39.476C64.7943 39.396 64.9543 39.356 65.1623 39.356H66.6503C67.0023 39.356 67.1783 39.516 67.1783 39.836C67.1783 39.932 67.1463 40.02 67.0823 40.1L55.2263 55.7C55.1143 55.844 55.0023 55.956 54.8903 56.036C54.7943 56.116 54.6343 56.156 54.4103 56.156H52.9223ZM64.7303 56.276C63.6423 56.276 62.7783 55.988 62.1383 55.412C61.5143 54.836 61.1703 54.068 61.1063 53.108C61.0743 52.692 61.0583 52.324 61.0583 52.004C61.0743 51.684 61.0903 51.3 61.1063 50.852C61.1543 49.892 61.4823 49.116 62.0903 48.524C62.7143 47.932 63.5943 47.636 64.7303 47.636C65.8663 47.636 66.7383 47.932 67.3463 48.524C67.9703 49.116 68.3063 49.892 68.3543 50.852C68.3863 51.3 68.4023 51.684 68.4023 52.004C68.4023 52.324 68.3863 52.692 68.3543 53.108C68.3063 54.068 67.9543 54.836 67.2983 55.412C66.6583 55.988 65.8023 56.276 64.7303 56.276ZM64.7303 54.308C65.0343 54.308 65.2743 54.244 65.4503 54.116C65.6263 53.988 65.7543 53.82 65.8343 53.612C65.9303 53.404 65.9863 53.188 66.0023 52.964C66.0343 52.596 66.0503 52.268 66.0503 51.98C66.0503 51.676 66.0343 51.34 66.0023 50.972C65.9863 50.636 65.8823 50.332 65.6903 50.06C65.4983 49.788 65.1783 49.652 64.7303 49.652C64.2823 49.652 63.9623 49.788 63.7703 50.06C63.5943 50.332 63.4903 50.636 63.4583 50.972C63.4423 51.34 63.4343 51.676 63.4343 51.98C63.4343 52.268 63.4423 52.596 63.4583 52.964C63.4903 53.188 63.5383 53.404 63.6023 53.612C63.6823 53.82 63.8103 53.988 63.9863 54.116C64.1783 54.244 64.4263 54.308 64.7303 54.308ZM54.8663 47.828C53.7783 47.828 52.9143 47.548 52.2743 46.988C51.6503 46.412 51.3063 45.644 51.2423 44.684C51.2103 44.268 51.1943 43.908 51.1943 43.604C51.2103 43.284 51.2263 42.9 51.2423 42.452C51.2903 41.476 51.6183 40.7 52.2263 40.124C52.8503 39.532 53.7303 39.236 54.8663 39.236C56.0183 39.236 56.8983 39.532 57.5063 40.124C58.1143 40.7 58.4423 41.476 58.4903 42.452C58.5223 42.9 58.5383 43.284 58.5383 43.604C58.5383 43.908 58.5223 44.268 58.4903 44.684C58.4423 45.644 58.0983 46.412 57.4583 46.988C56.8183 47.548 55.9543 47.828 54.8663 47.828ZM54.8663 45.884C55.1703 45.884 55.4103 45.82 55.5863 45.692C55.7623 45.564 55.8903 45.396 55.9703 45.188C56.0663 44.98 56.1223 44.772 56.1383 44.564C56.1703 44.18 56.1863 43.844 56.1863 43.556C56.1863 43.252 56.1703 42.924 56.1383 42.572C56.1223 42.236 56.0183 41.932 55.8263 41.66C55.6343 41.372 55.3143 41.228 54.8663 41.228C54.4183 41.228 54.0983 41.372 53.9063 41.66C53.7303 41.932 53.6263 42.236 53.5943 42.572C53.5783 42.924 53.5703 43.252 53.5703 43.556C53.5703 43.844 53.5783 44.18 53.5943 44.564C53.6263 44.772 53.6823 44.98 53.7623 45.188C53.8423 45.396 53.9703 45.564 54.1463 45.692C54.3223 45.82 54.5623 45.884 54.8663 45.884Z" fill="white"/>
</svg>
