<svg width="110" height="101" viewBox="0 0 110 101" fill="none" xmlns="http://www.w3.org/2000/svg">
<rect width="78.4499" height="43.4102" rx="21.7051" transform="matrix(0.870475 -0.492213 0.507828 0.861459 0 50.6747)" fill="#FFD066"/>
<rect width="78.4499" height="43.4102" rx="21.7051" transform="matrix(0.870475 -0.492213 0.507828 0.861459 19.6664 49.8362)" fill="#FFD066"/>
<path d="M40.3065 56.156C40.1625 56.156 40.0425 56.108 39.9465 56.012C39.8505 55.9 39.8025 55.772 39.8025 55.628C39.8025 55.564 39.8185 55.492 39.8505 55.412L45.5145 42.572H38.1465C37.9865 42.572 37.8425 42.516 37.7145 42.404C37.6025 42.292 37.5465 42.156 37.5465 41.996V39.956C37.5465 39.78 37.6025 39.636 37.7145 39.524C37.8425 39.412 37.9865 39.356 38.1465 39.356H49.0185C49.2105 39.356 49.3545 39.412 49.4505 39.524C49.5625 39.636 49.6185 39.78 49.6185 39.956V41.756C49.6185 41.996 49.5945 42.196 49.5465 42.356C49.5145 42.5 49.4585 42.652 49.3785 42.812L43.7385 55.58C43.6905 55.676 43.6025 55.796 43.4745 55.94C43.3625 56.084 43.1785 56.156 42.9225 56.156H40.3065ZM51.9613 56.156C51.6093 56.156 51.4333 55.996 51.4333 55.676C51.4333 55.58 51.4653 55.492 51.5293 55.412L63.3853 39.812C63.4973 39.668 63.6093 39.556 63.7213 39.476C63.8333 39.396 63.9933 39.356 64.2013 39.356H65.6893C66.0413 39.356 66.2173 39.516 66.2173 39.836C66.2173 39.932 66.1853 40.02 66.1213 40.1L54.2653 55.7C54.1533 55.844 54.0413 55.956 53.9293 56.036C53.8333 56.116 53.6733 56.156 53.4493 56.156H51.9613ZM63.7693 56.276C62.6813 56.276 61.8173 55.988 61.1773 55.412C60.5533 54.836 60.2093 54.068 60.1453 53.108C60.1133 52.692 60.0973 52.324 60.0973 52.004C60.1133 51.684 60.1293 51.3 60.1453 50.852C60.1933 49.892 60.5213 49.116 61.1293 48.524C61.7533 47.932 62.6333 47.636 63.7693 47.636C64.9053 47.636 65.7773 47.932 66.3853 48.524C67.0093 49.116 67.3453 49.892 67.3933 50.852C67.4253 51.3 67.4413 51.684 67.4413 52.004C67.4413 52.324 67.4253 52.692 67.3933 53.108C67.3453 54.068 66.9933 54.836 66.3373 55.412C65.6973 55.988 64.8413 56.276 63.7693 56.276ZM63.7693 54.308C64.0733 54.308 64.3133 54.244 64.4893 54.116C64.6653 53.988 64.7933 53.82 64.8733 53.612C64.9693 53.404 65.0253 53.188 65.0413 52.964C65.0733 52.596 65.0893 52.268 65.0893 51.98C65.0893 51.676 65.0733 51.34 65.0413 50.972C65.0253 50.636 64.9213 50.332 64.7293 50.06C64.5373 49.788 64.2173 49.652 63.7693 49.652C63.3213 49.652 63.0013 49.788 62.8093 50.06C62.6333 50.332 62.5293 50.636 62.4973 50.972C62.4813 51.34 62.4733 51.676 62.4733 51.98C62.4733 52.268 62.4813 52.596 62.4973 52.964C62.5293 53.188 62.5773 53.404 62.6413 53.612C62.7213 53.82 62.8493 53.988 63.0253 54.116C63.2173 54.244 63.4653 54.308 63.7693 54.308ZM53.9053 47.828C52.8173 47.828 51.9533 47.548 51.3133 46.988C50.6893 46.412 50.3453 45.644 50.2813 44.684C50.2493 44.268 50.2333 43.908 50.2333 43.604C50.2493 43.284 50.2653 42.9 50.2813 42.452C50.3293 41.476 50.6573 40.7 51.2653 40.124C51.8893 39.532 52.7693 39.236 53.9053 39.236C55.0573 39.236 55.9373 39.532 56.5453 40.124C57.1533 40.7 57.4813 41.476 57.5293 42.452C57.5613 42.9 57.5773 43.284 57.5773 43.604C57.5773 43.908 57.5613 44.268 57.5293 44.684C57.4813 45.644 57.1373 46.412 56.4973 46.988C55.8573 47.548 54.9933 47.828 53.9053 47.828ZM53.9053 45.884C54.2093 45.884 54.4493 45.82 54.6253 45.692C54.8013 45.564 54.9293 45.396 55.0093 45.188C55.1053 44.98 55.1613 44.772 55.1773 44.564C55.2093 44.18 55.2253 43.844 55.2253 43.556C55.2253 43.252 55.2093 42.924 55.1773 42.572C55.1613 42.236 55.0573 41.932 54.8653 41.66C54.6733 41.372 54.3533 41.228 53.9053 41.228C53.4573 41.228 53.1373 41.372 52.9453 41.66C52.7693 41.932 52.6653 42.236 52.6333 42.572C52.6173 42.924 52.6093 43.252 52.6093 43.556C52.6093 43.844 52.6173 44.18 52.6333 44.564C52.6653 44.772 52.7213 44.98 52.8013 45.188C52.8813 45.396 53.0093 45.564 53.1853 45.692C53.3613 45.82 53.6013 45.884 53.9053 45.884Z" fill="white"/>
</svg>
