<svg width="670" height="8" viewBox="0 0 670 8" fill="none" xmlns="http://www.w3.org/2000/svg">
<path d="M669.354 4.35355C669.549 4.15829 669.549 3.84171 669.354 3.64645L666.172 0.464466C665.976 0.269204 665.66 0.269204 665.464 0.464466C665.269 0.659728 665.269 0.976311 665.464 1.17157L668.293 4L665.464 6.82843C665.269 7.02369 665.269 7.34027 665.464 7.53553C665.66 7.7308 665.976 7.7308 666.172 7.53553L669.354 4.35355ZM669 3.5H668.004V4.5H669V3.5ZM664.022 3.5L662.031 3.5V4.5H664.022V3.5ZM658.049 3.5L656.058 3.5V4.5H658.049V3.5ZM652.076 3.5H650.085V4.5L652.076 4.5V3.5ZM646.103 3.5L644.112 3.5V4.5H646.103V3.5ZM640.129 3.5H638.138V4.5H640.129V3.5ZM634.156 3.5H632.165V4.5H634.156V3.5ZM628.183 3.5L626.192 3.5V4.5H628.183V3.5ZM622.21 3.5L620.219 3.5V4.5L622.21 4.5V3.5ZM616.237 3.5L614.246 3.5V4.5L616.237 4.5V3.5ZM610.263 3.5L608.272 3.5V4.5H610.263V3.5ZM604.29 3.5H602.299V4.5H604.29V3.5ZM598.317 3.5H596.326V4.5H598.317V3.5ZM592.344 3.5L590.353 3.5V4.5H592.344V3.5ZM586.371 3.5H584.379V4.5L586.371 4.5V3.5ZM580.397 3.5L578.406 3.5V4.5H580.397V3.5ZM574.424 3.5L572.433 3.5V4.5H574.424V3.5ZM568.451 3.5H566.46V4.5H568.451V3.5ZM562.478 3.5L560.487 3.5V4.5H562.478V3.5ZM556.504 3.5L554.513 3.5V4.5H556.504V3.5ZM550.531 3.5H548.54V4.5L550.531 4.5V3.5ZM544.558 3.5L542.567 3.5V4.5H544.558V3.5ZM538.585 3.5H536.594V4.5H538.585V3.5ZM532.612 3.5H530.621V4.5H532.612V3.5ZM526.638 3.5L524.647 3.5V4.5H526.638V3.5ZM520.665 3.5L518.674 3.5V4.5L520.665 4.5V3.5ZM514.692 3.5L512.701 3.5V4.5L514.692 4.5V3.5ZM508.719 3.5L506.728 3.5V4.5H508.719V3.5ZM502.746 3.5H500.754V4.5H502.746V3.5ZM496.772 3.5H494.781V4.5H496.772V3.5ZM490.799 3.5L488.808 3.5V4.5H490.799V3.5ZM484.826 3.5H482.835V4.5L484.826 4.5V3.5ZM478.853 3.5L476.862 3.5V4.5H478.853V3.5ZM472.879 3.5L470.888 3.5V4.5H472.879V3.5ZM466.906 3.5H464.915V4.5H466.906V3.5ZM460.933 3.5L458.942 3.5V4.5H460.933V3.5ZM454.96 3.5L452.969 3.5V4.5H454.96V3.5ZM448.987 3.5H446.995V4.5L448.987 4.5V3.5ZM443.013 3.5L441.022 3.5V4.5H443.013V3.5ZM437.04 3.5H435.049V4.5H437.04V3.5ZM431.067 3.5H429.076V4.5H431.067V3.5ZM425.094 3.5L423.103 3.5V4.5H425.094V3.5ZM419.12 3.5L417.129 3.5V4.5L419.12 4.5V3.5ZM413.147 3.5L411.156 3.5V4.5L413.147 4.5V3.5ZM407.174 3.5L405.183 3.5V4.5H407.174V3.5ZM401.201 3.5H399.21V4.5H401.201V3.5ZM395.228 3.5H393.237V4.5H395.228V3.5ZM389.254 3.5L387.263 3.5V4.5H389.254V3.5ZM383.281 3.5H381.29V4.5L383.281 4.5V3.5ZM377.308 3.5L375.317 3.5V4.5H377.308V3.5ZM371.335 3.5L369.344 3.5V4.5H371.335V3.5ZM365.362 3.5H363.37V4.5H365.362V3.5ZM359.388 3.5L357.397 3.5V4.5H359.388V3.5ZM353.415 3.5L351.424 3.5V4.5H353.415V3.5ZM347.442 3.5H345.451V4.5L347.442 4.5V3.5ZM341.469 3.5L339.478 3.5V4.5H341.469V3.5ZM335.496 3.5H333.504V4.5H335.496V3.5ZM329.522 3.5H327.531V4.5H329.522V3.5ZM323.549 3.5L321.558 3.5V4.5H323.549V3.5ZM317.576 3.5L315.585 3.5V4.5L317.576 4.5V3.5ZM311.603 3.5L309.612 3.5V4.5L311.603 4.5V3.5ZM305.629 3.5L303.638 3.5V4.5H305.629V3.5ZM299.656 3.5H297.665V4.5H299.656V3.5ZM293.683 3.5H291.692V4.5H293.683V3.5ZM287.71 3.5L285.719 3.5V4.5H287.71V3.5ZM281.737 3.5H279.746V4.5L281.737 4.5V3.5ZM275.763 3.5L273.772 3.5V4.5H275.763V3.5ZM269.79 3.5L267.799 3.5V4.5H269.79V3.5ZM263.817 3.5H261.826V4.5H263.817V3.5ZM257.844 3.5L255.853 3.5V4.5H257.844V3.5ZM251.871 3.5L249.88 3.5V4.5H251.871V3.5ZM245.897 3.5H243.906V4.5L245.897 4.5V3.5ZM239.924 3.5L237.933 3.5V4.5H239.924V3.5ZM233.951 3.5H231.96V4.5H233.951V3.5ZM227.978 3.5H225.987V4.5H227.978V3.5ZM222.005 3.5L220.014 3.5V4.5H222.005V3.5ZM216.031 3.5L214.04 3.5V4.5L216.031 4.5V3.5ZM210.058 3.5L208.067 3.5V4.5L210.058 4.5V3.5ZM204.085 3.5L202.094 3.5V4.5H204.085V3.5ZM198.112 3.5H196.121V4.5H198.112V3.5ZM192.139 3.5H190.148V4.5H192.139V3.5ZM186.165 3.5L184.174 3.5V4.5H186.165V3.5ZM180.192 3.5H178.201V4.5L180.192 4.5V3.5ZM174.219 3.5L172.228 3.5V4.5H174.219V3.5ZM168.246 3.5L166.255 3.5V4.5H168.246V3.5ZM162.273 3.5H160.281V4.5H162.273V3.5ZM156.299 3.5L154.308 3.5V4.5H156.299V3.5ZM150.326 3.5L148.335 3.5V4.5H150.326V3.5ZM144.353 3.5H142.362V4.5L144.353 4.5V3.5ZM138.38 3.5L136.389 3.5V4.5L138.38 4.5V3.5ZM132.407 3.5H130.415V4.5H132.407V3.5ZM126.433 3.5H124.442V4.5H126.433V3.5ZM120.46 3.5L118.469 3.5V4.5H120.46V3.5ZM114.487 3.5L112.496 3.5V4.5L114.487 4.5V3.5ZM108.514 3.5H106.523V4.5L108.514 4.5V3.5ZM102.541 3.5L100.549 3.5V4.5H102.541V3.5ZM96.5673 3.5H94.5762V4.5H96.5673V3.5ZM90.5941 3.5H88.603V4.5H90.5941V3.5ZM84.6209 3.5L82.6298 3.5V4.5H84.6209V3.5ZM78.6477 3.5H76.6566V4.5L78.6477 4.5V3.5ZM72.6745 3.5L70.6834 3.5V4.5H72.6745V3.5ZM66.7013 3.5L64.7102 3.5V4.5H66.7013V3.5ZM60.7281 3.5H58.737V4.5H60.7281V3.5ZM54.7549 3.5L52.7638 3.5V4.5H54.7549V3.5ZM48.7817 3.5L46.7906 3.5V4.5H48.7817V3.5ZM42.8085 3.5H40.8174V4.5L42.8085 4.5V3.5ZM36.8353 3.5L34.8442 3.5V4.5L36.8353 4.5V3.5ZM30.8621 3.5H28.871V4.5H30.8621V3.5ZM24.8889 3.5H22.8978V4.5H24.8889V3.5ZM18.9156 3.5L16.9246 3.5V4.5H18.9156V3.5ZM12.9424 3.5L10.9514 3.5V4.5L12.9424 4.5V3.5ZM6.96924 3.5H4.97815V4.5L6.96924 4.5V3.5ZM0.996033 3.5H0V4.5H0.996033V3.5Z" fill="#EA3A39"/>
</svg>
