<svg width="30" height="30" viewBox="0 0 30 30" fill="none" xmlns="http://www.w3.org/2000/svg">
<rect width="30" height="30" rx="8" fill="#DEE5FF"/>
<path opacity="0.4" d="M17.1392 7.82817C16.5947 5.5856 13.4053 5.5856 12.8608 7.82817C12.7088 8.45423 11.9916 8.75133 11.4414 8.41613C9.47062 7.21541 7.21541 9.47062 8.41613 11.4414C8.75133 11.9916 8.45423 12.7088 7.82817 12.8608C5.5856 13.4053 5.5856 16.5947 7.82817 17.1392C8.45423 17.2912 8.75133 18.0085 8.41613 18.5586C7.21541 20.5294 9.47062 22.7846 11.4414 21.5839C11.9916 21.2487 12.7088 21.5458 12.8608 22.1718C13.4053 24.4144 16.5947 24.4144 17.1392 22.1718C17.2912 21.5458 18.0085 21.2487 18.5586 21.5839C20.5294 22.7846 22.7846 20.5294 21.5839 18.5586C21.2487 18.0085 21.5458 17.2912 22.1718 17.1392C24.4144 16.5947 24.4144 13.4053 22.1718 12.8608C21.5458 12.7088 21.2487 11.9916 21.5839 11.4414C22.7846 9.47062 20.5294 7.21541 18.5586 8.41613C18.0085 8.75133 17.2912 8.45423 17.1392 7.82817Z" fill="#495FA9"/>
<path fill-rule="evenodd" clip-rule="evenodd" d="M18.7834 12.0663C19.023 12.3148 19.0157 12.7105 18.7671 12.95L14.4442 17.1167C14.2016 17.3505 13.8173 17.3499 13.5754 17.1154L11.2317 14.8426C10.9839 14.6023 10.9778 14.2067 11.2181 13.9588C11.4584 13.711 11.854 13.705 12.1018 13.9453L14.0118 15.7973L17.8997 12.05C18.1482 11.8105 18.5439 11.8177 18.7834 12.0663Z" fill="#495FA9"/>
</svg>
