<svg width="32" height="32" viewBox="0 0 32 32" fill="none" xmlns="http://www.w3.org/2000/svg">
<g clip-path="url(#clip0_206_45852)">
<rect width="32" height="32" rx="16" fill="#12B5C6"/>
<path d="M16.1999 31.9999C24.926 31.9999 31.9999 24.926 31.9999 16.1999C31.9999 7.4738 24.926 0.399902 16.1999 0.399902C7.4738 0.399902 0.399902 7.4738 0.399902 16.1999C0.399902 24.926 7.4738 31.9999 16.1999 31.9999Z" fill="#12B5C6"/>
<path d="M26.6462 12.4783C26.5157 12.4783 26.4504 12.5436 26.3851 12.6741C26.0586 13.3923 25.6016 13.8493 25.0793 14.2411C25.014 14.2411 25.014 14.2411 25.014 14.1758C25.8628 12.6089 25.5363 11.3031 25.2099 10.6502C24.557 9.21381 23.0553 8.23447 21.4884 8.23447C21.4231 8.23447 21.3578 8.23447 21.2272 8.23447C21.0314 8.23447 20.8355 8.10389 20.7702 7.90803C20.3132 6.01464 18.2892 5.10059 16.4611 5.10059C14.633 5.10059 13.1967 5.6229 12.4785 7.25513C12.4785 7.32042 12.4132 7.38571 12.4132 7.451C12.4132 7.51629 12.3479 7.64687 12.2826 7.71216C12.152 7.77745 11.8909 7.71216 11.7603 7.71216C11.695 7.71216 11.4991 7.64687 11.4338 7.64687C9.80161 7.51629 8.29996 8.16918 7.25533 9.60555C6.40657 10.7808 6.34128 12.2171 7.05946 13.6535C7.12475 13.7841 7.12475 13.8493 7.05946 13.9799C6.2107 15.1551 6.14541 16.9832 6.92888 18.2237C7.32062 18.8766 7.90822 19.2684 8.56111 19.4642C8.6264 19.4642 8.6264 19.5295 8.56111 19.5295C7.84293 19.9212 7.19004 20.2477 6.66772 20.313C6.60244 20.313 6.53715 20.3783 6.47186 20.4436C6.34128 20.6394 6.47186 20.77 6.60244 20.8353C8.0388 21.2923 9.21401 21.5535 10.1281 21.5535C10.8462 21.5535 11.4338 21.4229 11.9562 21.1617C13.1314 20.6394 14.1107 20.5089 14.8942 20.3783C15.8082 20.2477 16.5917 20.1171 17.3099 19.4642C18.6157 21.5535 18.6809 26.3849 18.6157 27.8865C18.6157 28.0171 18.6809 28.1477 18.7462 28.213C18.8115 28.2783 18.9421 28.3436 19.0727 28.3436C19.0727 28.3436 19.0727 28.3436 19.138 28.3436C19.3338 28.3436 19.5297 28.1477 19.5297 27.9518C19.595 26.5155 19.6603 21.7493 17.9628 19.0072C18.6809 18.6808 19.595 18.6808 20.4438 18.6808C21.8801 18.6155 23.5124 18.6155 25.014 17.375C25.7322 16.7874 26.1239 15.2857 26.5809 13.6535C26.6462 13.4576 26.7115 13.1965 26.7768 13.0006C26.9074 12.6741 26.7768 12.4783 26.6462 12.4783ZM7.58178 17.7014C6.92888 16.7221 6.99417 15.1551 7.77764 14.2411C8.49582 13.327 9.73632 13.1312 11.3033 13.6535C11.5644 13.7188 11.8256 13.5882 11.8256 13.2617C11.8256 13.0659 11.695 12.9353 11.5644 12.87C9.8669 12.2824 8.69169 12.5436 7.97351 13.0659C7.90822 13.1312 7.77764 13.0659 7.71235 13.0006C7.12475 11.6295 7.4512 10.6502 7.90822 9.99728C8.75698 8.82207 10.6504 8.16918 12.0867 8.49563C12.8702 8.6915 13.7843 9.21381 14.0454 10.6502C14.1107 10.9113 14.3719 11.0419 14.633 10.9113C14.7636 10.846 14.8942 10.6502 14.8289 10.4543C14.633 9.40968 14.1107 8.62621 13.3272 8.10389C13.1314 7.97331 13.0661 7.71216 13.1314 7.51629C13.5884 6.40637 14.9595 5.81877 16.3958 5.81877C17.9628 5.81877 19.595 6.53695 19.9214 8.10389C19.9867 8.29976 19.8562 8.43034 19.7256 8.56092C19.0074 8.95265 18.3545 9.54026 17.9628 10.389C17.8975 10.5196 17.8975 10.7808 18.0281 10.846C18.2239 11.0419 18.5504 10.9766 18.6809 10.7155C19.2686 9.54026 20.2479 8.88736 21.4231 8.95265C22.6636 8.95265 23.9041 9.80141 24.4264 10.9113C24.9487 12.0865 24.6876 13.3923 23.6429 14.6981C23.6429 14.6981 23.6429 14.6981 23.6429 14.7634C23.5776 14.8287 23.5124 14.894 23.4471 14.9593C22.8595 15.0898 22.2719 15.2204 21.7495 15.2857C21.4231 15.351 21.1619 15.351 20.9008 15.4163C20.1173 15.5469 19.3991 16.1345 18.8115 16.7221C18.7462 16.7874 18.6809 16.7221 18.6809 16.6568C18.6809 16.265 18.6157 15.8733 18.4198 15.4816C18.0281 14.5675 17.1793 14.1105 16.3958 13.7188C16.0694 13.5229 15.7429 13.327 15.4818 13.1312C15.4165 13.0659 15.2859 13.0659 15.2206 13.0659C15.1553 13.0659 15.09 13.1312 15.0248 13.2617C14.9595 13.3923 14.9595 13.5229 14.8942 13.7188C14.5677 14.7634 13.9801 16.5915 14.633 17.6361C14.6983 17.7014 14.6983 17.7667 14.7636 17.832C14.7636 17.8973 14.7636 17.8973 14.6983 17.8973C13.719 17.7667 12.8049 17.7667 12.2173 17.832C11.695 17.8973 11.1074 18.0931 10.4545 18.4196C10.2586 18.4849 10.0628 18.5502 9.8669 18.5502C9.8669 18.5502 9.8669 18.5502 9.80161 18.5502C8.88756 18.6808 8.10409 18.4196 7.58178 17.7014Z" fill="white"/>
</g>
<defs>
<clipPath id="clip0_206_45852">
<rect width="32" height="32" rx="16" fill="white"/>
</clipPath>
</defs>
</svg>
