<svg width="32" height="32" viewBox="0 0 32 32" fill="none" xmlns="http://www.w3.org/2000/svg">
<g clip-path="url(#clip0_144_25534)">
<rect width="32" height="32" rx="16" fill="#BE2026"/>
<path d="M20.9793 28.0208C27.6182 25.2708 30.7708 17.6596 28.0208 11.0207C25.2709 4.38183 17.6597 1.22924 11.0208 3.97922C4.38189 6.7292 1.2293 14.3404 3.97928 20.9793C6.72926 27.6182 14.3404 30.7708 20.9793 28.0208Z" fill="#BE2026"/>
<path d="M12.1238 11.8721C12.791 11.8721 13.5249 12.0055 14.0587 12.4726C14.6592 13.0064 15.0596 13.7403 15.0596 14.7411C15.0596 15.742 14.6592 16.5427 13.992 17.0764C13.3915 17.5435 12.791 17.6102 12.1238 17.6102H10.2555V19.345C10.2555 19.8121 9.8552 20.2124 9.38815 20.2124C8.92109 20.2124 8.52075 19.8121 8.52075 19.345V12.7395C8.52075 12.2724 8.92109 11.8721 9.38815 11.8721H12.1238ZM12.791 13.6736C12.5241 13.4734 12.2572 13.4067 11.8569 13.4067H10.2555V16.0756H11.8569C12.1905 16.0756 12.5241 16.0089 12.791 15.8754C13.1246 15.6753 13.3248 15.2749 13.3248 14.7411C13.3248 14.2074 13.1246 13.8737 12.791 13.6736Z" fill="white"/>
<path d="M21.2646 18.0102C21.5315 17.6766 21.665 17.2095 21.665 16.609V12.6057C21.665 12.1386 22.0653 11.7383 22.5324 11.7383C22.9994 11.7383 23.3997 12.1386 23.3997 12.6057V16.8092C23.3997 17.7433 23.1329 18.4773 22.6658 19.0778C22.0653 19.745 21.0645 20.1453 19.8634 20.1453C18.6624 20.1453 17.6616 19.745 17.0611 19.0778C16.594 18.544 16.3271 17.7433 16.3271 16.8092V12.6057C16.3271 12.1386 16.7275 11.7383 17.1945 11.7383C17.6616 11.7383 18.0619 12.1386 18.0619 12.6057V16.609C18.0619 17.2095 18.1954 17.6766 18.4623 18.0102C18.7959 18.4105 19.2629 18.6107 19.8634 18.6107C20.464 18.6107 20.931 18.4773 21.2646 18.0102Z" fill="white"/>
<path d="M15.9937 -0.0717773C7.11962 -0.0717773 -0.0864258 7.13427 -0.0864258 16.0084C-0.0864258 24.8825 7.11962 32.0885 15.9937 32.0885C24.8678 32.0885 32.0739 24.8825 32.0739 16.0084C32.0739 7.13427 24.8678 -0.0717773 15.9937 -0.0717773ZM15.9937 31.1544C7.6534 31.1544 0.847691 24.3487 0.847691 16.0084C0.847691 7.66805 7.6534 0.862339 15.9937 0.862339C24.3341 0.862339 31.1398 7.66805 31.1398 16.0084C31.1398 24.3487 24.3341 31.1544 15.9937 31.1544Z" fill="#BE2026"/>
<path d="M15.9939 0.862793C7.65361 0.862793 0.8479 7.6685 0.8479 16.0088C0.8479 24.3492 7.65361 31.1549 15.9939 31.1549C24.3343 31.1549 31.14 24.3492 31.14 16.0088C31.14 7.6685 24.3343 0.862793 15.9939 0.862793ZM15.9939 29.8871C8.32084 29.8871 2.04891 23.6819 2.04891 16.0088C2.04891 8.33573 8.32084 2.0638 15.9939 2.0638C23.667 2.0638 29.8722 8.269 29.8722 15.9421C29.8722 23.6152 23.667 29.8871 15.9939 29.8871Z" fill="white"/>
<path d="M15.9939 2.06396C8.32076 2.06396 2.04883 8.33589 2.04883 16.009C2.04883 23.6821 8.25403 29.8873 15.9271 29.8873C23.6002 29.8873 29.8054 23.6154 29.8054 16.009C29.8054 8.40262 23.667 2.06396 15.9939 2.06396ZM15.9939 28.9532C8.85454 28.9532 2.98294 23.1483 2.98294 15.9423C2.98294 8.80295 8.78781 2.93136 15.9939 2.93136C23.1999 2.93136 29.0048 8.73623 29.0048 15.9423C28.9381 23.1483 23.1332 28.9532 15.9939 28.9532Z" fill="#BE2026"/>
</g>
<defs>
<clipPath id="clip0_144_25534">
<rect width="32" height="32" rx="16" fill="white"/>
</clipPath>
</defs>
</svg>
