<svg width="32" height="32" viewBox="0 0 32 32" fill="none" xmlns="http://www.w3.org/2000/svg">
<g clip-path="url(#clip0_206_45857)">
<rect width="32" height="32" rx="16" fill="#001A4A"/>
<path d="M16.1999 32.9999C25.4783 32.9999 32.9999 25.4783 32.9999 16.1999C32.9999 6.92152 25.4783 -0.600098 16.1999 -0.600098C6.92152 -0.600098 -0.600098 6.92152 -0.600098 16.1999C-0.600098 25.4783 6.92152 32.9999 16.1999 32.9999Z" fill="#81592D"/>
<path d="M26.7521 9.95176L25.2248 7.17489C25.086 6.89721 24.7389 6.68895 24.3917 6.68895C22.1703 6.5501 20.0876 5.78647 18.6298 4.53688C18.2827 4.25919 17.7967 4.18977 17.3802 4.39803C17.1719 4.53688 16.8942 4.6063 16.686 4.67572C15.9917 4.81456 15.3669 4.67572 14.8116 4.32861C14.4645 4.12035 13.9785 4.18977 13.6314 4.46746C12.1736 5.78647 10.0909 6.5501 7.86943 6.68895C7.52232 6.68895 7.24464 6.89721 7.03637 7.17489L5.5091 9.95176C5.43968 10.0906 5.43968 10.2294 5.5091 10.3683C5.57852 10.5071 5.64794 10.5765 5.78678 10.646C7.4529 11.2708 8.49422 12.2427 9.04959 13.6311C9.53554 14.8113 9.60496 16.1997 9.18844 17.5187C8.63306 19.3237 7.52232 20.5038 5.78678 21.1286C5.64794 21.198 5.57852 21.2675 5.5091 21.4063C5.43968 21.5451 5.43968 21.684 5.5091 21.8228L7.03637 24.5303C7.17521 24.808 7.52232 25.0162 7.86943 25.0162H7.93885C8.00827 25.0162 8.07769 25.0162 8.21654 25.0162C8.70249 24.9468 9.18844 24.8774 9.67439 24.8774C12.1736 24.8774 14.4645 25.9881 15.7835 27.8625C15.8529 28.0013 15.9917 28.0708 16.2 28.0708C16.3389 28.0708 16.4777 28.0013 16.6165 27.8625C17.2413 27.0294 18.0744 26.2658 19.0463 25.7799L23.0727 16.8245C22.8645 15.7137 22.9339 14.5336 23.3504 13.5617C23.9058 12.1732 24.9471 11.1319 26.6132 10.5765C26.7521 10.5071 26.8215 10.4377 26.8909 10.2989C26.9603 10.16 26.8215 10.0212 26.7521 9.95176ZM7.86943 23.2113C7.80001 23.2113 7.80001 23.2113 7.73059 23.2113C7.66116 23.2113 7.59174 23.1418 7.52232 23.0724L7.38348 22.7947C7.31406 22.7253 7.31406 22.5865 7.31406 22.517C7.31406 22.517 7.31406 22.4476 7.31406 22.3782C7.31406 22.2394 7.4529 22.1699 7.59174 22.2394C7.73059 22.2394 7.80001 22.3782 7.73059 22.517V22.5865L7.86943 22.8642C8.00827 23.003 8.00827 23.1418 7.86943 23.2113ZM10.2992 7.93853C10.5074 7.86911 10.6463 7.86911 10.8546 7.79969C10.9934 7.73027 11.0628 7.79969 11.1322 7.93853C11.1322 8.07737 11.1322 8.1468 10.9934 8.21622C10.7851 8.28564 10.5769 8.35506 10.438 8.35506H10.3686C10.2992 8.35506 10.1603 8.28564 10.1603 8.21622C10.0909 8.1468 10.1603 8.00795 10.2992 7.93853ZM10.5074 13.8394C10.438 13.7005 10.438 13.5617 10.3686 13.4228C10.3686 13.3534 10.3686 13.3534 10.2992 13.284C10.2298 13.1451 10.2992 13.0757 10.438 13.0063C10.5769 12.9369 10.6463 13.0063 10.7157 13.1451C10.7157 13.2146 10.7851 13.2146 10.7851 13.284C10.8546 13.4228 10.924 13.5617 10.924 13.7005C10.9934 13.8394 10.924 13.9088 10.7851 13.9782H10.7157C10.5769 13.9782 10.5074 13.9088 10.5074 13.8394ZM10.7157 18.1435C10.8546 18.1435 10.924 18.2823 10.8546 18.4212C10.7851 18.6294 10.7157 18.7683 10.6463 18.9766C10.5769 19.046 10.5074 19.1154 10.438 19.1154H10.3686C10.2298 19.046 10.2298 18.9766 10.2298 18.8377C10.2992 18.6989 10.3686 18.4906 10.438 18.2823C10.5074 18.2129 10.6463 18.1435 10.7157 18.1435ZM8.07769 9.32696L7.80001 9.81291L7.59174 9.74349L7.38348 9.60465L7.66116 9.1187C7.73059 8.97985 7.86943 8.97985 7.93885 9.04928C8.07769 9.1187 8.14711 9.25754 8.07769 9.32696ZM8.98017 11.0625C8.91075 11.1319 8.84133 11.1319 8.84133 11.1319C8.77191 11.1319 8.70249 11.1319 8.70249 11.0625C8.56364 10.9931 8.49422 10.8542 8.35538 10.7848L8.28596 10.7154C8.21654 10.646 8.14711 10.5071 8.21654 10.4377C8.28596 10.3683 8.4248 10.2989 8.49422 10.3683C8.56364 10.3683 8.56364 10.4377 8.56364 10.4377C8.70249 10.5071 8.84133 10.646 8.91075 10.7154C9.04959 10.7848 9.04959 10.9237 8.98017 11.0625ZM8.63306 8.70217C8.49422 8.70217 8.4248 8.63275 8.4248 8.4939C8.4248 8.35506 8.49422 8.28564 8.63306 8.21622C8.84133 8.21622 8.98017 8.1468 9.18844 8.1468C9.32728 8.1468 9.3967 8.21622 9.46612 8.35506C9.46612 8.4939 9.3967 8.56332 9.25786 8.63275C9.04959 8.63275 8.84133 8.70217 8.63306 8.70217ZM9.3967 11.8956C9.32728 11.8261 9.32728 11.6873 9.46612 11.6179C9.53554 11.5484 9.67439 11.5484 9.74381 11.6179C9.88265 11.7567 10.0215 11.965 10.0909 12.1038C10.1603 12.2427 10.1603 12.3815 10.0215 12.3815C9.95207 12.3815 9.95207 12.3815 9.88265 12.3815C9.81323 12.3815 9.74381 12.3815 9.67439 12.3121C9.67439 12.1732 9.53554 12.0344 9.3967 11.8956ZM8.35538 21.5451C8.49422 21.4063 8.63306 21.2675 8.77191 21.198C8.84133 21.1286 8.98017 21.1286 9.11902 21.198C9.18844 21.2675 9.18844 21.4063 9.11902 21.5451C8.98017 21.684 8.84133 21.8228 8.70249 21.9617C8.63306 21.9617 8.63306 22.0311 8.56364 22.0311C8.49422 22.0311 8.4248 22.0311 8.4248 21.9617C8.21654 21.7534 8.21654 21.6146 8.35538 21.5451ZM9.11902 23.9749C8.98017 23.9749 8.77191 23.9749 8.56364 24.0443H8.49422C8.35538 24.0443 8.28596 23.9749 8.28596 23.8361C8.28596 23.6972 8.35538 23.6278 8.49422 23.6278C8.70249 23.6278 8.84133 23.5584 9.04959 23.5584C9.18844 23.5584 9.25786 23.6278 9.25786 23.7666C9.32728 23.8361 9.25786 23.9749 9.11902 23.9749ZM9.67439 20.6427C9.60497 20.6427 9.60496 20.6427 9.53554 20.5732C9.3967 20.5038 9.3967 20.365 9.46612 20.2956C9.60497 20.1567 9.67439 20.0179 9.74381 19.8096C9.81323 19.7402 9.95207 19.6708 10.0215 19.7402C10.1603 19.8096 10.1603 19.9485 10.0909 20.0179C10.0215 20.1567 9.88265 20.365 9.74381 20.5038C9.81323 20.6427 9.74381 20.6427 9.67439 20.6427ZM10.8546 24.0443C10.6463 24.0443 10.438 23.9749 10.2298 23.9749C10.0909 23.9749 10.0215 23.8361 10.0215 23.7666C10.0215 23.6278 10.1603 23.5584 10.2298 23.5584C10.438 23.5584 10.6463 23.5584 10.8546 23.6278C10.9934 23.6278 11.0628 23.7666 11.0628 23.9055C11.0628 23.9055 10.9934 24.0443 10.8546 24.0443ZM11.1322 17.241C11.1322 17.3799 10.9934 17.4493 10.924 17.4493C10.7851 17.4493 10.7157 17.3104 10.7157 17.1716C10.7157 16.9633 10.7851 16.8245 10.7851 16.6162C10.7851 16.4774 10.924 16.408 10.9934 16.408C11.1322 16.408 11.2017 16.5468 11.2017 16.6162C11.2017 16.8939 11.2017 17.1022 11.1322 17.241ZM11.0628 15.7137C10.924 15.7137 10.8546 15.6443 10.8546 15.5055C10.8546 15.2972 10.7851 15.1584 10.7851 14.9501C10.7851 14.8113 10.8546 14.7418 10.9934 14.6724C11.1322 14.6724 11.2017 14.7418 11.2711 14.8807C11.2711 15.0889 11.3405 15.2972 11.3405 15.5055C11.2711 15.5749 11.1322 15.7137 11.0628 15.7137ZM11.8959 7.45258C12.1041 7.38316 12.243 7.31374 12.4512 7.24432C12.5901 7.1749 12.6595 7.24432 12.7289 7.31374C12.7984 7.45258 12.7289 7.522 12.6595 7.59142C12.4512 7.66085 12.3124 7.73027 12.1041 7.79969H12.0347C11.9653 7.79969 11.8959 7.73027 11.8265 7.66085C11.757 7.59142 11.8265 7.45258 11.8959 7.45258ZM12.5901 24.3914H12.5207C12.3818 24.322 12.1736 24.2526 11.9653 24.2526C11.8265 24.2526 11.757 24.1137 11.8265 23.9749C11.8959 23.8361 11.9653 23.7666 12.1041 23.8361C12.3124 23.9055 12.4512 23.9749 12.6595 23.9749C12.7984 23.9749 12.8678 24.1137 12.7984 24.2526C12.7984 24.322 12.6595 24.3914 12.5901 24.3914ZM13.4231 6.61952C13.562 6.48068 13.7703 6.41126 13.9091 6.27242C13.9785 6.20299 14.1174 6.20299 14.1868 6.34184C14.2562 6.41126 14.2562 6.5501 14.1174 6.61952C13.9785 6.75837 13.7703 6.82779 13.6314 6.96663C13.562 6.96663 13.562 7.03605 13.4926 7.03605C13.4231 7.03605 13.3537 6.96663 13.2843 6.89721C13.2843 6.82779 13.3537 6.68895 13.4231 6.61952ZM14.395 24.9468C14.3256 25.0162 14.2562 25.0856 14.1868 25.0856C14.1174 25.0856 14.1174 25.0856 14.0479 25.0856C13.9091 25.0162 13.7008 24.8774 13.562 24.808C13.4926 24.7385 13.4231 24.5997 13.4926 24.4608C13.562 24.3914 13.7008 24.322 13.7703 24.3914C13.9785 24.4608 14.1174 24.5303 14.3256 24.6691C14.395 24.7385 14.4645 24.808 14.395 24.9468ZM15.7835 25.9881C15.7141 26.0575 15.7141 26.0575 15.6446 26.0575C15.5752 26.0575 15.5752 26.0575 15.5058 25.9881C15.3669 25.8493 15.2281 25.7799 15.0893 25.641C15.0198 25.5716 14.9504 25.4327 15.0198 25.3633C15.0893 25.2939 15.2281 25.2245 15.2975 25.2939C15.4364 25.4328 15.6446 25.5022 15.7835 25.641C15.8529 25.7104 15.8529 25.8493 15.7835 25.9881ZM15.6446 6.75837C15.4364 6.75837 15.2281 6.68895 15.0198 6.61952C14.881 6.61952 14.8116 6.48068 14.881 6.34184C14.881 6.20299 15.0198 6.13357 15.1587 6.20299C15.2975 6.27242 15.5058 6.27242 15.7141 6.34184C15.8529 6.34184 15.9223 6.48068 15.9223 6.61952C15.8529 6.68895 15.7835 6.75837 15.6446 6.75837ZM17.2413 25.7104C17.1025 25.8493 16.9636 25.9187 16.8248 26.0575C16.7554 26.0575 16.7554 26.127 16.686 26.127C16.6165 26.127 16.5471 26.127 16.5471 26.0575C16.4777 25.9881 16.4777 25.8493 16.5471 25.7104C16.686 25.5716 16.8248 25.4327 17.0331 25.3633C17.1025 25.2939 17.2413 25.2939 17.3108 25.4328C17.3108 25.5022 17.3108 25.641 17.2413 25.7104ZM17.4496 6.61952C17.2413 6.68895 17.0331 6.75837 16.8248 6.75837H16.7554C16.6165 6.75837 16.5471 6.68894 16.5471 6.5501C16.5471 6.41126 16.6165 6.34184 16.7554 6.27242C16.9636 6.27242 17.1025 6.20299 17.3108 6.13357C17.4496 6.06415 17.519 6.13357 17.5884 6.27242C17.6579 6.48068 17.5884 6.5501 17.4496 6.61952ZM18.6992 24.808C18.5603 24.8774 18.3521 24.9468 18.2132 25.0856C18.2132 25.0856 18.1438 25.0856 18.0744 25.0856C18.005 25.0856 17.9355 25.0162 17.8661 24.9468C17.7967 24.808 17.8661 24.6691 17.9355 24.6691C18.0744 24.5997 18.2827 24.4608 18.4909 24.3914C18.6298 24.322 18.7686 24.3914 18.7686 24.5303C18.838 24.5997 18.7686 24.7385 18.6992 24.808ZM19.1157 7.03605C19.0463 7.10547 18.9769 7.17489 18.9074 7.17489C18.9074 7.17489 18.838 7.17489 18.7686 7.10547C18.6298 7.03605 18.4215 6.89721 18.2827 6.75837C18.2132 6.68894 18.1438 6.5501 18.2132 6.48068C18.2827 6.41126 18.4215 6.34184 18.4909 6.41126C18.6298 6.5501 18.838 6.61952 18.9769 6.75837C19.1157 6.75837 19.1851 6.89721 19.1157 7.03605ZM20.5041 7.86911H20.4347C20.2265 7.79969 20.0876 7.73027 19.8793 7.66085C19.7405 7.59142 19.7405 7.45258 19.7405 7.38316C19.8099 7.24432 19.9488 7.24432 20.0182 7.24432C20.157 7.31374 20.3653 7.38316 20.5736 7.45258C20.7124 7.522 20.7124 7.59142 20.7124 7.73027C20.643 7.86911 20.5736 7.86911 20.5041 7.86911ZM21.1289 15.0195C21.1289 14.8807 21.2678 14.8113 21.4066 14.8113C21.5455 14.8113 21.6149 14.9501 21.6149 15.0889C21.6149 15.2972 21.5455 15.4361 21.5455 15.6443C21.5455 15.7832 21.4066 15.8526 21.3372 15.8526C21.1984 15.8526 21.1289 15.7137 21.1289 15.6443C21.1289 15.4361 21.1289 15.2278 21.1289 15.0195ZM21.476 17.5881C21.3372 17.5881 21.2678 17.5187 21.1984 17.4493C21.1984 17.241 21.1289 17.0327 21.1289 16.8245C21.1289 16.6856 21.1984 16.6162 21.3372 16.5468C21.476 16.5468 21.5455 16.6162 21.6149 16.7551C21.6149 16.9633 21.6843 17.1022 21.6843 17.3104C21.6843 17.4493 21.5455 17.5881 21.476 17.5881ZM21.8231 13.9782C21.8231 14.0476 21.6843 14.117 21.6149 14.117H21.5455C21.4066 14.117 21.3372 13.9782 21.4066 13.8394C21.476 13.6311 21.5455 13.4228 21.6149 13.284C21.6843 13.1451 21.7537 13.1451 21.8926 13.1451C22.0314 13.2146 22.0314 13.284 22.0314 13.4228C21.8926 13.6311 21.8926 13.8394 21.8231 13.9782ZM21.476 8.28564C21.3372 8.28564 21.2678 8.1468 21.3372 8.00795C21.4066 7.86911 21.476 7.79969 21.6149 7.86911C21.8231 7.93853 21.962 7.93853 22.1703 8.00795C22.3091 8.00795 22.3785 8.1468 22.3091 8.28564C22.3091 8.42448 22.1703 8.42448 22.1008 8.42448H22.0314C21.8926 8.35506 21.6843 8.35506 21.476 8.28564ZM22.7951 11.965C22.6562 12.1038 22.5868 12.2427 22.4479 12.4509C22.3785 12.5204 22.3091 12.5204 22.2397 12.5204C22.1703 12.5204 22.1703 12.5204 22.1008 12.5204C21.962 12.4509 21.962 12.3121 22.0314 12.2427C22.1008 12.1038 22.2397 11.8956 22.3785 11.7567C22.4479 11.6873 22.5868 11.6179 22.6562 11.6873C22.8645 11.7567 22.8645 11.8956 22.7951 11.965ZM23.0727 8.42448C23.0727 8.28564 23.2116 8.21622 23.3504 8.21622C23.5587 8.21622 23.6975 8.28564 23.9058 8.28564C24.0446 8.28564 24.1141 8.42448 24.1141 8.4939C24.1141 8.63275 23.9752 8.70217 23.9058 8.70217C23.6975 8.70217 23.4893 8.63275 23.3504 8.63275C23.1422 8.63275 23.0727 8.4939 23.0727 8.42448ZM23.9752 10.7848C23.8364 10.9237 23.6975 10.9931 23.5587 11.1319C23.4893 11.2013 23.4893 11.2013 23.4198 11.2013C23.3504 11.2013 23.281 11.2013 23.281 11.1319C23.2116 11.0625 23.2116 10.9237 23.281 10.8542C23.4198 10.7154 23.5587 10.5765 23.767 10.4377C23.8364 10.3683 23.9752 10.3683 24.0446 10.5071C24.1141 10.5765 24.1141 10.7154 23.9752 10.7848ZM24.9471 9.95176C24.9471 10.0906 24.8083 10.16 24.7389 10.16C24.6 10.16 24.5306 10.0212 24.5306 9.88233L24.3223 9.53523C24.2529 9.39638 24.3223 9.25754 24.3917 9.25754C24.4612 9.18812 24.6 9.25754 24.6694 9.32696L24.8777 9.67407C24.9471 9.74349 25.0165 9.81291 24.9471 9.95176C25.0165 9.95176 25.0165 9.88233 24.9471 9.95176Z" fill="white"/>
<path d="M23.1423 17.5188C23.0728 17.3106 23.0034 17.1023 23.0034 16.894L19.0464 25.8494C19.2547 25.78 19.4629 25.6412 19.6018 25.5717L23.1423 17.5188Z" fill="#81592D"/>
<path d="M26.8216 21.476C26.7522 21.3371 26.6828 21.2677 26.544 21.1983C24.8084 20.5735 23.6977 19.3933 23.1423 17.5884L19.6018 25.5719C20.5737 25.1553 21.615 24.9471 22.6564 24.9471C23.1423 24.9471 23.6283 25.0165 24.1142 25.0859C24.1836 25.0859 24.253 25.0859 24.3919 25.0859H24.4613C24.8084 25.0859 25.0861 24.8776 25.2944 24.5999L26.8216 21.8925C26.8216 21.7537 26.8216 21.6148 26.8216 21.476Z" fill="#BA9C88"/>
<path d="M19.324 17.7965C18.8381 17.7965 18.3521 17.7271 17.8662 17.6577C17.7968 17.6577 17.7274 17.6577 17.5885 17.6577H17.5191C17.172 17.6577 16.8943 17.8659 16.686 18.1436L15.1588 20.8511C15.0893 20.9899 15.0893 21.1288 15.1588 21.2676C15.2282 21.4064 15.2976 21.4759 15.4364 21.5453C17.172 22.1701 17.9356 22.2395 18.7687 23.9056C19.1852 24.6692 18.9075 25.5717 18.9075 25.78L19.81 23.7668V23.6973C19.7406 23.5585 19.81 23.4891 19.9488 23.4197H20.0183L22.1009 18.7684C21.9621 18.8378 21.8926 18.8378 21.7538 18.8378C21.615 18.8378 21.5455 18.8378 21.4761 18.699C21.4761 18.5602 21.5455 18.4907 21.615 18.4213C21.8232 18.3519 21.9621 18.3519 22.1703 18.2825H22.2397C22.2397 18.2825 22.2397 18.2825 22.3092 18.2825L22.934 16.894C22.3092 18.2131 20.6431 17.7965 19.324 17.7965ZM17.6579 19.7403L17.3802 20.2957C17.3108 20.4345 17.2414 20.4345 17.1026 20.4345C16.9637 20.2957 16.9637 20.1569 16.9637 20.0874C16.9637 20.0874 16.9637 20.0874 16.9637 20.018L17.2414 19.5321C17.3108 19.4626 17.3802 19.3932 17.4497 19.3932H17.5191C17.6579 19.4626 17.7274 19.6015 17.6579 19.7403ZM18.6298 21.4064C18.5604 21.4759 18.4216 21.4759 18.2827 21.4064C18.1439 21.2676 18.005 21.1982 17.8662 21.0593C17.7968 20.9899 17.7274 20.8511 17.7968 20.7816C17.8662 20.7122 17.9356 20.7122 18.005 20.7122C18.0745 20.7122 18.0745 20.7122 18.1439 20.7816C18.2827 20.9205 18.491 21.0593 18.6298 21.1982C18.6993 21.1982 18.6993 21.337 18.6298 21.4064ZM18.8381 19.185C18.6298 19.185 18.4216 19.185 18.2133 19.1155C18.0745 19.1155 18.005 18.9767 18.005 18.9073C18.005 18.7684 18.0745 18.699 18.2133 18.699C18.4216 18.699 18.5604 18.7684 18.7687 18.7684C18.9075 18.7684 18.9769 18.9073 18.9769 18.9767C18.9769 19.0461 18.9769 19.185 18.8381 19.185ZM19.6712 22.7949C19.5323 22.8643 19.4629 22.7949 19.3935 22.7254C19.324 22.5866 19.1852 22.3783 19.0464 22.2395C18.9769 22.1701 18.9769 22.0312 19.1158 21.9618C19.1852 21.9618 19.1852 21.8924 19.2546 21.8924C19.324 21.8924 19.3935 21.8924 19.3935 21.9618C19.5323 22.1007 19.6017 22.3089 19.7406 22.4478C19.81 22.5866 19.7406 22.7254 19.6712 22.7949ZM20.6431 19.1155C20.4348 19.1155 20.2265 19.185 20.0877 19.185C19.9488 19.185 19.8794 19.1155 19.8794 18.9767C19.8794 18.8378 19.9488 18.7684 20.0877 18.7684C20.2959 18.7684 20.4348 18.7684 20.6431 18.699C20.7819 18.699 20.8513 18.7684 20.8513 18.9073C20.8513 19.0461 20.7125 19.1155 20.6431 19.1155Z" fill="#81592D"/>
</g>
<defs>
<clipPath id="clip0_206_45857">
<rect width="32" height="32" rx="16" fill="white"/>
</clipPath>
</defs>
</svg>
