<svg width="32" height="32" viewBox="0 0 32 32" fill="none" xmlns="http://www.w3.org/2000/svg">
<g clip-path="url(#clip0_144_25528)">
<rect width="32" height="32" rx="16" fill="#95AD0D"/>
<path d="M16.1999 31.9999C24.926 31.9999 31.9999 24.926 31.9999 16.1999C31.9999 7.4738 24.926 0.399902 16.1999 0.399902C7.4738 0.399902 0.399902 7.4738 0.399902 16.1999C0.399902 24.926 7.4738 31.9999 16.1999 31.9999Z" fill="#95AD0D"/>
<path d="M23.9039 20.509C23.9692 20.509 23.9692 20.5743 23.9692 20.6396C23.7734 22.2065 22.8593 23.5776 21.6188 24.4916C20.2477 25.471 18.4849 25.7974 16.918 25.4057C15.2205 25.014 13.7841 23.7735 13.0659 22.2065C12.87 21.8148 12.7395 21.3578 12.6742 20.9007C12.6742 20.8354 12.6742 20.7702 12.6089 20.7049C12.6089 20.6396 12.6089 20.6396 12.6089 20.5743C12.6742 20.4437 12.8048 20.509 12.87 20.5743C13.1312 20.6396 13.3924 20.7049 13.5882 20.7702C13.7841 20.8354 13.9147 20.8354 14.1105 20.9007C14.9593 21.0966 15.8733 21.2272 16.7874 21.2925C18.8114 21.4883 20.8353 21.2925 22.794 20.7702C22.9246 20.7049 23.0552 20.7049 23.1857 20.6396C23.3816 20.5743 23.4469 20.5743 23.5775 20.509C23.7081 20.509 23.8386 20.4437 23.9039 20.509Z" fill="white"/>
<path d="M23.6429 20.2477C23.7735 20.313 23.5776 20.3783 23.5776 20.3783C23.447 20.4436 23.3164 20.4436 23.1859 20.5088C23.0553 20.5741 22.9247 20.5741 22.7941 20.6394C22.6635 20.7047 22.533 20.7047 22.4024 20.7047C22.1412 20.77 21.8801 20.6394 21.6189 20.5741C21.0313 20.4436 20.4437 20.3783 19.9214 20.313C18.7462 20.1824 17.5057 20.2477 16.3305 20.3783C15.6776 20.4436 15.09 20.5741 14.4371 20.7047C14.3718 20.7047 14.3065 20.7047 14.2412 20.7047C13.8495 20.5741 13.4578 20.5088 13.066 20.3783C13.0007 20.313 13.0007 20.2477 13.0007 20.1824C13.7842 19.9212 14.5677 19.7254 15.3511 19.5948C15.7429 19.5295 16.1346 19.4642 16.5264 19.4642C17.2445 19.3989 17.9627 19.3989 18.7462 19.3989C19.6602 19.3989 20.509 19.5295 21.423 19.6601C22.2065 19.7907 22.9247 19.9865 23.6429 20.2477Z" fill="white"/>
<path d="M27.1685 7.1245C24.6222 9.60549 22.0107 8.16913 21.0313 7.45095C20.8355 7.25508 20.509 7.38566 20.3784 7.64682C19.6602 9.01789 18.1586 9.86665 16.5264 9.73607C14.0454 9.54021 13.2619 7.90797 12.6743 6.99392C12.4784 6.66748 11.9561 6.66748 11.695 6.92863C10.128 8.82202 7.71232 10.1278 4.7743 9.86665C4.51314 9.86665 4.31728 9.80136 4.05612 9.73607C3.79496 9.67078 3.5338 9.60549 3.27265 9.47492C3.14207 9.40963 3.07678 9.21376 3.14207 9.08318C5.55777 4.51293 10.3892 1.44434 15.9388 1.44434C20.4437 1.44434 24.4917 3.4683 27.1685 6.73277C27.2338 6.86334 27.2338 6.99392 27.1685 7.1245Z" fill="white"/>
<path d="M16.5916 18.8767C16.6569 18.942 16.6569 19.0726 16.5263 19.0726L15.1552 19.1379C15.1552 19.1379 15.1552 19.1379 15.0899 19.1379L12.0213 17.7015L11.9561 17.6362C11.9561 17.375 11.9561 17.1139 11.9561 16.918C11.9561 16.8527 12.0213 16.7874 12.0866 16.8527L16.5916 18.8767Z" fill="white"/>
<path d="M12.152 20.8356C12.152 20.9009 12.152 20.9009 12.152 20.8356C12.152 20.9009 12.0867 20.9009 12.0867 20.9009C11.9561 20.8356 11.8255 20.7703 11.6949 20.7703C10.1933 20.1827 8.2999 19.4645 7.0594 18.9422C6.86353 18.8769 6.66767 18.8117 6.53709 18.7464C6.34122 18.6811 6.14535 18.5505 6.01477 18.4852C5.94948 18.4852 5.94949 18.4199 5.8842 18.4199C5.68833 18.2893 5.55775 18.2241 5.36188 18.0935C4.6437 17.6364 4.18667 17.0488 4.18667 16.4612C4.12139 15.6125 4.57841 15.0249 5.03544 14.6984C5.10072 14.6331 5.16601 14.6984 5.16601 14.7637C5.16601 14.9596 5.2313 15.2207 5.2313 15.4166V15.4819C5.03544 15.6778 4.90486 15.9389 4.97015 16.3307C4.97015 16.6571 5.10072 16.9183 5.36188 17.1794L5.42717 17.2447C5.49246 17.31 5.55775 17.3753 5.62304 17.3753C5.68833 17.4406 5.81891 17.5059 5.8842 17.5712C5.8842 17.5712 5.8842 17.5712 5.94949 17.5712C6.21064 17.767 6.53709 17.8976 6.86353 18.0935C6.92882 18.0935 6.99411 18.1588 7.0594 18.1588C8.16932 18.6158 10.128 19.3993 11.7602 19.9869C11.8908 20.0522 12.0214 20.0522 12.0867 20.1174C12.152 20.1174 12.152 20.1827 12.152 20.248C12.0867 20.5092 12.0867 20.6398 12.152 20.8356Z" fill="white"/>
<path d="M6.40645 28.0171C6.14529 27.7559 5.94943 27.3642 5.94943 26.9725C6.01472 24.8832 5.88414 21.4882 5.81885 19.1377C5.81885 19.0725 5.88414 19.0072 5.94943 19.0725L6.27587 19.203C6.40645 19.2683 6.60232 19.3336 6.79819 19.3989C8.16926 19.9865 10.3238 20.77 11.5643 21.2923L11.6296 21.3576C11.7602 24.2956 11.956 28.1477 12.0866 30.4328C12.0866 30.7592 11.7602 31.0204 11.499 30.8898C9.60563 30.3022 7.9081 29.3229 6.40645 28.0171Z" fill="white"/>
<path d="M11.5643 19.399C11.5643 19.4643 11.499 19.5296 11.4337 19.4643C9.40971 18.6808 7.90806 18.0932 7.0593 17.7668H6.99401C6.92872 17.7668 6.92872 17.7668 6.92872 17.7015C6.60228 17.5709 6.34112 17.3751 6.07996 17.2445C5.94938 17.1792 5.8188 17.0486 5.75351 16.9833C5.75351 16.5263 5.68823 16.0693 5.68823 15.6775C5.68823 15.6122 5.68823 15.4817 5.68823 15.4164C5.68823 15.3511 5.68823 15.2205 5.68823 15.1552C5.68823 14.8941 5.62294 14.6329 5.62294 14.3717C5.62294 14.1759 5.62294 14.0453 5.55765 13.9147C5.49236 13.0007 5.29649 11.499 5.2312 10.9114C5.2312 10.7808 5.29649 10.6503 5.42707 10.6503C5.62294 10.6503 5.8188 10.6503 5.94938 10.6503C7.45104 10.6503 9.86674 9.8015 11.1072 8.62629C11.2378 8.49571 11.499 8.62629 11.499 8.82216C11.4337 10.3891 11.4337 13.0007 11.499 16.004C11.499 16.1998 11.499 16.3957 11.499 16.5263C11.499 16.8527 11.499 17.1792 11.499 17.4403C11.499 17.5056 11.499 17.5709 11.499 17.6362C11.499 17.7668 11.499 17.8974 11.499 17.9627C11.5643 18.4197 11.5643 18.942 11.5643 19.399Z" fill="white"/>
<path d="M18.4196 15.9383C18.4196 16.2647 18.1585 16.4606 17.832 16.4606C17.6361 16.4606 17.4403 16.3953 17.375 16.1994L15.2204 13.392V16.0036C15.2204 16.2647 15.0246 16.4606 14.7634 16.4606C14.5023 16.4606 14.3064 16.2647 14.3064 16.0036V12.2821C14.3064 12.0209 14.5676 11.7598 14.8287 11.7598C15.0246 11.7598 15.2204 11.8903 15.2857 12.0209L17.4403 14.8284V12.2168C17.4403 11.9556 17.6361 11.7598 17.8973 11.7598C18.1585 11.7598 18.3543 11.9556 18.3543 12.2168V15.9383H18.4196Z" fill="white"/>
<path d="M20.2478 16.0037C20.2478 16.2649 19.9866 16.4607 19.7908 16.4607C19.5296 16.4607 19.3337 16.2649 19.3337 16.0037V12.2822C19.3337 12.0211 19.5296 11.8252 19.7908 11.8252H21.3577C21.8147 11.8252 22.2065 11.8905 22.5329 12.1516C22.8594 12.4128 23.0552 12.8045 23.0552 13.3268C23.0552 13.7839 22.8594 14.1756 22.5329 14.4368C22.4023 14.5021 22.337 14.5673 22.2065 14.6326L22.9899 15.7426C23.0552 15.8078 23.0552 15.9384 23.0552 16.0037C23.0552 16.2649 22.8594 16.526 22.5982 16.526C22.4023 16.526 22.2718 16.4607 22.2065 16.2649L21.2271 14.8285H20.3131V16.0037H20.2478ZM20.2478 12.6087V13.9797H21.2271C21.423 13.9797 21.6189 13.9797 21.7494 13.8492C21.9453 13.7186 22.0106 13.588 22.0106 13.2616C22.0106 13.0004 21.88 12.8045 21.7494 12.7392C21.6189 12.674 21.423 12.6087 21.2271 12.6087H20.2478Z" fill="white"/>
<path d="M16.1999 1.57511C24.2305 1.57511 30.8247 8.10404 30.8247 16.1999C30.8247 24.2958 24.2958 30.8247 16.1999 30.8247C8.16933 30.8247 1.57511 24.2958 1.57511 16.1999C1.57511 8.10404 8.10404 1.57511 16.1999 1.57511ZM16.1999 0.399902C7.45114 0.399902 0.399902 7.45114 0.399902 16.1999C0.399902 24.9487 7.45114 31.9999 16.1999 31.9999C24.9487 31.9999 31.9999 24.9487 31.9999 16.1999C31.9999 7.45114 24.8834 0.399902 16.1999 0.399902Z" fill="#95AD0D"/>
</g>
<defs>
<clipPath id="clip0_144_25528">
<rect width="32" height="32" rx="16" fill="white"/>
</clipPath>
</defs>
</svg>
