<svg width="32" height="32" viewBox="0 0 32 32" fill="none" xmlns="http://www.w3.org/2000/svg">
<g clip-path="url(#clip0_144_24006)">
<rect width="32" height="32" rx="16" fill="#BE2026"/>
<path d="M16.0999 0.200195C7.32526 0.200195 0.199951 7.3255 0.199951 16.1002C0.199951 24.8749 7.32526 32.0002 16.0999 32.0002C24.8746 32.0002 32 24.8749 32 16.1002C32 7.3255 24.8746 0.200195 16.0999 0.200195ZM16.0999 31.0765C7.85306 31.0765 1.1236 24.3471 1.1236 16.1002C1.1236 7.85331 7.85306 1.12385 16.0999 1.12385C24.3468 1.12385 31.0763 7.85331 31.0763 16.1002C31.0763 24.3471 24.3468 31.0765 16.0999 31.0765Z" fill="#BE2026"/>
<path d="M16.0999 1.12402C7.853 1.12402 1.12354 7.85348 1.12354 16.1004C1.12354 24.3473 7.853 31.0767 16.0999 31.0767C24.3468 31.0767 31.0762 24.3473 31.0762 16.1004C31.0762 7.85348 24.3468 1.12402 16.0999 1.12402ZM16.0999 29.8232C8.51275 29.8232 2.31109 23.6875 2.31109 16.1004C2.31109 8.51324 8.51275 2.31158 16.0999 2.31158C23.687 2.31158 29.8227 8.44726 29.8227 16.0344C29.8227 23.6215 23.687 29.8232 16.0999 29.8232Z" fill="white"/>
<path d="M16.0998 2.31152C8.51269 2.31152 2.31104 8.51318 2.31104 16.1003C2.31104 23.6875 8.44672 29.8231 16.0339 29.8231C23.621 29.8231 29.7567 23.6215 29.7567 16.1003C29.7567 8.57916 23.687 2.31152 16.0998 2.31152ZM16.0998 28.8995C9.0405 28.8995 3.23469 23.1597 3.23469 16.0343C3.23469 8.97501 8.97452 3.1692 16.0998 3.1692C23.2251 3.1692 28.965 8.90903 28.965 16.0343C28.899 23.1597 23.1592 28.8995 16.0998 28.8995Z" fill="#BE2026"/>
<path d="M28.8034 18.1298C29.9416 11.1163 25.1787 4.50792 18.1652 3.36966C11.1516 2.2314 4.54325 6.99428 3.40499 14.0078C2.26673 21.0214 7.02961 27.6298 14.0432 28.768C21.0567 29.9063 27.6651 25.1434 28.8034 18.1298Z" fill="#BE2026"/>
<path d="M11.8776 19.3331C11.8776 19.8609 11.4157 20.2567 10.8879 20.2567C10.5581 20.2567 10.2282 20.0588 10.0303 19.8609L6.26968 14.9127V19.531C6.26968 19.9268 5.87383 20.3227 5.47798 20.3227C5.01615 20.3227 4.68628 19.9928 4.68628 19.531V12.8675C4.68628 12.3397 5.08213 11.9438 5.67591 11.9438C6.00578 11.9438 6.33566 12.1418 6.53358 12.4057L10.2942 17.3538V12.8015C10.2942 12.4057 10.69 12.0098 11.0859 12.0098C11.4817 12.0098 11.8776 12.3397 11.8776 12.8015V19.3331Z" fill="white"/>
<path d="M16.8257 20.1247H14.3186C13.8568 20.1247 13.4609 19.7289 13.4609 19.267V12.8674C13.4609 12.4056 13.8568 12.0098 14.3186 12.0098H16.3638C17.5514 12.0098 18.8049 12.6695 18.8049 14.055C18.8049 14.8467 18.475 15.5064 17.8153 15.7703C19.0028 16.0342 19.4647 16.76 19.4647 17.8815C19.5306 19.465 18.2111 20.1247 16.8257 20.1247ZM16.0999 13.3952H15.1763V15.3085H16.0999C16.5618 15.3085 17.1555 15.1106 17.1555 14.3189C17.1555 13.7251 16.6937 13.3952 16.0999 13.3952ZM16.4298 16.694H15.2423V18.7392H16.4958C17.2215 18.7392 17.8153 18.5413 17.8153 17.7496C17.8153 17.0898 17.4194 16.694 16.4298 16.694Z" fill="white"/>
<path d="M22.5655 19.399C22.5655 19.8608 22.1696 20.2567 21.7078 20.2567C21.246 20.2567 20.8501 19.8608 20.8501 19.399V12.8674C20.8501 12.4056 21.246 12.0098 21.7078 12.0098H24.4787C25.2704 12.0098 25.9962 12.1417 26.524 12.5376C27.1177 12.9994 27.4476 13.7251 27.4476 14.6488C27.4476 15.4405 27.1177 16.1002 26.524 16.628C26.326 16.76 26.1281 16.8919 25.9302 17.0239L27.2497 18.9372C27.3816 19.0691 27.3816 19.267 27.3816 19.399C27.3816 19.8608 26.9858 20.2567 26.524 20.2567C26.1941 20.2567 25.9962 20.1247 25.7982 19.8608L24.1489 17.3537H22.4995V19.399H22.5655ZM22.5655 13.4612V15.8363H24.3468C24.6767 15.8363 25.0065 15.7703 25.2704 15.6384C25.6003 15.4405 25.7323 15.1106 25.7323 14.6488C25.7323 14.1869 25.5343 13.8571 25.2704 13.6591C25.0065 13.4612 24.6767 13.4612 24.3468 13.4612H22.5655Z" fill="white"/>
</g>
<defs>
<clipPath id="clip0_144_24006">
<rect width="32" height="32" rx="16" fill="white"/>
</clipPath>
</defs>
</svg>
