<svg width="84" height="32" viewBox="0 0 84 32" fill="none" xmlns="http://www.w3.org/2000/svg">
<path d="M6.6182 1.08447C6.19901 1.08447 5.58635 1.19733 4.48193 1.51979V7.5336C5.4493 7.80769 6.19901 7.96892 6.6182 7.96892C7.59363 7.96892 8.14181 7.41268 8.14181 6.52593V2.53553C8.14181 1.64071 7.59363 1.08447 6.6182 1.08447ZM6.94066 6.3647C6.94066 6.71134 6.71495 6.83226 6.44892 6.83226C6.23932 6.83226 5.91686 6.75971 5.65084 6.69522V2.35818C5.91686 2.29369 6.23932 2.22113 6.44892 2.22113C6.71495 2.22113 6.94066 2.33399 6.94066 2.68064V6.3647Z" fill="white"/>
<path d="M20.5563 0.00422122C19.3229 -0.0522087 18.5894 0.45566 18.5894 1.6165V7.38042C18.5894 8.60575 19.2585 9.10556 20.5563 9.05719C21.83 9.00882 22.4991 8.55739 22.4991 7.25144V1.74549C22.4991 0.504032 21.8945 0.0687125 20.5563 0.00422122ZM21.1529 7.27562C21.1529 7.62226 21.0239 7.80767 20.5563 7.81573C20.0727 7.82379 19.9356 7.63838 19.9356 7.27562V1.7858C19.9356 1.42304 20.0646 1.2215 20.5563 1.23762C21.0239 1.25375 21.1529 1.43916 21.1529 1.7858V7.27562Z" fill="white"/>
<path d="M34.9465 4.51013C34.9465 5.34045 34.0758 6.12241 32.5603 6.79151V2.25293C34.0758 2.91397 34.9465 3.68786 34.9465 4.51013Z" fill="white"/>
<path d="M0 4.51013C0 5.34045 0.870626 6.12241 2.38617 6.79151V2.25293C0.870626 2.91397 0 3.68786 0 4.51013Z" fill="white"/>
<path d="M11.5447 7.07366C11.5447 7.4203 11.4157 7.64602 10.9481 7.58959C10.4886 7.53316 10.3677 7.35581 10.3677 6.94468V0.398814C10.0614 0.43106 9.38421 0.519731 9.09399 0.551977V7.1704C9.09399 8.22645 9.65023 8.63758 10.9562 8.77462C12.1493 8.9036 12.8829 8.33931 12.8829 7.1704V0.181152C12.633 0.197275 11.8187 0.26177 11.5527 0.285955V7.07366H11.5447Z" fill="white"/>
<path d="M26.1999 4.91361L24.7246 0.439526C24.3215 0.391158 23.8379 0.342793 23.459 0.310547V8.75891C23.725 8.73472 24.3941 8.66217 24.7407 8.62186L24.6359 3.63991L26.1999 8.42839C26.5304 8.38002 27.0141 8.29941 27.3365 8.24298V0.818414C27.006 0.753922 26.4014 0.665249 26.1112 0.624942L26.1999 4.91361Z" fill="white"/>
<path d="M15.7682 0.0522461C15.5344 0.0522461 14.688 0.0764274 13.9141 0.124796V8.92786C14.1801 8.94398 14.8734 8.97623 15.2442 8.98429V5.9935H15.7682C17.1628 5.98544 17.7432 5.41309 17.7432 4.29255V1.69677C17.7432 0.600423 17.0903 0.0522461 15.7682 0.0522461ZM16.397 4.19581C16.397 4.5747 16.2519 4.76817 15.7118 4.76817H15.2442V1.2937C15.4538 1.28564 15.5666 1.27758 15.6876 1.27758C16.2761 1.27758 16.397 1.48718 16.397 1.87413V4.19581Z" fill="white"/>
<path d="M27.9898 2.10812C28.3203 2.16455 28.6427 2.22098 28.9571 2.28547V7.90428C29.2473 7.83979 29.7874 7.7108 30.1502 7.61407V2.5515C30.4969 2.63211 30.8193 2.72079 31.1176 2.79334V1.71311C30.1744 1.40678 29.1667 1.15687 27.9817 0.931152V2.10812H27.9898Z" fill="white"/>
<path d="M33.7291 7.35651H33.5115V7.24365H34.0838V7.35651H33.8662V7.89662H33.7291V7.35651ZM34.237 7.24365H34.3821L34.5917 7.54998L34.8013 7.24365H34.9383V7.89662H34.8094V7.42907L34.5917 7.74346H34.5756L34.3579 7.42907V7.89662H34.2289V7.24365H34.237Z" fill="white"/>
<path d="M33.1978 31.1214C31.9725 31.6374 30.1586 32.0001 28.3206 32.0001C23.8385 32.0001 20.7751 29.3641 20.7751 25.0673C20.7751 20.956 23.5886 18.1587 27.6838 18.1587C31.3275 18.1587 33.7298 20.5691 33.7298 24.0355C33.7298 24.8094 33.6734 25.4865 33.617 26.0024H24.8139C25.1767 28.0742 26.4826 29.0013 28.7156 29.0013C30.078 29.0013 31.392 28.7191 32.5851 28.2516L33.1978 31.1214ZM24.7575 23.8259H30.0458V23.5195C30.0458 22.0685 29.2074 21.0124 27.6757 21.0124C26.0634 21.0044 25.0074 22.0685 24.7575 23.8259Z" fill="white"/>
<path d="M42.307 28.824C43.9515 25.8977 45.0076 22.8989 45.2575 18.4731H49.1028C48.5465 23.6728 47.3454 27.0102 44.4513 31.6939H40.1869C37.18 27.0102 35.9224 23.6728 35.5112 18.4731H39.3807C39.6871 22.8989 40.7189 25.8977 42.307 28.824Z" fill="white"/>
<path d="M55.3895 26.905C55.3895 28.2996 55.7764 29.0493 56.897 29.0493C57.1791 29.0493 57.4532 29.0252 57.7031 28.9687L57.9853 31.7902C57.4532 31.895 56.5906 31.9998 56.0344 31.9998C52.834 31.9998 51.5522 30.057 51.5522 26.9534V13.1442L55.3976 12.9346V26.905H55.3895Z" fill="white"/>
<path d="M65.0879 32.0001C61.2748 32.0001 59.3481 30.2669 59.3481 27.9372C59.3481 25.3737 61.6053 23.8742 64.9428 23.85C65.7247 23.85 66.7243 23.9548 67.4257 24.0596V23.4389C67.4257 21.8589 66.4502 21.1092 64.5881 21.1092C63.3627 21.1092 62.0568 21.2946 60.9121 21.7299L60.2188 18.9326C61.4199 18.465 63.3385 18.1587 65.0395 18.1587C69.1347 18.1587 71.1662 20.174 71.1662 23.6727V30.8635C70.0134 31.4117 67.8691 32.0001 65.0879 32.0001ZM67.4257 29.0819V26.3168C66.7888 26.1879 66.1197 26.1072 65.4506 26.1072C64.1689 26.1072 63.1692 26.5748 63.1692 27.7921C63.1692 28.8804 64.0076 29.4447 65.4829 29.4447C66.3132 29.4447 67.0065 29.2834 67.4257 29.0819Z" fill="white"/>
<path d="M80.5416 18.1587C81.5412 18.1587 82.4924 18.2635 83.0486 18.3925L82.4924 21.3188C82.0168 21.1656 81.4364 21.1092 80.8479 21.1092C79.816 21.1092 79.1227 21.2865 78.5342 21.5445V31.6857H74.689V19.3034C76.1964 18.6021 78.5343 18.1587 80.5416 18.1587Z" fill="white"/>
<path d="M82.4116 29.7188C83.1613 29.7188 83.6531 30.1621 83.6531 30.8635C83.6531 31.5648 83.1533 32.0001 82.4116 32.0001C81.6538 32.0001 81.1702 31.5648 81.1702 30.8635C81.1702 30.1621 81.6538 29.7188 82.4116 29.7188ZM82.4116 29.9525C81.807 29.9525 81.4604 30.275 81.4604 30.8635C81.4604 31.452 81.807 31.7744 82.4116 31.7744C83.0162 31.7744 83.3629 31.452 83.3629 30.8635C83.3629 30.2831 83.0082 29.9525 82.4116 29.9525ZM81.9602 30.2589H82.3955C82.726 30.2589 82.8953 30.404 82.8953 30.6458C82.8953 30.807 82.8147 30.928 82.6535 30.9844C82.7341 31.1295 82.8469 31.2746 82.984 31.4278H82.6615C82.5406 31.2907 82.4519 31.1617 82.3874 31.0247H82.2423V31.4278H81.9682V30.2589H81.9602ZM82.2343 30.4685V30.807H82.3955C82.5487 30.807 82.6293 30.7667 82.6293 30.6378C82.6293 30.5088 82.5487 30.4685 82.3955 30.4685H82.2343Z" fill="white"/>
<path d="M4.48193 13.5796H8.46427V30.3151V31.6936H4.48193V13.5796Z" fill="white"/>
<path d="M20.2264 13.5879H15.5186L8.46484 21.8911L16.8003 31.7019H21.5001L13.1727 21.8911L20.2264 13.5879Z" fill="#FAB41C"/>
</svg>
