<svg width="32" height="32" viewBox="0 0 32 32" fill="none" xmlns="http://www.w3.org/2000/svg">
<g clip-path="url(#clip0_206_45925)">
<rect width="32" height="32" rx="16" fill="#12B5C6"/>
<path d="M15.8624 32.9998C25.3273 32.9998 33 25.327 33 15.8622C33 6.39737 25.3273 -1.27539 15.8624 -1.27539C6.39761 -1.27539 -1.27515 6.39737 -1.27515 15.8622C-1.27515 25.327 6.39761 32.9998 15.8624 32.9998Z" fill="#ECA94B"/>
<path d="M27.619 15.8624C27.619 12.1357 25.823 8.59186 22.8176 6.38235C22.6998 6.29579 22.5796 6.21164 22.4594 6.1299C21.6131 5.55528 20.7019 5.09606 19.7474 4.76427L19.5863 4.70898L19.5815 4.71138C18.3866 4.31227 17.1388 4.10791 15.8645 4.10791C10.0149 4.10791 5.00686 8.47405 4.21586 14.2635C4.14373 14.7901 4.10767 15.3286 4.10767 15.8648C4.10767 16.4514 4.15094 17.0404 4.23509 17.6151V17.6175L4.26154 17.7954L4.26635 17.8002C5.1992 23.4117 10.1496 27.6216 15.8621 27.6216C17.4609 27.6216 19.0069 27.3067 20.4615 26.6888C20.7235 26.5782 20.9808 26.4555 21.2332 26.3257C21.8656 26.0011 22.4666 25.6189 23.0316 25.1837C23.1446 25.0971 23.2552 25.0082 23.3658 24.9168L23.4548 24.8423C23.5197 24.8086 23.575 24.7605 23.6183 24.6956L23.6231 24.6884C26.1644 22.4476 27.619 19.2524 27.619 15.8624ZM8.4137 12.0083C9.00275 10.8278 10.289 9.13042 11.2243 8.30335C11.9696 7.64218 12.7967 7.0916 13.6814 6.66364C13.9459 6.53622 14.1719 6.89445 13.9363 7.07237C12.989 7.79605 12.1499 8.66639 11.4575 9.65936C10.6449 10.8182 10.1207 11.9314 9.75768 13.2706C9.37541 14.6843 9.15421 17.0549 9.32732 18.7932C9.34415 18.9542 9.19509 19.0865 9.03881 19.0528C8.48343 18.9326 7.93766 18.7691 7.40872 18.5623C7.31736 18.5263 7.25485 18.4373 7.25244 18.3387C7.20917 15.9802 7.65155 13.535 8.4137 12.0083ZM14.8235 9.80121C14.8836 9.70744 14.999 9.66416 15.1048 9.70023C16.5377 10.1835 18.7256 11.489 19.9542 12.6238C20.8942 13.4918 21.5819 14.3982 22.1853 15.5594C22.6445 16.4418 22.9739 17.377 23.1735 18.3363C23.2336 18.6273 22.8249 18.7523 22.7095 18.4782C22.1997 17.2616 21.4857 16.1316 20.5889 15.1435L20.5865 15.1411L20.5769 15.1291C18.8987 13.2802 16.6796 12.0179 14.2609 11.5179C14.1094 11.4866 14.0204 11.3255 14.083 11.1837C14.2969 10.7028 14.547 10.2436 14.8235 9.80121ZM13.9315 18.9903C13.8065 19.0192 13.679 18.947 13.6406 18.8268C13.316 17.7858 13.1501 16.7014 13.1501 15.5955C13.1501 14.5424 13.3016 13.5086 13.5973 12.5132C13.6334 12.3954 13.7536 12.3185 13.8762 12.3425C15.9943 12.7368 17.9562 13.7634 19.5022 15.2853C19.5935 15.3767 19.5983 15.5234 19.5142 15.6219C18.0356 17.2905 16.0881 18.4662 13.9315 18.9903ZM13.4891 19.9857L13.5011 19.9833C16.0328 19.5168 18.3385 18.2282 20.0672 16.3216C20.1681 16.211 20.3461 16.211 20.4374 16.3312C20.8293 16.8313 21.1755 17.3626 21.4713 17.9204C21.5266 18.0238 21.4977 18.1512 21.4087 18.2233C20.2355 19.1899 18.0548 20.3487 16.4896 20.8079C15.261 21.1662 14.131 21.2912 12.8231 21.2094C11.7532 21.1445 10.7074 20.9185 9.71681 20.5507C9.44273 20.4497 9.5389 20.041 9.82981 20.0794C9.83462 20.0794 9.83943 20.0818 9.84664 20.0818C10.3443 20.1468 10.8516 20.1804 11.3613 20.1804C12.0802 20.178 12.7943 20.1131 13.4891 19.9857ZM12.7702 22.087C13.0467 22.1038 13.316 22.1134 13.5805 22.1134C14.6648 22.1134 15.6674 21.9644 16.7373 21.6518C18.1486 21.2383 20.3004 20.1828 21.6924 19.1225C21.8199 19.0264 22.0074 19.0793 22.0651 19.2283C22.3007 19.8606 22.4762 20.517 22.5916 21.1854C22.6085 21.2816 22.5652 21.3801 22.481 21.433C20.4518 22.7313 18.0596 23.6498 16.3141 23.7844C14.999 23.8878 12.8808 23.657 11.6907 23.2819C10.3467 22.8612 9.10853 22.1832 8.03864 21.3008C7.81504 21.1157 8.04104 20.7671 8.3007 20.8945C9.68556 21.5821 11.2026 21.9932 12.7702 22.087ZM24.6882 19.1899C24.6593 19.4784 24.2386 19.4856 24.2049 19.1971C24.0414 17.7978 23.6279 16.425 22.9667 15.1531C22.3152 13.8957 21.5698 12.9171 20.5528 11.9747C19.4589 10.9649 17.4105 9.64493 15.7756 9.0054C15.6241 8.94529 15.5736 8.75295 15.677 8.62793C16.0809 8.14467 16.5233 7.69748 17.0041 7.29116C17.0787 7.22865 17.1845 7.21662 17.271 7.2575C19.4421 8.3298 21.4785 9.92382 22.4979 11.3592C23.2624 12.4339 24.152 14.3693 24.4429 15.5835C24.729 16.7736 24.8084 17.9925 24.6882 19.1899ZM12.9457 11.6645L12.9433 11.6693C12.4961 12.9292 12.2701 14.2491 12.2701 15.5955C12.2701 16.7327 12.4312 17.8459 12.7486 18.9206C12.7919 19.0648 12.6957 19.2163 12.5466 19.2331C12.1547 19.2764 11.7604 19.298 11.3637 19.298C11.0632 19.298 10.7651 19.2836 10.4693 19.2596C10.3588 19.25 10.265 19.1658 10.2506 19.0552C10.0366 17.5501 10.1832 15.0786 10.6112 13.499C10.9454 12.2632 11.4286 11.2341 12.1812 10.1618C12.9217 9.10397 13.8401 8.19516 14.8836 7.47148C15.1192 7.30799 15.3909 7.62054 15.2009 7.83452C14.2176 8.94769 13.4482 10.2436 12.9457 11.6645ZM13.4939 5.24994C13.7776 5.18502 13.9098 5.58894 13.643 5.70915C12.5587 6.19241 11.5416 6.84156 10.64 7.64458C9.61824 8.54859 8.26704 10.3301 7.6251 11.6164C6.87738 13.1143 6.41576 15.4055 6.37248 17.6824C6.37008 17.8699 6.17052 17.9829 6.00703 17.8892C5.74016 17.7377 5.4781 17.5742 5.22084 17.3963C5.16554 17.3025 5.11505 17.2208 5.05975 17.127C5.04052 16.9563 5.02369 16.7856 5.01167 16.6125C5.00927 16.5836 5.00926 16.5524 5.00686 16.5235C4.99484 16.3023 4.98522 16.0811 4.98522 15.86C4.98522 15.7349 4.98763 15.6123 4.99243 15.4873C5.00446 15.1146 5.03571 14.742 5.0862 14.3765C5.70891 9.82525 9.14941 6.22607 13.4939 5.24994ZM7.1178 22.3034C6.9447 22.0702 7.24523 21.7865 7.46642 21.9716C8.62528 22.9309 9.96686 23.669 11.4262 24.1258C12.513 24.4672 14.2416 24.6932 15.6169 24.6932C15.8886 24.6932 16.1458 24.6836 16.3838 24.6668C18.1942 24.5249 20.6322 23.6185 22.7263 22.325C22.7335 22.4332 22.7407 22.5414 22.7455 22.652C22.7623 23.1833 22.7431 23.7171 22.6854 24.2364C22.6542 24.2941 22.6253 24.347 22.5916 24.4047C22.433 24.5297 22.2695 24.6523 22.1036 24.7677C22.0771 24.7846 22.0531 24.8038 22.0266 24.8206C21.8439 24.9457 21.6588 25.0659 21.4689 25.1813C21.4472 25.1957 21.4232 25.2077 21.4015 25.2197C21.2068 25.3352 21.0072 25.4458 20.8053 25.5491C20.7908 25.5563 20.7764 25.5636 20.762 25.5708C20.5504 25.679 20.334 25.7799 20.1152 25.8737C18.7713 26.4459 17.3407 26.7368 15.8621 26.7368C12.3351 26.7368 9.12055 25.001 7.1178 22.3034ZM25.3012 15.3791C24.9839 14.0519 24.0486 12.0203 23.2168 10.8495C22.219 9.44538 20.3388 7.90905 18.2832 6.79107C18.1173 6.70211 18.1101 6.4689 18.2712 6.36792C18.6703 6.11787 19.0886 5.88947 19.5214 5.69232C19.5887 5.68992 19.6488 5.68751 19.7161 5.68751C19.7787 5.71156 19.8388 5.73319 19.9013 5.75964C19.9662 5.78609 20.0311 5.81253 20.096 5.83898C20.1513 5.86302 20.2066 5.88707 20.2619 5.91111C20.3268 5.93996 20.3893 5.96881 20.4543 6.00007C20.5071 6.02411 20.5624 6.05056 20.6153 6.077C20.6803 6.10826 20.7452 6.14192 20.8077 6.17558C20.8606 6.20203 20.9111 6.22847 20.964 6.25492C21.0313 6.29098 21.0962 6.32705 21.1611 6.36311C21.2092 6.38956 21.2573 6.416 21.3054 6.44485C21.3751 6.48573 21.4448 6.5266 21.5145 6.56988C21.5578 6.59632 21.6011 6.62037 21.642 6.64681C21.7213 6.6973 21.8006 6.7502 21.88 6.80309C21.9112 6.82233 21.9425 6.84396 21.9713 6.8632C22.0819 6.93773 22.1901 7.01467 22.2959 7.09401C25.0777 9.13763 26.739 12.4146 26.739 15.8624C26.739 17.2496 26.4769 18.6008 25.9792 19.8582C25.8735 20.1275 25.472 20.0217 25.5128 19.7332C25.71 18.2931 25.6475 16.8168 25.3012 15.3791Z" fill="white"/>
</g>
<defs>
<clipPath id="clip0_206_45925">
<rect width="32" height="32" rx="16" fill="white"/>
</clipPath>
</defs>
</svg>
