<svg width="32" height="32" viewBox="0 0 32 32" fill="none" xmlns="http://www.w3.org/2000/svg">
<rect width="32" height="32" rx="16" fill="#BE2026"/>
<path d="M16.2 1.3999C7.98495 1.3999 1.3999 7.98495 1.3999 16.2C1.3999 24.3498 8.05014 31 16.2 31C24.3498 31 31 24.3498 31 16.2C31 7.98495 24.3498 1.3999 16.2 1.3999ZM16.3303 29.7612C8.83253 29.8264 2.70387 23.8282 2.57347 16.3303C2.50828 8.83252 8.57173 2.70387 16.0044 2.57347C23.5022 2.50828 29.6308 8.50653 29.7612 16.0044C29.8264 23.5022 23.8282 29.696 16.3303 29.7612Z" fill="white"/>
<path d="M16.0042 2.57327C8.57153 2.70367 2.50808 8.83233 2.57327 16.3301C2.63847 23.828 8.83233 29.8262 16.3301 29.761C23.828 29.6958 29.8262 23.502 29.761 16.0042C29.6958 8.57153 23.502 2.50808 16.0042 2.57327ZM16.3301 28.8482C9.35391 28.9134 3.61645 23.3064 3.48605 16.3301C3.42085 9.35391 9.02792 3.55125 16.0042 3.48605C22.9804 3.42085 28.7831 9.02792 28.8482 16.0694C28.9134 23.0456 23.3064 28.7831 16.3301 28.8482Z" fill="#BE2026"/>
<path d="M28.8486 16.0695C28.9138 23.0457 23.3067 28.7831 16.3305 28.9135C9.35426 28.9787 3.6168 23.3717 3.4864 16.3954C3.4212 9.41921 9.02827 3.61655 16.0045 3.55135C22.9807 3.48615 28.7834 9.02802 28.8486 16.0695Z" fill="#BE2026"/>
<path d="M8.89767 12.1572C9.54965 12.1572 10.2668 12.2876 10.7884 12.744C11.3752 13.2656 11.7664 13.9828 11.7664 14.9608C11.7664 15.9387 11.3752 16.7211 10.7232 17.2427C10.1364 17.6991 9.54965 17.7643 8.89767 17.7643H7.07211V19.4595C7.07211 19.9158 6.68092 20.307 6.22453 20.307C5.76814 20.307 5.37695 19.9158 5.37695 19.4595V13.0048C5.37695 12.5484 5.76814 12.1572 6.22453 12.1572H8.89767ZM9.54965 13.9176C9.28886 13.722 9.02807 13.6568 8.63688 13.6568H7.07211V16.2647H8.63688C8.96287 16.2647 9.28886 16.1995 9.54965 16.0691C9.87565 15.8735 10.0712 15.4823 10.0712 14.9608C10.0712 14.4392 9.81045 14.1132 9.54965 13.9176Z" fill="white"/>
<path d="M17.8952 12.6136C18.0256 12.2876 18.3516 12.0269 18.7428 12.0269C19.1991 12.0269 19.5903 12.3528 19.5903 12.8744C19.5903 12.9396 19.5903 13.07 19.5251 13.1352L17.0476 19.3943C16.852 19.8507 16.4608 20.2419 15.8088 20.2419C15.1568 20.2419 14.7657 19.8507 14.5701 19.3943L12.2229 13.2004C12.1577 13.1352 12.1577 13.0048 12.1577 12.9396C12.1577 12.4832 12.5489 12.0921 13.0705 12.0921C13.4617 12.0921 13.7225 12.2876 13.8529 12.6788L15.8088 18.1555L17.8952 12.6136Z" fill="white"/>
<path d="M26.1101 13.9828C25.5885 13.9828 25.3929 13.5916 24.3497 13.5916C22.9806 13.5916 21.8722 14.7 21.8722 16.1995C21.8722 17.6991 22.9806 18.8075 24.3497 18.8075C25.4581 18.8075 25.7189 18.4163 26.2405 18.4163C26.6969 18.4163 27.0229 18.7423 27.0229 19.1987C27.0229 19.5898 26.6969 19.8506 26.3057 20.0462C25.7841 20.2418 25.1321 20.3722 24.3497 20.3722C21.9374 20.3722 20.0466 18.8075 20.0466 16.2647C20.0466 13.9176 22.0678 12.1572 24.3497 12.1572C25.1321 12.1572 25.6537 12.2876 26.1753 12.4832C26.5665 12.6136 26.8273 12.8744 26.8273 13.2656C26.8925 13.6568 26.5013 13.9828 26.1101 13.9828Z" fill="white"/>
</svg>
