<svg width="32" height="32" viewBox="0 0 32 32" fill="none" xmlns="http://www.w3.org/2000/svg">
<g clip-path="url(#clip0_206_45865)">
<rect width="32" height="32" rx="16" fill="#BE2026"/>
<path d="M31.0664 15.7012C31.0664 24.1752 24.1708 31.0777 15.6968 31.0777C7.21587 31.0777 0.327148 24.1752 0.327148 15.7012C0.327148 7.2272 7.21587 0.331543 15.6968 0.331543C24.1685 0.331543 31.0664 7.22951 31.0664 15.7012Z" fill="#9A7EBD"/>
<path d="M5.75998 6.05078C5.46881 6.05078 5.19151 6.18712 5.02281 6.42976L3.14176 9.24441L2.31677 7.98498C1.99094 8.56039 1.69977 9.1566 1.4502 9.77129L2.27518 10.9961V13.7229C2.27518 14.2036 2.68189 14.5756 3.15562 14.5756C3.62935 14.5756 4.03607 14.2036 4.03607 13.7229V11.0122L6.45787 7.45348C6.56648 7.29865 6.62656 7.08836 6.62656 6.89194C6.62656 6.4159 6.24757 6.05078 5.75998 6.05078Z" fill="white"/>
<path d="M5.53832 15.8584C5.24715 15.8584 4.96985 15.9947 4.79422 16.2374L2.9201 19.052L1.07833 16.2512C0.9235 15.9947 0.639264 15.8584 0.348093 15.8584C0.341161 15.8584 0.341161 15.8584 0.334229 15.8584C0.348094 16.8405 0.463637 17.8065 0.660061 18.7354L2.05352 20.806V22.62C2.36549 23.2301 2.72367 23.8101 3.12346 24.367C3.50937 24.2931 3.81441 23.9534 3.81441 23.5421V20.8222L6.23621 17.2634C6.34482 17.1086 6.4049 16.8983 6.4049 16.7019C6.4049 16.2235 6.02592 15.8584 5.53832 15.8584Z" fill="white"/>
<path d="M5.31392 25.6631C5.02275 25.6631 4.73851 25.7994 4.56982 26.0421L4.53516 26.0952C4.94187 26.5274 5.374 26.941 5.83387 27.32L6.00949 27.0635C6.11811 26.9086 6.17819 26.6984 6.17819 26.5019C6.1805 26.0282 5.80152 25.6631 5.31392 25.6631Z" fill="white"/>
<path d="M14.3773 1.63232C13.9174 1.63232 13.5384 1.99744 13.5384 2.43882V7.1299L9.67463 2.08063C9.53367 1.88421 9.33031 1.73631 9.09229 1.66699C8.67171 1.87034 8.26731 2.09219 7.86752 2.33021C7.83979 2.40416 7.82593 2.49197 7.82593 2.57978V9.36683C7.82593 9.80589 8.19105 10.1595 8.65091 10.1595C9.11771 10.1595 9.49669 9.8082 9.49669 9.36683V4.66419L13.3535 9.72039C13.55 9.99076 13.855 10.1595 14.2063 10.1595C14.7678 10.1595 15.2207 9.74581 15.2207 9.212V2.43651C15.223 1.99744 14.8441 1.63232 14.3773 1.63232Z" fill="white"/>
<path d="M22.8973 1.97664C22.754 1.76635 22.5044 1.63926 22.2202 1.63232H22.1994C21.9082 1.63232 21.624 1.76867 21.4553 2.01131L19.5812 4.82595L17.7394 2.01824C17.5846 1.76867 17.3003 1.63232 17.0092 1.63232C16.5216 1.63232 16.1426 1.98358 16.1426 2.47117C16.1426 2.6676 16.2027 2.86402 16.3113 3.01885L18.7146 6.5776V9.30443C18.7146 9.77816 19.1144 10.1571 19.595 10.1571C20.0688 10.1571 20.4685 9.77816 20.4685 9.30443V6.59146L22.8973 3.03271C23.0059 2.87095 23.066 2.6676 23.066 2.47117C23.066 2.28168 23.0059 2.11299 22.8973 1.97664Z" fill="white"/>
<path d="M14.1529 11.4375C13.693 11.4375 13.314 11.8026 13.314 12.244V16.9351L9.45026 11.8858C9.26077 11.6224 8.9488 11.4398 8.59755 11.4398C8.03601 11.4398 7.60156 11.8673 7.60156 12.3873V19.1743C7.60156 19.6134 7.96668 19.9669 8.42655 19.9669C8.89334 19.9669 9.26539 19.6157 9.26539 19.1743V14.4717L13.1292 19.5348C13.3256 19.7982 13.6306 19.9669 13.9819 19.9669C14.5434 19.9669 14.9964 19.5533 14.9964 19.0195V12.244C14.9987 11.8026 14.6197 11.4375 14.1529 11.4375Z" fill="white"/>
<path d="M21.9775 11.4375C21.6863 11.4375 21.4021 11.5738 21.2334 11.8165L19.3592 14.6311L17.5175 11.8234C17.3557 11.5738 17.0784 11.4375 16.7872 11.4375C16.2996 11.4375 15.9207 11.7888 15.9207 12.2763C15.9207 12.4728 15.9807 12.6692 16.0893 12.824L18.4927 16.3828V19.1096C18.4927 19.5833 18.8924 19.9623 19.3731 19.9623C19.8468 19.9623 20.2466 19.5833 20.2466 19.1096V16.3966L22.6753 12.8379C22.784 12.6831 22.844 12.4728 22.844 12.2763C22.8417 11.8026 22.4627 11.4375 21.9775 11.4375Z" fill="white"/>
<path d="M13.929 21.2451C13.4692 21.2451 13.0902 21.6102 13.0902 22.0516V26.7427L9.22639 21.7004C9.02996 21.43 8.72493 21.2474 8.37367 21.2474C7.81213 21.2474 7.37769 21.6749 7.37769 22.1949V28.462C7.87915 28.7947 8.39909 29.0836 8.94215 29.3563C9.00917 29.2477 9.04383 29.1183 9.04383 28.9842V24.277L12.9076 29.3401C13.104 29.6036 13.4091 29.7722 13.7603 29.7722C14.3219 29.7722 14.7679 29.3586 14.7679 28.8248V22.0493C14.7702 21.6102 14.3958 21.2451 13.929 21.2451Z" fill="white"/>
<path d="M21.7538 21.2451C21.4557 21.2451 21.1784 21.3815 21.0097 21.6241L19.1356 24.4387L17.2938 21.638C17.1321 21.3815 16.8548 21.2451 16.5636 21.2451C16.076 21.2451 15.697 21.5964 15.697 22.084C15.697 22.2804 15.7571 22.4768 15.8657 22.6316L18.269 26.1904V28.9172C18.269 29.3979 18.6688 29.7699 19.1425 29.7699C19.6232 29.7699 20.023 29.3979 20.023 28.9172V26.2043L22.4448 22.6455C22.5603 22.4907 22.6204 22.2804 22.6204 22.084C22.6204 21.6102 22.2414 21.2451 21.7538 21.2451Z" fill="white"/>
<path d="M24.2629 2.79492V4.94635C24.2629 5.38542 24.6281 5.73898 25.0879 5.73898C25.5478 5.73898 25.9268 5.38773 25.9268 4.94635V4.09363C25.4068 3.62222 24.8453 3.18777 24.2629 2.79492Z" fill="white"/>
<path d="M29.7537 9.33916V12.5143L25.8899 7.46504C25.6935 7.2016 25.3885 7.01904 25.0372 7.01904C24.4757 7.01904 24.0366 7.44656 24.0366 7.9665V14.7535C24.0366 15.1926 24.4017 15.5462 24.8685 15.5462C25.3284 15.5462 25.7074 15.1949 25.7074 14.7535V10.0509L29.5712 15.1071C29.7676 15.3775 30.0726 15.5462 30.4239 15.5462C30.6665 15.5462 30.8907 15.4722 31.0594 15.3359C31.0386 13.2053 30.5718 11.174 29.7537 9.33916Z" fill="white"/>
<path d="M30.3685 16.8267C29.9017 16.8267 29.5296 17.1918 29.5296 17.6332V22.248C30.2945 20.665 30.8029 18.9249 30.9855 17.097C30.8353 16.926 30.6134 16.8267 30.3685 16.8267ZM24.8131 16.8267C24.2516 16.8267 23.8125 17.2542 23.8125 17.7741V24.5612C23.8125 25.0002 24.1776 25.3538 24.6444 25.3538C25.1043 25.3538 25.4833 25.0025 25.4833 24.5612V19.8585L28.5821 23.9118C28.9195 23.3919 29.2315 22.8488 29.5088 22.2873L25.6658 17.2727C25.4694 17.0092 25.1644 16.8267 24.8131 16.8267Z" fill="white"/>
<path d="M25.4419 27.0773C25.2455 26.8139 24.9405 26.6313 24.5892 26.6313C24.0277 26.6313 23.5886 27.0589 23.5886 27.5788V28.7296C24.3004 28.3021 24.9751 27.8168 25.606 27.2876L25.4419 27.0773Z" fill="white"/>
<path d="M29.5087 22.2869L29.5295 22.3216V22.2477C29.5226 22.2592 29.5157 22.2731 29.5087 22.2869ZM29.5087 22.2869L29.5295 22.3216V22.2477C29.5226 22.2592 29.5157 22.2731 29.5087 22.2869ZM25.6033 27.2877L26.1718 28.0318C27.3226 27.0635 28.3371 25.9404 29.1829 24.6949L28.5797 23.9092C27.7571 25.1755 26.7542 26.3125 25.6033 27.2877ZM22.2202 1.63232C22.4513 1.74094 22.6731 1.85648 22.8973 1.97664C22.754 1.76635 22.5045 1.63926 22.2202 1.63232Z" fill="white"/>
<path d="M15.6968 -0.602051C6.70286 -0.602051 -0.606445 6.71418 -0.606445 15.7012C-0.606445 24.6951 6.70286 32.0113 15.6968 32.0113C24.6838 32.0113 32 24.6951 32 15.7012C32 6.71418 24.6838 -0.602051 15.6968 -0.602051ZM15.6968 31.0777C7.21587 31.0777 0.327147 24.1752 0.327147 15.7012C0.327147 7.2272 7.21587 0.331543 15.6968 0.331543C24.1708 0.331543 31.0664 7.2272 31.0664 15.7012C31.0664 24.1752 24.1685 31.0777 15.6968 31.0777Z" fill="#9A7EBD"/>
</g>
<defs>
<clipPath id="clip0_206_45865">
<rect width="32" height="32" rx="16" fill="white"/>
</clipPath>
</defs>
</svg>
