<svg width="64" height="64" viewBox="0 0 64 64" fill="none" xmlns="http://www.w3.org/2000/svg">
<path d="M19.5731 17.5661L20.937 11.9599L22.7538 9.68691L25.7166 8.45215L28.8412 11.0286L28.8955 18.0054L27.8387 23.7065L31.6307 20.6104L37.8158 17.5869L43.7478 15.5605L48.2999 16.4275L50.2186 22.3152L51.8463 31.3557L51.3754 40.6022L48.2386 44.6289L37.0775 49.7262L29.3032 52.2528L26.3655 50.4456L25.834 54.412L21.8456 56.0741L19.4681 53.8996L16.2706 48.9015L12.5189 40.9691L11.765 34.2393L14.6645 32.3176L18.1021 30.6175L19.5731 17.5661Z" fill="#FFD066"/>
<path d="M30.2657 20.0735C30.4842 18.1708 30.6106 16.2187 30.3726 14.3173C30.0632 11.8432 29.7061 8.9159 27.3123 7.60133C25.273 6.48127 23.2898 6.75924 21.6359 8.3411C16.8065 12.9595 18.9774 20.4454 17.7594 26.3093C17.4592 27.7552 17.0746 29.1759 16.8806 30.6266C16.7564 30.5651 16.6297 30.5083 16.4957 30.461C14.6592 29.8049 12.1705 30.8513 10.9553 32.2991C8.1903 35.5933 11.2655 41.4332 12.5795 44.6509C14.287 48.8294 17.8048 59.9268 24.3972 56.4019C26.2352 55.419 27.1347 54.0982 27.4499 52.6192C27.847 52.8377 28.284 53.0104 28.7738 53.1203C32.0346 53.852 35.5393 51.7979 38.4054 50.5663C42.2646 48.9073 47.0463 47.6042 50.3439 44.9152C52.8707 42.8548 53.6024 39.8615 53.6258 36.724C53.6597 32.2076 53.0103 27.5992 52.1953 23.1668C51.5839 19.8365 51.0424 16.1482 47.5173 14.7344C42.0159 12.5289 35.1987 16.2129 30.2652 20.0732L30.2657 20.0735ZM49.5402 25.8636C49.9946 28.7579 50.315 31.6749 50.4889 34.5997C50.6551 37.4 50.7838 40.4912 48.4514 42.4952C46.3029 44.3412 43.0177 45.2403 40.4499 46.3444C37.8065 47.4808 35.1642 48.8481 32.4235 49.7326C30.7967 50.2582 29.2952 50.4498 28.0144 49.1149C27.3636 48.4369 26.9844 47.3698 26.5601 46.5347C26.5092 46.4347 26.4507 46.3467 26.3881 46.2655C25.9463 45.1721 25.4464 44.1163 24.9987 43.1567C24.1652 41.3697 21.3246 42.5424 22.1625 44.3387C22.5226 45.1114 23.0709 46.0884 23.5584 47.1322C23.5708 47.317 23.6197 47.5121 23.7234 47.7164C23.8617 47.9894 24.0009 48.2653 24.1416 48.5406C24.776 50.3214 24.9408 52.1229 23.4879 53.327C19.8679 56.3278 16.0936 45.1674 15.1898 42.903C14.3999 40.9241 13.0194 38.2077 12.9299 35.9816C12.8845 34.8586 13.7855 32.8999 15.3384 33.3176C16.3497 33.589 16.949 35.3881 17.3859 36.2213C17.3925 36.2339 17.4013 36.2427 17.4078 36.2549C17.8541 37.6868 18.4771 39.0703 19.1386 40.4158C20.0069 42.1817 22.8493 41.0124 21.9748 39.2338C20.4489 36.1294 19.4512 33.281 20.1047 29.8168C20.9024 25.5843 21.2437 21.7376 21.419 17.4311C21.5005 15.4304 21.7682 11.5786 23.8601 10.4259C27.0284 8.68011 27.2843 13.901 27.4053 15.3924C27.5479 17.152 27.7653 21.9594 26.5071 23.3688C25.3629 24.6505 27.4172 26.7159 28.6797 25.5052C32.7565 21.5971 38.2062 17.661 44.0382 17.3231C48.8565 17.045 48.977 22.2796 49.5401 25.8636L49.5402 25.8636Z" fill="#FFD066"/>
</svg>
