<svg width="60" height="63" viewBox="0 0 60 63" fill="none" xmlns="http://www.w3.org/2000/svg">
<g id="Group 907">
<path id="Vector" d="M17.8889 35.7028C16.1661 32.7028 14.9974 29.6791 14.3975 26.8166L13.9515 23.3186C13.7389 18.8497 15.0689 15.0433 17.9825 12.7911C18.072 12.7284 18.1608 12.68 18.2503 12.6173C18.2503 12.6173 18.86 12.2158 19.2898 11.986C19.7196 11.7563 20.4515 11.4407 20.4515 11.4407C21.8995 10.8966 23.5065 10.6966 25.2193 10.801L28.045 11.2582C30.8996 11.9684 33.9022 13.4501 36.793 15.6528L38.8238 17.3287C39.2666 17.7216 39.6937 18.1284 40.1258 18.5532C41.0134 18.1888 41.869 17.8668 42.6948 17.5963L47.1952 16.5498C50.7305 16.1205 53.423 16.8742 54.9313 18.8353C56.6833 21.1125 56.4706 24.5124 54.4556 28.5034C53.2828 30.838 51.4887 33.3786 49.1162 36.0118C46.8949 38.4884 44.2882 40.8945 41.3656 43.1491C38.443 45.4037 35.4617 47.3119 32.5013 48.828C29.9919 50.1165 27.6422 51.0626 25.4929 51.6745L22.8685 52.2792C18.9813 52.9094 16.0083 52.2067 14.3879 50.097C11.9845 46.9709 13.2729 41.7604 17.8889 35.7028Z" fill="#32691A"/>
<path id="%" d="M29.2765 36.5706C29.0282 36.7704 28.8173 36.7623 28.6436 36.5464C28.5915 36.4816 28.5653 36.4049 28.5651 36.3162L28.0812 19.3695C28.0786 19.2115 28.0934 19.0752 28.1255 18.9604C28.1685 18.837 28.2655 18.7145 28.4166 18.5929L29.8415 17.4466C30.0898 17.2469 30.3008 17.255 30.4745 17.4709C30.5266 17.5357 30.5528 17.6124 30.553 17.7011L31.0207 34.6608C31.0233 34.8188 31.0085 34.9551 30.9764 35.0699C30.9442 35.1846 30.8526 35.3028 30.7014 35.4244L29.2765 36.5706ZM37.8102 29.8392C37.0654 30.4383 36.3046 30.7303 35.5278 30.7151C34.7618 30.6912 34.0967 30.3728 33.5325 29.7598C33.2851 29.4965 33.0746 29.2569 32.9009 29.041C32.7293 28.8057 32.5274 28.5325 32.295 28.2216C31.8085 27.5283 31.6248 26.8137 31.744 26.0778C31.874 25.3331 32.333 24.6438 33.121 24.0099C33.909 23.376 34.6752 23.0797 35.4197 23.1209C36.1749 23.1535 36.8335 23.486 37.3956 24.1185C37.6603 24.4034 37.8839 24.6591 38.0662 24.8858C38.2399 25.1017 38.4289 25.3587 38.633 25.6567C39.1217 26.3305 39.2902 27.0484 39.1387 27.8104C38.9979 28.5637 38.5551 29.24 37.8102 29.8392ZM36.5337 28.2523C36.6741 28.1394 36.7603 28.0256 36.7924 27.9108C36.8159 27.7853 36.8101 27.6566 36.7752 27.5247C36.7315 27.382 36.6663 27.2567 36.5794 27.1487C36.4187 26.9047 36.2471 26.6693 36.0647 26.4426C35.8824 26.2159 35.6936 26.0033 35.4983 25.8048C35.3486 25.6407 35.1784 25.5287 34.9878 25.4686C34.7973 25.4085 34.6048 25.4567 34.4105 25.613C34.2054 25.778 34.1118 25.96 34.1296 26.159C34.1475 26.358 34.2205 26.5482 34.3486 26.7296C34.5115 26.9542 34.6841 27.1798 34.8665 27.4065C35.0489 27.6332 35.2366 27.8555 35.4298 28.0735C35.5274 28.1728 35.6358 28.2634 35.7551 28.3453C35.8764 28.4077 36.0009 28.4409 36.1286 28.4449C36.2583 28.4294 36.3934 28.3652 36.5337 28.2523ZM26.0326 29.9521C25.2878 30.5513 24.5367 30.8443 23.7794 30.8312C23.0134 30.8073 22.3429 30.4932 21.7679 29.8889C21.5205 29.6256 21.31 29.386 21.1363 29.1702C20.9647 28.9348 20.7628 28.6616 20.5304 28.3507C20.0439 27.6575 19.8656 26.9385 19.9956 26.1939C20.1256 25.4492 20.5792 24.7643 21.3564 24.139C22.1444 23.5051 22.9106 23.2088 23.6551 23.2501C24.4103 23.2826 25.0743 23.6108 25.6472 24.2346C25.9119 24.5194 26.1355 24.7752 26.3179 25.0019C26.4915 25.2178 26.6805 25.4748 26.8847 25.7728C27.3625 26.4553 27.5256 27.1775 27.3741 27.9395C27.2246 28.682 26.7775 29.3529 26.0326 29.9521ZM24.7691 28.3814C24.9095 28.2685 24.9957 28.1547 25.0279 28.04C25.0513 27.9144 25.0456 27.7857 25.0106 27.6538C24.9669 27.5111 24.9017 27.3858 24.8148 27.2778C24.6454 27.023 24.4738 26.7876 24.3001 26.5717C24.1178 26.345 23.929 26.1324 23.7337 25.9339C23.584 25.7698 23.4138 25.6578 23.2233 25.5977C23.0435 25.529 22.851 25.5771 22.6459 25.7421C22.4408 25.9071 22.3472 26.0891 22.3651 26.2881C22.3829 26.4871 22.4559 26.6773 22.584 26.8587C22.7469 27.0833 22.9195 27.3089 23.1019 27.5356C23.2756 27.7515 23.4633 27.9739 23.6652 28.2027C23.7628 28.3019 23.8712 28.3925 23.9905 28.4744C24.1118 28.5368 24.2417 28.5657 24.3802 28.561C24.5099 28.5455 24.6396 28.4856 24.7691 28.3814Z" fill="#C5E0BA"/>
</g>
</svg>
