<svg width="86" height="84" viewBox="0 0 86 84" fill="none" xmlns="http://www.w3.org/2000/svg">
<path d="M9.9459 49.99C6.55821 44.091 4.26001 38.1452 3.08049 32.5165L2.2035 25.6381C1.78529 16.8506 4.40072 9.36572 10.1299 4.93706C10.3059 4.81375 10.4804 4.71863 10.6564 4.59531C10.6564 4.59531 11.8553 3.80575 12.7005 3.35398C13.5457 2.90221 14.9849 2.28168 14.9849 2.28168C17.8322 1.21182 20.9922 0.818462 24.3602 1.02378L29.9165 1.92274C35.5296 3.31932 41.434 6.23291 47.1184 10.5643L51.1116 13.8596C51.9824 14.6322 52.8222 15.4321 53.6717 16.2674C55.4172 15.5509 57.0996 14.9177 58.7234 14.3859L67.5729 12.3281C74.5246 11.4839 79.8191 12.9659 82.785 16.8223C86.2301 21.3001 85.8119 27.9855 81.8496 35.8332C79.5433 40.4239 76.0156 45.4199 71.3502 50.5977C66.9824 55.4675 61.8566 60.1988 56.1097 64.6322C50.3628 69.0656 44.5004 72.8179 38.6792 75.7991C33.7448 78.3327 29.1243 80.193 24.8982 81.3963L19.7376 82.5854C12.0939 83.8246 6.24785 82.4429 3.06156 78.2943C-1.66441 72.1474 0.869101 61.9016 9.9459 49.99Z" fill="#FFD066"/>
</svg>
